<?xml version="1.0" encoding="UTF-8"?><svg version="1.1" width="107px" height="25px" viewBox="0 0 107.0 25.0" xmlns="http://www.w3.org/2000/svg" xmlns:xlink="http://www.w3.org/1999/xlink"><defs><clipPath id="10110352571141199811952110"><path d="M1024,0 L1024,650 L0,650 L0,0 L1024,0 Z"></path></clipPath><clipPath id="1224852110481021181145651"><path d="M400,0 L400,650 L0,650 L0,0 L400,0 Z"></path></clipPath><radialGradient id="485353515010611410811256" cx="426.397164px" cy="-82.2235547px" r="558.360498px" gradientTransform="translate(526.0090667108849 -504.8968604323967) rotate(114.17555016750536)" gradientUnits="userSpaceOnUse"><stop stop-color="rgba(87, 201, 244, 0.407022)" offset="0.00358528191%"></stop><stop stop-color="rgba(169, 150, 255, 0.315834)" offset="100%"></stop></radialGradient><clipPath id="1054845112511115499101107"><path d="M23.1803361,0 C26.2135014,0 28.6891877,2.47601918 28.6832041,5.50959233 L28.6832041,19.4904077 C28.6832041,22.529976 26.2135014,25 23.1743417,25 L5.50885154,25 C2.46969188,25 0,22.5359712 0,19.4904077 L0,5.74340528 C0.221792717,5.70143885 0.443585434,5.67745803 0.665378151,5.65947242 C1.39070028,5.60551559 2.10403361,5.68944844 2.75742297,5.90527578 L2.75742297,19.4844125 C2.75742297,21.0071942 3.99826331,22.2422062 5.51484594,22.2422062 L8.5719888,22.2422062 C9.26733894,22.2422062 9.87876751,21.7925659 10.0945658,21.1330935 L12.84,12.6498801 C13.2176471,11.4868106 12.8939496,10.2098321 12.0067787,9.36450839 L11.3645456,8.7557454 C10.3013725,7.75113243 9.26733894,6.79856115 8.15837535,5.92925659 C6.97747899,5 5.84453782,4.27458034 4.74156863,3.7529976 C4.42985994,3.60311751 4.11215686,3.47122302 3.80044818,3.35131894 L3.56666667,3.26738609 C2.64952381,2.9736211 1.66644258,2.84772182 0.659383754,2.89568345 C0.845210084,2.54796163 1.0729972,2.22422062 1.3247619,1.93045564 L1.3427451,1.91247002 C2.33182073,0.773381295 3.95630252,0.413669065 5.3410084,1.00119904 C6.37803922,1.44484412 7.42705882,2.0263789 8.49406162,2.75779376 C8.94963585,3.06954436 9.40521008,3.40527578 9.86677871,3.76498801 C11.2934454,4.88609113 12.6242017,6.15107914 13.9070028,7.36810552 C14.7042577,8.117506 15.5254902,8.89688249 16.3467227,9.62230216 C17.9232493,11.0071942 20.3329972,12.9376499 23.072437,13.6930456 C24.0435294,13.9568345 25.0146218,14.058753 25.9317647,13.9928058 L25.9317647,5.50959233 C25.9317647,3.98681055 24.6909244,2.75179856 23.1743417,2.75179856 L12.9658824,2.75179856 C12.5103081,2.36211031 12.0487395,1.97242206 11.5691877,1.59472422 C10.8138936,1.00119904 10.0645938,0.473621103 9.32128852,0 Z M17.2518768,13.8549161 C16.4785994,13.3213429 15.4115966,13.6810552 15.1238655,14.5743405 L13.0617927,20.9532374 C12.8579832,21.5947242 13.3315406,22.2482014 14.0029132,22.2482014 L23.1803361,22.2482014 C24.6909244,22.2482014 25.9197759,21.0191847 25.9317647,19.5143885 L25.9317647,19.4904077 L25.9377591,16.7625899 C25.7579272,16.7685851 25.5780952,16.7745803 25.3922689,16.7745803 C24.3912045,16.7745803 23.3661625,16.6366906 22.3471148,16.3549161 C20.434902,15.8273381 18.7145098,14.8741007 17.2518768,13.8549161 Z"></path></clipPath><linearGradient id="561091061131051191184855120" x1="2.54119401px" y1="24.3101799px" x2="26.1518289px" y2="0.696378897px" gradientUnits="userSpaceOnUse"><stop stop-color="#FFFFFF" offset="0%"></stop><stop stop-color="#FFFFFF" offset="100%"></stop></linearGradient><clipPath id="5311145109481021085548118"><path d="M9.42319328,0 L9.42319328,1.93045564 L5.80257703,1.93045564 L5.80257703,11.32494 L3.62061625,11.32494 L3.62061625,1.93045564 L0,1.93045564 L0,0 L9.42319328,0 Z"></path></clipPath><clipPath id="11754541111001081081005299"><path d="M7.71478992,0 L7.71478992,1.93045564 L2.19994398,1.93045564 L2.19994398,4.65827338 L6.97148459,4.65827338 L6.97148459,6.44484412 L2.19994398,6.44484412 L2.19994398,9.39448441 L7.85865546,9.39448441 L7.85865546,11.32494 L0,11.32494 L0,0 L7.71478992,0 Z"></path></clipPath><clipPath id="1181191061041101039710054111"><path d="M2.19994398,0 L2.19994398,9.39448441 L7.97254902,9.39448441 L7.97254902,11.32494 L0,11.32494 L0,0 L2.19994398,0 Z"></path></clipPath><clipPath id="50121531119945108102104102"><path d="M2.19994398,0 L2.19994398,11.3189448 L0,11.3189448 L0,0 L2.19994398,0 Z"></path></clipPath><clipPath id="97501011061081135510011995"><path d="M5.56280112,0 C6.38403361,0 7.12733894,0.167865707 7.80470588,0.503597122 C8.48207283,0.839328537 9.05753501,1.27697842 9.53708683,1.81654676 C10.0166387,2.36211031 10.3882913,2.97961631 10.6520448,3.68105516 C10.9157983,4.3705036 11.0476751,5.07194245 11.0476751,5.7853717 C11.0476751,6.54076739 10.9098039,7.26019185 10.6340616,7.94364508 C10.3523249,8.62709832 9.97467787,9.23261391 9.48313725,9.76019185 C8.99159664,10.2877698 8.41014006,10.7074341 7.72677871,11.0191847 C7.04341737,11.3309353 6.30610644,11.4868106 5.50885154,11.4868106 C4.68162465,11.4868106 3.92633053,11.32494 3.25495798,11.001199 C2.57759104,10.6714628 2.00212885,10.2458034 1.51658263,9.70623501 C1.03703081,9.17266187 0.659383754,8.55515588 0.395630252,7.86570743 C0.131876751,7.17026379 0,6.46282974 0,5.74340528 C0,4.98800959 0.137871148,4.26258993 0.419607843,3.57314149 C0.701344538,2.88369305 1.09098039,2.27218225 1.58252101,1.73860911 C2.07406162,1.20503597 2.66151261,0.779376499 3.34487395,0.467625899 C4.02823529,0.1558753 4.76554622,0 5.56280112,0 Z M5.53882353,1.96642686 C5.00532213,1.96642686 4.53176471,2.07434053 4.11815126,2.29016787 C3.70453782,2.51199041 3.35686275,2.79976019 3.08112045,3.15347722 C2.80537815,3.50719424 2.59557423,3.91486811 2.45170868,4.36450839 C2.30784314,4.81414868 2.23591036,5.27577938 2.23591036,5.74340528 C2.23591036,6.23501199 2.30784314,6.70863309 2.45770308,7.16426859 C2.60756303,7.61990408 2.82336134,8.02158273 3.10509804,8.37529976 C3.38683473,8.72901679 3.7345098,9.01079137 4.14212885,9.2206235 C4.5557423,9.43045564 5.01731092,9.5383693 5.53882353,9.5383693 C6.06633053,9.5383693 6.53988796,9.42446043 6.947507,9.20863309 C7.35512605,8.99280576 7.70280112,8.69904077 7.98453782,8.33932854 C8.26627451,7.97961631 8.47607843,7.57194245 8.61994398,7.12230216 C8.76380952,6.66666667 8.8357423,6.21103118 8.84173669,5.74340528 C8.84173669,5.25179856 8.76380952,4.77817746 8.60795518,4.32254197 C8.45210084,3.86690647 8.23630252,3.46522782 7.95456583,3.11151079 C7.67282913,2.76378897 7.32515406,2.48800959 6.91753501,2.27817746 C6.50991597,2.06834532 6.04834734,1.96642686 5.53882353,1.96642686 Z"></path></clipPath><clipPath id="1041071071211091214955121100"><path d="M4.59770308,0 C5.39495798,0 6.12627451,0.119904077 6.79764706,0.371702638 C7.46901961,0.623501199 8.05647059,0.917266187 8.5540056,1.25899281 L7.58291317,3.04556355 C7.50498599,2.9676259 7.37310924,2.86570743 7.17529412,2.73980815 C6.97747899,2.61390887 6.73770308,2.48800959 6.45596639,2.36810552 C6.17422969,2.24220624 5.86851541,2.14028777 5.53882353,2.05635492 C5.20913165,1.97242206 4.87344538,1.93045564 4.53176471,1.93045564 C3.92633053,1.93045564 3.4767507,2.04436451 3.17703081,2.26618705 C2.87731092,2.48800959 2.72745098,2.8057554 2.72745098,3.20743405 C2.72745098,3.441247 2.78739496,3.63309353 2.89529412,3.78896882 C3.00319328,3.94484412 3.17103641,4.07673861 3.38084034,4.19664269 C3.59064426,4.31055156 3.86039216,4.41846523 4.18408964,4.51438849 C4.50179272,4.61031175 4.87943978,4.71223022 5.30504202,4.82014388 C5.85652661,4.97002398 6.36005602,5.13189448 6.80963585,5.29976019 C7.25921569,5.4676259 7.64285714,5.67745803 7.95456583,5.9352518 C8.26627451,6.19304556 8.51204482,6.49880096 8.67988796,6.85251799 C8.85372549,7.21223022 8.93764706,7.6498801 8.93764706,8.17146283 C8.93764706,8.77697842 8.8237535,9.29256595 8.59596639,9.72422062 C8.36817927,10.1558753 8.06246499,10.5035971 7.67282913,10.7673861 C7.28918768,11.0311751 6.83960784,11.2290168 6.33607843,11.3489209 C5.82655462,11.4748201 5.29904762,11.5347722 4.74756303,11.5347722 C3.89635854,11.5347722 3.05714286,11.4088729 2.22991597,11.1510791 C1.40268908,10.8932854 0.659383754,10.5335731 0,10.0659472 L0.971092437,8.17146283 C1.0610084,8.26738609 1.23484594,8.38729017 1.48661064,8.54316547 C1.73837535,8.69904077 2.03210084,8.84892086 2.37378151,9.00479616 C2.71546218,9.15467626 3.09310924,9.28657074 3.50672269,9.39448441 C3.92033613,9.49640288 4.34593838,9.55035971 4.78352941,9.55035971 C5.99439776,9.55035971 6.59983193,9.16666667 6.59983193,8.38729017 C6.59983193,8.14148681 6.52789916,7.93165468 6.39002801,7.76378897 C6.25215686,7.58992806 6.05434174,7.44004796 5.80257703,7.31414868 C5.55081232,7.1822542 5.23910364,7.06834532 4.87943978,6.96043165 C4.51977591,6.85851319 4.11215686,6.73860911 3.66857143,6.61270983 C3.12907563,6.46282974 2.65551821,6.30095923 2.25988796,6.12709832 C1.8642577,5.94724221 1.52857143,5.74340528 1.26481793,5.50359712 C0.995070028,5.26378897 0.797254902,4.98800959 0.665378151,4.67625899 C0.533501401,4.36450839 0.467563025,3.99280576 0.467563025,3.55515588 C0.467563025,2.98561151 0.575462185,2.47601918 0.785266106,2.0263789 C1.00106443,1.58273381 1.29478992,1.21103118 1.67243697,0.911270983 C2.05008403,0.611510791 2.48168067,0.389688249 2.98521008,0.23381295 C3.4887395,0.0779376499 4.0222409,0 4.59770308,0 Z"></path></clipPath></defs><g transform="translate(-146.0 -31.0)"><g clip-path="url(#10110352571141199811952110)"><g clip-path="url(#1224852110481021181145651)"></g><g transform="translate(146.0 31.0)"><g clip-path="url(#1054845112511115499101107)"><polygon points="0,0 28.683215,0 28.683215,25 0,25 0,0" stroke="none" fill="url(#561091061131051191184855120)"></polygon></g><g transform="translate(36.62577030812325 6.636690647482027)"><g transform="translate(0.0 0.08393285371701076)"><g clip-path="url(#5311145109481021085548118)"><polygon points="0,0 9.42319328,0 9.42319328,11.32494 0,11.32494 0,0" stroke="none" fill="#FFFFFF"></polygon></g></g><g transform="translate(14.008907563025248 0.08393285371701076)"><g clip-path="url(#11754541111001081081005299)"><polygon points="0,0 7.85865546,0 7.85865546,11.32494 0,11.32494 0,0" stroke="none" fill="#FFFFFF"></polygon></g></g><g transform="translate(26.77697478991599 0.08393285371701076)"><g clip-path="url(#1181191061041101039710054111)"><polygon points="0,0 7.97254902,0 7.97254902,11.32494 0,11.32494 0,0" stroke="none" fill="#FFFFFF"></polygon></g></g><g transform="translate(39.275294117647 0.08393285371701076)"><g clip-path="url(#50121531119945108102104102)"><polygon points="0,0 2.19994398,0 2.19994398,11.3189448 0,11.3189448 0,0" stroke="none" fill="#FFFFFF"></polygon></g></g><g transform="translate(46.33070028011195 0.00599520383691754)"><g clip-path="url(#97501011061081135510011995)"><polygon points="0,0 11.0476751,0 11.0476751,11.4868106 0,11.4868106 0,0" stroke="none" fill="#FFFFFF"></polygon></g></g><g transform="translate(61.43658263305322 0.0)"><g clip-path="url(#1041071071211091214955121100)"><polygon points="0,0 8.93764706,0 8.93764706,11.5347722 0,11.5347722 0,0" stroke="none" fill="#FFFFFF"></polygon></g></g></g></g></g></g></svg>