<?xml version="1.0" encoding="iso-8859-1"?>
<!-- Generator: Adobe Illustrator 19.0.0, SVG Export Plug-In . SVG Version: 6.00 Build 0)  -->
<svg version="1.1" id="Layer_1" xmlns="http://www.w3.org/2000/svg" xmlns:xlink="http://www.w3.org/1999/xlink" x="0px" y="0px"
	 viewBox="0 0 453.479 453.479" style="enable-background:new 0 0 453.479 453.479;" xml:space="preserve">
<g>
	<g>
		<g>
			<path d="M288,218.739H103.2l142.4-142.4c3.2-3.2,3.2-8,0-11.2c-3.2-3.2-8-3.2-11.2,0l-156,156c-3.2,3.2-3.2,8,0,11.2l156,156
				c1.6,1.6,3.6,2.4,5.6,2.4s4-0.8,5.6-2.4c3.2-3.2,3.2-8,0-11.2l-142.4-142.4H288c54,0,104.4,29.2,131.6,76c1.6,2.4,4,4,6.8,4
				c1.2,0,2.8-0.4,4-1.2c4-2.4,5.2-7.2,2.8-10.8C403.2,250.739,347.6,218.739,288,218.739z"/>
			<path d="M453.2,356.739l-2.4-10c-1.2-4.4-5.2-6.8-9.6-6c-4.4,1.2-6.8,5.2-6,9.6l2.4,10c0.8,3.6,4,6,7.6,6c0.8,0,1.2,0,2-0.4
				C451.6,365.539,454.4,361.139,453.2,356.739z"/>
			<path d="M19.2,226.739l134.4-130.4c3.2-3.2,3.2-8,0-11.2c-3.2-3.2-8-3.2-11.2,0l-140,136c-1.6,1.6-2.4,3.6-2.4,5.6s0.8,4,2.4,5.6
				l140,140c1.6,1.6,3.6,2.4,5.6,2.4s4-0.8,5.6-2.4c3.2-3.2,3.2-8,0-11.2L19.2,226.739z"/>
		</g>
	</g>
</g>
<g>
</g>
<g>
</g>
<g>
</g>
<g>
</g>
<g>
</g>
<g>
</g>
<g>
</g>
<g>
</g>
<g>
</g>
<g>
</g>
<g>
</g>
<g>
</g>
<g>
</g>
<g>
</g>
<g>
</g>
</svg>
