<?xml version="1.0" encoding="utf-8"?>
<svg id="master-artboard" viewBox="0 0 803 694" version="1.1" xmlns="http://www.w3.org/2000/svg" x="0px" y="0px" style="enable-background:new 0 0 1400 980;" width="803px" height="694px"><defs><style id="ee-google-fonts">@import url(https://fonts.googleapis.com/css?family=Anton:400|Roboto+Slab:100,300,400,700);</style><path id="text-path-0" d="M 778.8464965820312 213.4612274169922 A 100 18 0 0 1 988.3533935546875 213.4612274169922 A 100 18 0 0 1 778.8464965820312 213.4612274169922 Z" style="fill: none; stroke: red; stroke-width: 2;"/><path id="text-path-1" d="M 664.5464477539062 37.96122741699219 A 100 19 0 0 1 876.5812377929688 37.96122741699219 A 100 19 0 0 1 664.5464477539062 37.96122741699219" style="fill: none; stroke: red; stroke-width: 2;"/><path id="text-path-2" d="M 765.3650512695312 211.70851135253906 A 100 17 0 0 1 991.5017700195312 211.70851135253906 A 100 17 0 0 1 765.3650512695312 211.70851135253906" style="fill: none; stroke: red; stroke-width: 2;"/><path id="path-1" d="M 765.3650512695312 211.70851135253906 A 100 17 0 0 1 991.5017700195312 211.70851135253906 A 100 17 0 0 1 765.3650512695312 211.70851135253906" style="fill: none; stroke: red; stroke-width: 2;"/><clipPath id="clipPath58" clipPathUnits="userSpaceOnUse"><path id="path56" d="m 1209.83,2032.81 c -3.01,0 -5.29,1.12 -6.89,3.34 -1.58,2.23 -2.37,5.37 -2.37,9.46 v 48 h 7.64 v -46.43 c 0,-3.04 0.46,-5.2 1.37,-6.48 0.9,-1.28 2.34,-1.92 4.29,-1.92 3.41,0 6.95,1.95 10.63,5.87 v 48.96 h 7.59 v -59.89 h -7.59 v 6.63 c -4.46,-5.03 -9.35,-7.54 -14.67,-7.54"/></clipPath><clipPath id="clipPath346" clipPathUnits="userSpaceOnUse"><path style="clip-rule:evenodd" id="path344" d="m 1143.63,1784.11 c -5.67,0 -9.81,1.8 -12.33,5.31 -2.52,3.6 -3.78,9.63 -3.78,18.18 v 15.12 c 0,5.85 0.54,10.44 1.71,13.86 1.26,3.51 2.97,5.85 5.31,7.29 2.34,1.35 5.4,2.07 9.18,2.07 2.52,0 4.68,-0.36 6.48,-0.99 1.8,-0.72 3.24,-1.62 4.41,-2.88 1.17,-1.17 2.16,-2.79 2.79,-4.86 0.72,-2.07 1.17,-4.41 1.44,-6.93 0.36,-2.52 0.45,-5.49 0.45,-9.09 l -0.09,-5.4 h -24.12 v -8.91 c 0,-6.21 0.54,-10.62 1.8,-13.14 1.17,-2.61 3.42,-3.87 6.75,-3.87 2.61,0 4.59,0.81 6.03,2.52 1.44,1.62 2.16,4.68 2.16,9.09 v 4.14 h 7.38 v -3.33 c 0,-5.85 -1.17,-10.35 -3.6,-13.41 -2.43,-3.15 -6.39,-4.77 -11.97,-4.77 v 0 m -6.66,52.83 c -1.26,-2.25 -1.89,-6.48 -1.89,-12.69 v -4.05 h 16.74 v 4.95 c 0,2.07 -0.09,3.78 -0.18,5.22 -0.09,1.35 -0.27,2.7 -0.63,4.05 -0.27,1.35 -0.72,2.43 -1.35,3.24 -0.54,0.81 -1.35,1.44 -2.34,1.89 -1.08,0.45 -2.25,0.72 -3.69,0.72 -3.15,0 -5.4,-1.17 -6.66,-3.33 m -65.61,-52.83 c -3.06,0 -5.67,0.54 -7.74,1.53 -2.16,0.99 -3.78,2.43 -4.95,4.41 -1.17,1.98 -2.07,4.32 -2.61,7.02 -0.45,2.7 -0.72,5.94 -0.72,9.72 v 16.56 c 0,7.65 1.17,13.32 3.51,17.01 2.43,3.69 6.57,5.58 12.51,5.58 5.94,0 10.08,-1.89 12.42,-5.58 2.34,-3.69 3.51,-9.36 3.51,-17.01 v -16.56 c 0,-3.78 -0.27,-7.02 -0.72,-9.72 -0.54,-2.7 -1.35,-5.04 -2.61,-7.02 -1.17,-1.98 -2.79,-3.42 -4.86,-4.41 -2.16,-0.99 -4.68,-1.53 -7.74,-1.53 v 0 m -3.42,55.62 c -0.9,-0.36 -1.71,-0.9 -2.25,-1.62 l -1.53,-2.43 c -0.36,-0.9 -0.63,-1.98 -0.81,-3.42 -0.18,-1.35 -0.27,-2.61 -0.36,-3.87 0,-1.26 -0.09,-2.79 -0.09,-4.68 v -17.37 c 0,-1.89 0.09,-3.42 0.09,-4.59 0.09,-1.26 0.18,-2.52 0.36,-3.96 0.18,-1.35 0.45,-2.52 0.81,-3.33 l 1.53,-2.43 c 0.54,-0.81 1.35,-1.35 2.25,-1.62 0.99,-0.36 2.07,-0.54 3.42,-0.54 1.53,0 2.79,0.27 3.78,0.81 1.08,0.54 1.89,1.26 2.52,2.07 0.54,0.9 0.99,2.07 1.26,3.6 0.36,1.62 0.54,3.06 0.63,4.5 0.09,1.44 0.09,3.24 0.09,5.49 v 17.37 c 0,2.34 0,4.14 -0.09,5.58 -0.09,1.35 -0.27,2.88 -0.63,4.41 -0.27,1.53 -0.72,2.79 -1.26,3.6 -0.63,0.81 -1.44,1.53 -2.52,2.07 -0.99,0.63 -2.25,0.9 -3.78,0.9 -1.35,0 -2.43,-0.18 -3.42,-0.54 m -36.18,-55.62 c -3.96,0 -7.56,1.98 -10.71,5.76 v -4.77 h -7.56 v 83.88 h 7.56 V 1840 c 3.15,3.96 7.02,5.94 11.43,5.94 2.25,0 4.14,-0.45 5.85,-1.44 1.62,-0.9 2.97,-2.07 3.96,-3.51 0.9,-1.44 1.71,-3.24 2.34,-5.4 0.54,-2.16 0.9,-4.32 1.17,-6.39 0.18,-2.16 0.27,-4.5 0.27,-7.2 v -12.6 c 0,-3.15 -0.18,-6.03 -0.45,-8.55 -0.27,-2.43 -0.72,-4.77 -1.44,-6.93 -0.63,-2.16 -1.53,-3.87 -2.61,-5.31 -1.08,-1.35 -2.43,-2.52 -4.05,-3.24 -1.71,-0.81 -3.6,-1.26 -5.76,-1.26 v 0 m -10.71,51.21 v -40.77 c 2.79,-2.97 5.94,-4.41 9.36,-4.41 3.24,0 5.4,1.53 6.48,4.5 0.99,2.97 1.53,7.83 1.53,14.67 V 1822 c 0,6.48 -0.54,11.07 -1.53,13.77 -1.08,2.79 -3.24,4.14 -6.57,4.14 -3.06,0 -6.12,-1.53 -9.27,-4.59 m -38.429,-51.21 c -3.512,0 -6.391,1.35 -8.641,3.87 -2.25,2.61 -3.421,5.85 -3.421,9.63 0,1.98 0.179,3.78 0.543,5.31 0.269,1.62 0.988,3.06 1.886,4.41 0.903,1.44 1.891,2.61 2.973,3.69 1.168,1.08 2.699,2.16 4.68,3.42 2.07,1.17 4.05,2.25 6.121,3.33 1.976,0.99 4.679,2.16 7.918,3.69 v 4.23 c 0,5.49 -0.539,9.36 -1.532,11.43 -1.078,2.07 -3.058,3.06 -5.847,3.06 -5.582,0 -8.371,-3.42 -8.371,-10.26 v -2.16 l -7.469,0.27 c 0,0.9 0,1.53 0.09,1.8 0.179,5.58 1.711,9.72 4.41,12.24 2.699,2.52 6.57,3.87 11.699,3.87 5.309,0 9.09,-1.62 11.25,-4.77 2.25,-3.06 3.33,-8.1 3.33,-15.03 v -29.16 c 0,-4.77 0.27,-8.73 0.63,-11.88 h -6.749 l -1.082,8.28 c -0.988,-2.61 -2.519,-4.77 -4.68,-6.57 -2.16,-1.8 -4.769,-2.7 -7.738,-2.7 v 0 m 11.16,31.77 c -1.711,-0.81 -2.972,-1.53 -3.871,-1.98 -0.808,-0.45 -1.89,-1.08 -3.148,-1.8 -1.262,-0.72 -2.16,-1.26 -2.703,-1.71 l -2.161,-1.8 -1.707,-1.89 -1.082,-1.98 -0.718,-2.52 c -0.18,-0.81 -0.27,-1.8 -0.27,-2.79 0,-2.97 0.719,-5.13 1.981,-6.57 1.347,-1.44 2.968,-2.16 4.949,-2.16 2.07,0 3.961,0.72 5.578,2.07 1.711,1.44 3.062,3.06 4.051,5.04 v 18.63 l -0.899,-0.54 m -133.293,-28.35 c -1.617,2.25 -2.429,5.4 -2.429,9.45 v 48.06 h 7.652 v -46.44 c 0,-3.06 0.449,-5.22 1.348,-6.48 0.902,-1.35 2.339,-1.98 4.32,-1.98 3.422,0 6.93,1.98 10.621,5.94 v 48.96 h 7.559 V 1785.1 H 882 v 6.66 c -4.41,-5.04 -9.359,-7.56 -14.672,-7.56 -2.969,0 -5.308,1.08 -6.84,3.33 m 46.442,0.18 c -1.532,2.25 -2.34,5.49 -2.34,9.81 v 42.39 h -7.289 v 5.13 h 7.289 v 18.45 h 7.558 v -18.45 h 9.993 v -5.13 h -9.993 v -41.67 c 0,-3.06 0.364,-5.13 1.082,-6.21 0.719,-1.17 2.161,-1.71 4.231,-1.71 1.437,0 2.879,0.09 4.32,0.36 v -5.67 c -2.25,-0.45 -4.41,-0.63 -6.39,-0.63 -4.051,0 -6.93,1.08 -8.461,3.33 m 191.43,-2.61 v 59.94 h 7.56 v -8.28 c 1.8,3.06 3.96,5.31 6.39,6.75 2.43,1.44 4.95,2.16 7.38,2.16 l 1.35,-0.09 v -8.19 c -1.08,0.45 -2.25,0.72 -3.6,0.72 -4.86,0 -8.73,-2.34 -11.52,-7.02 v -45.99 h -7.56 m -145.981,0 v 83.88 h 7.652 v -83.88 h -7.652 m 17.461,115.56 c 1.801,0.99 3.058,2.16 3.871,3.51 0.719,1.35 1.078,3.15 1.078,5.22 h -4.5 v 11.34 h 8.461 v -10.53 c 0,-3.33 -0.539,-6.03 -1.621,-7.92 -1.168,-1.98 -3.059,-3.6 -5.668,-4.95 l -1.621,3.33 m 185.13,13.59 c -2.25,3.87 -3.33,10.35 -3.33,19.35 v 11.07 c 0,3.33 0.09,6.21 0.36,8.73 0.27,2.43 0.63,4.77 1.35,7.02 0.63,2.16 1.44,3.96 2.52,5.31 0.99,1.44 2.34,2.52 4.05,3.33 1.62,0.72 3.6,1.17 5.85,1.17 3.96,-0.09 7.47,-1.8 10.53,-5.22 v 28.26 h 7.65 v -83.88 h -7.65 v 4.23 c -2.97,-3.42 -6.39,-5.13 -10.17,-5.13 -5.22,0 -8.91,1.89 -11.16,5.76 m 5.94,45.99 c -1.08,-2.7 -1.71,-7.11 -1.71,-13.14 v -14.13 c 0,-6.48 0.63,-11.25 1.71,-14.13 1.17,-2.88 3.42,-4.41 6.75,-4.41 2.88,0 5.76,1.35 8.64,3.96 v 41.58 c -2.97,2.88 -5.94,4.32 -8.91,4.32 -3.15,0 -5.31,-1.35 -6.48,-4.05 m -69.75,-45.99 c -2.25,3.87 -3.42,10.35 -3.42,19.35 v 11.07 c 0,3.33 0.18,6.21 0.36,8.73 0.27,2.43 0.72,4.77 1.35,7.02 0.63,2.16 1.44,3.96 2.52,5.31 0.99,1.44 2.34,2.52 4.05,3.33 1.62,0.72 3.6,1.17 5.85,1.17 3.96,-0.09 7.47,-1.8 10.53,-5.22 v 28.26 h 7.65 v -83.88 h -7.65 v 4.23 c -2.97,-3.42 -6.39,-5.13 -10.17,-5.13 -5.13,0 -8.91,1.89 -11.07,5.76 m 5.85,45.99 c -1.08,-2.7 -1.71,-7.11 -1.71,-13.14 v -14.13 c 0,-6.48 0.63,-11.25 1.8,-14.13 1.08,-2.88 3.33,-4.41 6.66,-4.41 2.88,0 5.85,1.35 8.64,3.96 v 41.58 c -2.97,2.88 -5.94,4.32 -8.82,4.32 -3.24,0 -5.4,-1.35 -6.57,-4.05 m -46.35,-46.44 c -2.52,3.51 -3.78,9.54 -3.78,18.09 v 15.12 c 0,5.85 0.54,10.53 1.71,13.95 1.26,3.42 2.97,5.76 5.31,7.2 2.34,1.35 5.4,2.07 9.18,2.07 2.52,0 4.68,-0.36 6.48,-0.99 1.8,-0.72 3.24,-1.62 4.41,-2.79 1.17,-1.26 2.16,-2.88 2.79,-4.95 0.72,-2.07 1.17,-4.41 1.53,-6.93 0.27,-2.43 0.36,-5.49 0.36,-9 l -0.09,-5.49 h -24.12 v -8.91 c 0,-6.21 0.54,-10.62 1.8,-13.14 1.17,-2.61 3.42,-3.87 6.75,-3.87 2.61,0 4.59,0.81 6.03,2.52 1.44,1.62 2.16,4.68 2.16,9.09 v 4.14 h 7.38 v -3.33 c 0,-5.85 -1.17,-10.26 -3.6,-13.41 -2.43,-3.15 -6.39,-4.68 -11.97,-4.68 -5.67,0 -9.81,1.71 -12.33,5.31 m 5.67,47.43 c -1.26,-2.25 -1.89,-6.48 -1.89,-12.69 v -4.05 h 16.74 v 4.95 c 0,2.07 -0.09,3.78 -0.18,5.22 -0.09,1.35 -0.27,2.7 -0.63,4.14 -0.27,1.35 -0.72,2.43 -1.35,3.15 -0.54,0.81 -1.35,1.44 -2.34,1.89 -0.99,0.45 -2.25,0.72 -3.69,0.72 -3.15,0 -5.4,-1.08 -6.66,-3.33 m -43.65,-48.15 c -2.88,3.06 -4.5,7.2 -4.86,12.42 l 6.39,1.89 c 0.36,-4.5 1.44,-7.83 3.06,-9.99 1.71,-2.16 4.05,-3.24 7.11,-3.24 2.61,0 4.68,0.81 6.21,2.34 1.44,1.44 2.16,3.51 2.16,5.94 v 0.36 c -0.09,3.96 -2.52,8.01 -7.29,11.97 l -8.1,6.93 c -2.88,2.34 -4.95,4.77 -6.3,7.02 -1.26,2.25 -1.89,4.86 -1.89,7.74 0,4.41 1.26,7.83 3.96,10.17 2.52,2.43 6.03,3.6 10.35,3.6 4.41,0 7.83,-1.44 10.17,-4.23 2.43,-2.88 3.69,-6.66 3.96,-11.52 l -5.31,-1.8 c -0.27,4.05 -1.08,7.02 -2.52,9 -1.35,1.89 -3.42,2.88 -6.03,2.88 -2.34,0 -4.23,-0.63 -5.67,-1.98 -1.35,-1.26 -2.07,-2.97 -2.07,-5.13 0,-1.98 0.36,-3.69 1.08,-5.04 0.72,-1.44 1.98,-2.97 3.87,-4.59 l 8.46,-7.56 c 1.53,-1.26 2.79,-2.43 3.78,-3.42 0.9,-0.99 1.98,-2.25 3.06,-3.69 1.08,-1.53 1.8,-3.06 2.34,-4.77 0.54,-1.71 0.81,-3.6 0.9,-5.49 0,-4.59 -1.44,-8.19 -4.23,-10.71 -2.7,-2.43 -6.48,-3.69 -11.16,-3.69 -4.77,0 -8.55,1.53 -11.43,4.59 m -151.469,0.72 c -2.52,3.51 -3.781,9.54 -3.781,18.09 v 15.12 c 0,5.85 0.629,10.53 1.8,13.95 1.168,3.42 2.969,5.76 5.219,7.2 2.34,1.35 5.403,2.07 9.18,2.07 2.519,0 4.68,-0.36 6.48,-0.99 1.801,-0.72 3.332,-1.62 4.5,-2.79 1.172,-1.26 2.071,-2.88 2.789,-4.95 0.723,-2.07 1.172,-4.41 1.442,-6.93 0.269,-2.43 0.359,-5.49 0.359,-9 v -5.49 h -24.211 v -8.91 c 0,-6.21 0.633,-10.62 1.801,-13.14 1.172,-2.61 3.422,-3.87 6.75,-3.87 2.609,0 4.68,0.81 6.121,2.52 1.352,1.62 2.07,4.68 2.07,9.09 v 4.14 h 7.469 v -3.33 c 0,-5.85 -1.258,-10.26 -3.687,-13.41 -2.434,-3.15 -6.391,-4.68 -11.883,-4.68 -5.758,0 -9.899,1.71 -12.418,5.31 m 5.668,47.43 c -1.258,-2.25 -1.891,-6.48 -1.891,-12.69 v -4.05 h 16.742 v 4.95 c 0,2.07 0,3.78 -0.089,5.22 -0.18,1.35 -0.36,2.7 -0.629,4.14 -0.364,1.35 -0.813,2.43 -1.352,3.15 -0.629,0.81 -1.441,1.44 -2.43,1.89 -0.992,0.45 -2.25,0.72 -3.601,0.72 -3.238,0 -5.488,-1.08 -6.75,-3.33 M 947.34,1912 c -1.621,2.25 -2.34,5.58 -2.43,9.9 v 42.39 h -7.199 v 5.04 h 7.199 v 18.45 h 7.559 v -18.45 h 9.992 v -5.04 h -9.992 v -41.76 c 0,-2.97 0.359,-5.04 1.082,-6.21 0.719,-1.17 2.16,-1.71 4.32,-1.71 1.348,0 2.789,0.18 4.231,0.45 v -5.76 c -2.25,-0.45 -4.321,-0.63 -6.391,-0.63 -4.051,0 -6.84,1.08 -8.371,3.33 m -26.102,-2.61 v 59.94 h 7.563 v -59.94 h -7.563 m -20.699,0 v 83.88 h 7.652 v -83.88 h -7.652 m 20.699,68.13 v 10.35 h 7.653 v -10.35 h -7.653 m 198.992,36.45 v 79.65 h 7.65 v -5.04 c 3.15,3.96 7.02,5.94 11.43,5.94 2.25,0 4.23,-0.45 5.85,-1.35 1.71,-0.9 2.97,-2.07 3.96,-3.6 0.99,-1.44 1.71,-3.24 2.34,-5.4 0.54,-2.16 0.99,-4.23 1.17,-6.39 0.18,-2.07 0.27,-4.5 0.27,-7.11 v -12.69 c 0,-3.15 -0.18,-5.94 -0.45,-8.46 -0.27,-2.52 -0.72,-4.86 -1.35,-6.93 -0.72,-2.16 -1.62,-3.96 -2.7,-5.31 -1.08,-1.44 -2.43,-2.52 -4.14,-3.33 -1.62,-0.81 -3.51,-1.17 -5.76,-1.17 -3.87,0 -7.38,1.89 -10.62,5.67 v -24.48 h -7.65 m 7.65,70.02 v -40.86 c 2.7,-2.88 5.85,-4.32 9.45,-4.32 1.35,0 2.43,0.27 3.42,0.81 0.9,0.54 1.71,1.35 2.25,2.25 0.63,0.99 1.08,2.25 1.44,3.96 0.36,1.62 0.54,3.42 0.63,5.22 0.18,1.89 0.27,4.14 0.27,6.84 v 12.78 c 0,6.39 -0.63,10.98 -1.62,13.77 -1.17,2.7 -3.33,4.14 -6.57,4.14 -3.06,0 -6.21,-1.53 -9.27,-4.59 m 37.89,-46.62 c -2.88,3.06 -4.5,7.2 -4.95,12.42 l 6.39,1.98 c 0.45,-4.59 1.44,-7.92 3.15,-10.08 1.71,-2.16 4.05,-3.24 7.11,-3.24 2.61,0 4.68,0.81 6.21,2.34 1.44,1.53 2.16,3.51 2.16,5.94 v 0.36 c -0.09,4.05 -2.52,8.01 -7.29,11.97 l -8.1,6.93 c -2.88,2.43 -4.95,4.77 -6.3,7.02 -1.26,2.25 -1.89,4.86 -1.89,7.83 0,4.32 1.26,7.74 3.96,10.17 2.52,2.34 5.94,3.51 10.35,3.51 4.41,0 7.83,-1.44 10.17,-4.23 2.34,-2.88 3.69,-6.66 3.96,-11.52 l -5.31,-1.71 c -0.27,3.96 -1.08,6.93 -2.52,8.91 -1.35,1.89 -3.42,2.88 -6.03,2.88 -2.34,0 -4.23,-0.63 -5.67,-1.98 -1.35,-1.26 -2.07,-2.97 -2.07,-5.13 0,-1.98 0.36,-3.69 1.08,-5.04 0.72,-1.44 1.98,-2.88 3.87,-4.5 l 8.46,-7.65 c 1.53,-1.26 2.79,-2.43 3.69,-3.42 0.99,-0.99 1.98,-2.25 3.06,-3.69 1.08,-1.53 1.89,-3.06 2.43,-4.77 0.54,-1.71 0.81,-3.51 0.81,-5.49 0,-4.59 -1.35,-8.1 -4.14,-10.62 -2.7,-2.52 -6.48,-3.78 -11.25,-3.78 -4.68,0 -8.55,1.53 -11.34,4.59 m -192.782,0.72 c -2.519,3.51 -3.777,9.54 -3.777,18.18 v 15.12 c 0,5.76 0.539,10.44 1.711,13.86 1.258,3.42 2.969,5.85 5.308,7.2 2.34,1.35 5.399,2.07 9.18,2.07 2.52,0 4.68,-0.36 6.481,-0.99 1.8,-0.63 3.238,-1.62 4.41,-2.79 1.168,-1.26 2.16,-2.88 2.879,-4.95 0.629,-2.07 1.17,-4.32 1.44,-6.84 0.27,-2.52 0.36,-5.58 0.36,-9.09 l -0.09,-5.4 h -24.12 v -9 c 0,-6.21 0.628,-10.62 1.8,-13.14 1.168,-2.52 3.418,-3.87 6.75,-3.87 2.61,0 4.68,0.9 6.032,2.52 1.437,1.71 2.16,4.68 2.16,9.09 v 4.14 h 7.378 v -3.33 c 0,-5.76 -1.171,-10.26 -3.601,-13.41 -2.43,-3.15 -6.391,-4.68 -11.969,-4.68 -5.672,0 -9.808,1.71 -12.332,5.31 m 5.672,47.43 c -1.262,-2.25 -1.89,-6.48 -1.89,-12.69 v -4.05 h 16.742 v 4.95 c 0,2.07 -0.09,3.87 -0.184,5.22 -0.09,1.35 -0.269,2.79 -0.629,4.14 -0.269,1.35 -0.719,2.43 -1.347,3.15 -0.543,0.81 -1.352,1.44 -2.34,1.89 -0.992,0.45 -2.25,0.72 -3.692,0.72 -3.148,0 -5.398,-1.08 -6.66,-3.33 m -73.351,-51.3 c -2.161,0.99 -3.778,2.43 -4.95,4.5 -1.168,1.98 -2.07,4.32 -2.609,6.93 -0.449,2.7 -0.719,5.94 -0.719,9.72 v 16.56 c 0,7.65 1.168,13.32 3.508,17.01 2.43,3.69 6.57,5.58 12.512,5.58 5.937,0 10.078,-1.8 12.418,-5.58 2.34,-3.69 3.511,-9.36 3.511,-17.01 v -16.56 c 0,-3.78 -0.269,-7.02 -0.718,-9.72 -0.543,-2.61 -1.352,-4.95 -2.614,-6.93 -1.168,-2.07 -2.789,-3.51 -4.859,-4.5 -2.16,-0.99 -4.68,-1.44 -7.738,-1.44 -3.063,0 -5.672,0.45 -7.742,1.44 m 4.32,54.09 c -0.899,-0.27 -1.707,-0.81 -2.25,-1.62 l -1.527,-2.43 c -0.364,-0.81 -0.633,-1.98 -0.813,-3.33 -0.18,-1.44 -0.269,-2.7 -0.359,-3.96 0,-1.17 -0.09,-2.79 -0.09,-4.59 v -17.46 c 0,-1.8 0.09,-3.33 0.09,-4.59 0.09,-1.26 0.179,-2.52 0.359,-3.87 0.18,-1.44 0.449,-2.52 0.813,-3.42 l 1.527,-2.43 c 0.543,-0.72 1.351,-1.26 2.25,-1.62 0.992,-0.36 2.07,-0.54 3.422,-0.54 1.527,0 2.789,0.27 3.777,0.9 1.082,0.54 1.891,1.26 2.524,2.07 0.539,0.81 0.988,2.07 1.257,3.6 0.36,1.53 0.539,3.06 0.629,4.41 0.09,1.44 0.09,3.24 0.09,5.49 v 17.46 c 0,2.25 0,4.05 -0.09,5.49 -0.09,1.44 -0.269,2.88 -0.629,4.5 -0.269,1.53 -0.718,2.7 -1.257,3.51 -0.633,0.9 -1.442,1.62 -2.524,2.16 -0.988,0.54 -2.25,0.81 -3.777,0.81 -1.352,0 -2.43,-0.18 -3.422,-0.54 m 190.261,-54.63 v 59.94 h 7.65 v -59.94 h -7.65 m -40.32,0 v 47.07 c 0,3.24 -0.45,5.58 -1.44,6.84 -1.08,1.26 -2.52,1.89 -4.41,1.89 -3.78,0 -7.56,-2.07 -11.25,-6.21 0.09,-0.99 0.09,-1.8 0.09,-2.34 v -47.25 h -7.11 v 47.07 c 0,3.24 -0.45,5.58 -1.53,6.84 -1.08,1.26 -2.52,1.89 -4.41,1.89 -3.78,0 -7.56,-2.07 -11.16,-6.21 v -49.59 h -7.11 v 59.94 h 7.11 v -6.12 c 3.96,4.77 8.73,7.2 14.13,7.2 4.95,0 8.1,-2.7 9.36,-7.92 4.23,5.22 9.09,7.92 14.76,7.92 2.97,0 5.4,-1.08 7.29,-3.24 1.98,-2.16 2.88,-5.67 2.88,-10.53 v -47.25 h -7.2 m -119.519,0 v 59.94 h 7.558 v -8.28 c 1.801,3.06 3.961,5.31 6.391,6.75 2.43,1.44 4.949,2.16 7.469,2.16 h 1.261 v -8.19 c -1.082,0.36 -2.25,0.63 -3.601,0.63 -4.859,0 -8.731,-2.34 -11.52,-7.02 v -45.99 h -7.558 m -80.012,0 v 83.88 h 7.922 v -77.94 h 23.937 v -5.94 h -31.859 m 239.851,68.22 v 10.26 h 7.65 v -10.26 h -7.65"/></clipPath></defs><rect id="ee-background" x="0" y="0" width="803" height="694" style="fill: white; fill-opacity: 0; pointer-events: none;"/>


<path style="fill: rgb(63, 61, 61); fill-opacity: 1; stroke: rgb(0, 0, 0); stroke-opacity: 1; stroke-width: 0; paint-order: fill;"/><path style="fill: rgb(63, 61, 61); fill-opacity: 1; stroke: rgb(0, 0, 0); stroke-opacity: 1; stroke-width: 0; paint-order: fill;"/><path style="fill: rgb(63, 61, 61); fill-opacity: 1; stroke: rgb(0, 0, 0); stroke-opacity: 1; stroke-width: 0; paint-order: fill;"/><path style="fill: rgb(63, 61, 61); fill-opacity: 1; stroke: rgb(0, 0, 0); stroke-opacity: 1; stroke-width: 0; paint-order: fill;"/><path style="fill: rgb(63, 61, 61); fill-opacity: 1; stroke: rgb(0, 0, 0); stroke-opacity: 1; stroke-width: 0; paint-order: fill;"/><path style="fill: rgb(63, 61, 61); fill-opacity: 1; stroke: rgb(0, 0, 0); stroke-opacity: 1; stroke-width: 0; paint-order: fill;"/><g transform="matrix(1.75, 0, 0, 1.75, 0, 23.333418202954817)"><metadata id="metadata8"/><g transform="matrix(0.13333332737286874, 0, 0, -0.13333332737286874, 0, 533.3333129882812)" id="g12"><g transform="matrix(1, 0, 0, 1, -2412.7578848167873, 704.850621030123)"><path id="path184" style="fill:#5f92d3;fill-opacity:1;fill-rule:nonzero;stroke:none" d="m 5144.32,947.82 -4.74,18.489 53.69,13.761 4.74,-18.492 -53.69,-13.758" transform="matrix(1, 0, 0, 1, 4.547473508864641e-13, 0)"/><path id="path186" style="fill:#5f92d3;fill-opacity:1;fill-rule:nonzero;stroke:none" d="m 5116.92,921.102 -4.73,18.488 53.69,13.762 4.75,-18.493 -53.71,-13.757" transform="matrix(1, 0, 0, 1, 4.547473508864641e-13, 0)"/><path id="path188" style="fill:#5f92d3;fill-opacity:1;fill-rule:nonzero;stroke:none" d="m 5089.53,894.379 -4.74,18.492 53.71,13.758 4.73,-18.488 -53.7,-13.762" transform="matrix(1, 0, 0, 1, 4.547473508864641e-13, 0)"/><path id="path190" style="fill:#5f92d3;fill-opacity:1;fill-rule:nonzero;stroke:none" d="m 5062.15,867.672 -4.75,18.476 53.7,13.762 4.74,-18.48 -53.69,-13.758" transform="matrix(1, 0, 0, 1, 4.547473508864641e-13, 0)"/><path id="path192" style="fill:#c8ddeb;fill-opacity:1;fill-rule:nonzero;stroke:none" d="m 3300.68,2062.95 c -34.03,-19.96 -89.42,-20.35 -123.72,-0.87 -34.3,19.49 -34.53,51.46 -0.5,71.44 34.02,19.96 89.42,20.35 123.72,0.85 34.3,-19.48 34.53,-51.46 0.5,-71.42 z m 709.17,565.75 -503.95,-295.68 c -127.77,39.21 -290.56,27.09 -397.99,-35.94 -130.69,-76.68 -129.83,-199.53 1.93,-274.37 29.58,-16.8 63.25,-29.76 99.14,-38.88 25.37,-6.45 51.84,-10.98 78.78,-13.6 104.82,-10.2 216.68,8.49 297.32,55.81 97.66,57.3 121.83,140.38 72.84,209.95 l 69.54,40.8 -1.97,44.14 73.18,0.51 -1.84,41.34 73.18,0.51 -1.85,41.35 73.19,0.51 -1.85,41.34 73.19,0.51 -1.85,41.35 78.13,0.55 23.84,13.98 26.31,108.55 -129.27,17.27" transform="matrix(1, 0, 0, 1, 4.547473508864641e-13, 0)"/><path id="path194" style="fill:#c8ddeb;fill-opacity:1;fill-rule:nonzero;stroke:none" d="m 4285.55,758.332 -679.67,390.778 c -45.76,26.42 -40.02,72.57 12.82,103.08 l 659.65,380.85 c 52.84,30.5 132.77,33.82 178.53,7.4 l 679.66,-390.78 c 45.76,-26.43 40.02,-72.57 -12.82,-103.08 L 4464.07,765.73 c -52.84,-30.511 -132.77,-33.832 -178.52,-7.398" transform="matrix(1, 0, 0, 1, 4.547473508864641e-13, 0)"/><path id="path196" style="fill:#5f92d3;fill-opacity:1;fill-rule:nonzero;stroke:none" d="m 5082.35,1644.33 -117.5,67.84 433.24,250.12 c 20.46,11.82 20.46,31.04 0,42.86 l -442.59,255.52 c -20.46,11.82 -53.75,11.82 -74.22,0 l -433.23,-250.12 -117.51,67.83 433.24,250.14 c 85.24,49.21 223.96,49.21 309.22,-0.01 l 442.59,-255.53 c 85.25,-49.22 85.25,-129.31 0.01,-178.53 l -433.25,-250.12" transform="matrix(1, 0, 0, 1, 4.547473508864641e-13, 0)"/><path id="path198" style="fill:#d9effb;fill-opacity:1;fill-rule:nonzero;stroke:none" d="m 5271.96,1614.45 c 0,62.83 -38.19,135.79 -85.31,163 l -784.94,453.18 c -21.1,12.18 -40.37,13.05 -55.26,4.73 l -0.05,0.03 -937.22,-544.62 906.33,-682.94 923.33,535.91 c 2.85,1.3 5.61,2.8 8.15,4.74 h 0.02 -0.01 c 15.42,11.68 24.96,34.59 24.96,65.97" transform="matrix(1, 0, 0, 1, 4.547473508864641e-13, 0)"/><path id="path200" style="fill:#263c7a;fill-opacity:1;fill-rule:nonzero;stroke:none" d="m 4315.51,1007.83 923.33,535.91 c 2.85,1.3 5.61,2.8 8.15,4.74 h 0.02 l -0.01,0.01 c 15.42,11.67 24.96,34.58 24.96,65.96 0,29.99 -8.77,62.25 -23,90.77 l -1052.52,-607.67 119.07,-89.72" transform="matrix(1, 0, 0, 1, 4.547473508864641e-13, 0)"/><path id="path202" style="fill:#5f92d3;fill-opacity:1;fill-rule:nonzero;stroke:none" d="m 4256.47,1010.25 -784.94,453.19 c -47.12,27.2 -85.3,100.17 -85.3,163 0,62.81 38.18,91.68 85.3,64.49 l 784.94,-453.2 c 47.12,-27.19 85.32,-100.17 85.32,-162.98 0,-62.83 -38.2,-91.699 -85.32,-64.5" transform="matrix(1, 0, 0, 1, 4.547473508864641e-13, 0)"/><path id="path204" style="fill:#ffffff;fill-opacity:1;fill-rule:nonzero;stroke:none" d="m 4138.91,1163.09 -94.37,54.44 c -9.39,5.42 -17.01,19.97 -17.01,32.49 0,12.52 7.62,18.27 17.01,12.85 l 94.37,-54.43 c 9.39,-5.43 17,-19.97 17,-32.49 0,-12.52 -7.61,-18.28 -17,-12.86" transform="matrix(1, 0, 0, 1, 4.547473508864641e-13, 0)"/><path id="path206" style="fill:#4067b1;fill-opacity:1;fill-rule:nonzero;stroke:none" d="m 3430.28,2758.96 161.28,-91.62 164.56,96.56 -0.44,42 -1.4,-0.82 -0.13,2.96 73.18,0.51 -0.44,41.35 71.77,0.5 -0.43,41.36 71.77,0.5 -0.43,41.35 71.77,0.5 -0.43,41.36 76.72,0.54 23.83,13.98 26.32,108.56 -0.44,42 -12.69,-40.25 -116.14,15.51 -608.23,-356.85" transform="matrix(1, 0, 0, 1, 4.547473508864641e-13, 0)"/><path id="path208" style="fill:#d9effb;fill-opacity:1;fill-rule:nonzero;stroke:none" d="m 3591.12,2709.35 164.56,96.55 -1.97,44.14 73.18,0.51 -1.84,41.34 73.18,0.51 -1.84,41.35 73.18,0.51 -1.86,41.35 73.19,0.5 -1.85,41.35 78.15,0.55 23.84,13.98 26.3,108.56 -129.27,17.26 -608.22,-356.85 161.27,-91.61" transform="matrix(1, 0, 0, 1, 4.547473508864641e-13, 0)"/><path id="path210" style="fill:#4067b1;fill-opacity:1;fill-rule:nonzero;stroke:none" d="m 3700.7,2773.64 c -16.56,23.53 -41.44,45.52 -74.74,64.44 -23.46,13.33 -49.57,24.12 -77.25,32.61 l -118.86,-69.73 161.27,-91.61 109.58,64.29" transform="matrix(1, 0, 0, 1, 4.547473508864641e-13, 0)"/><path id="path212" style="fill:#5f92d3;fill-opacity:1;fill-rule:nonzero;stroke:none" d="m 4162.93,3122.32 4.41,18.23 -21.69,2.89 -513.89,-301.52 27.06,-15.37 504.11,295.77" transform="matrix(1, 0, 0, 1, 4.547473508864641e-13, 0)"/><path id="path214" style="fill:#d4d0ce;fill-opacity:1;fill-rule:nonzero;stroke:none" d="m 3040.5,2626.46 -1.78,59.71 19.11,-40.32 z" transform="matrix(1, 0, 0, 1, 4.547473508864641e-13, 0)"/><path id="path216" style="fill:#4067b1;fill-opacity:1;fill-rule:nonzero;stroke:none" d="m 3330.18,2603.82 c 34.3,-19.48 34.53,-51.47 0.5,-71.43 -34.02,-19.97 -89.42,-20.35 -123.72,-0.87 -34.3,19.5 -34.53,51.47 -0.5,71.44 34.03,19.96 89.42,20.34 123.72,0.86 z m -190.34,-111.67 c 131.77,-74.86 344.54,-73.36 475.24,3.32 65.53,38.45 97.97,88.49 97.44,138.28 l 0.01,-0.03 -1.83,63.25 -10.74,-11.96 c -15.17,31.18 -44.05,60.55 -86.82,84.83 -131.75,74.85 -344.53,73.36 -475.22,-3.32 -130.7,-76.69 -129.84,-199.53 1.92,-274.37" transform="matrix(1, 0, 0, 1, 4.547473508864641e-13, 0)"/><path id="path218" style="fill:#f5f6f5;fill-opacity:1;fill-rule:nonzero;stroke:none" d="m 3328.4,2663.5 c 34.31,-19.5 34.53,-51.47 0.5,-71.44 -34.03,-19.96 -89.42,-20.35 -123.72,-0.86 -34.3,19.48 -34.53,51.47 -0.5,71.43 34.02,19.96 89.41,20.35 123.72,0.87 z m -190.33,-111.68 c 131.75,-74.85 344.53,-73.36 475.22,3.33 130.7,76.68 129.84,199.52 -1.92,274.37 -131.76,74.85 -344.53,73.36 -475.24,-3.33 -130.69,-76.68 -129.83,-199.52 1.94,-274.37" transform="matrix(1, 0, 0, 1, 4.547473508864641e-13, 0)"/><path id="path220" style="fill:#5f92d3;fill-opacity:1;fill-rule:nonzero;stroke:none" d="m 3290.83,2519.13 c -28.98,-4.53 -61.05,-0.57 -83.87,12.39 -24.6,13.98 -31.57,34.36 -21.06,52.15 l -59.69,47.33 c 0,0 -31.2,35.2 -62.09,70.1 -48.06,-70.25 -22.76,-153 75.72,-208.95 43.45,-24.69 92.14,-38.7 147.36,-46.83 l 3.63,73.81" transform="matrix(1, 0, 0, 1, 4.547473508864641e-13, 0)"/><path id="path222" style="fill:#d9effb;fill-opacity:1;fill-rule:nonzero;stroke:none" d="m 3328.4,2663.5 c 34.31,-19.5 34.53,-51.47 0.5,-71.44 -34.03,-19.96 -89.42,-20.35 -123.72,-0.86 -34.3,19.48 -34.53,51.47 -0.5,71.43 34.02,19.96 89.41,20.35 123.72,0.87 z m -190.33,-111.68 c 29.58,-16.8 63.24,-29.76 99.14,-38.88 25.36,-6.45 51.83,-10.98 78.78,-13.59 104.81,-10.21 216.68,8.48 297.3,55.8 130.7,76.68 129.84,199.52 -1.92,274.37 -131.76,74.85 -344.53,73.36 -475.24,-3.33 -130.69,-76.68 -129.83,-199.52 1.94,-274.37" transform="matrix(1, 0, 0, 1, 4.547473508864641e-13, 0)"/><path id="path224" style="fill:#4067b1;fill-opacity:1;fill-rule:nonzero;stroke:none" d="m 3075.81,2687.77 c 6.42,38.25 34.77,75.6 85.24,105.22 116.28,68.23 305.59,69.55 422.82,2.96 58.26,-33.1 87.69,-76.74 88.36,-120.64 8.36,49.86 -20.62,101.2 -86.97,138.89 -117.22,66.6 -306.53,65.27 -422.81,-2.95 -58.49,-34.33 -87.31,-79.03 -86.64,-123.48" transform="matrix(1, 0, 0, 1, 4.547473508864641e-13, 0)"/><path id="path226" style="fill:#4067b1;fill-opacity:1;fill-rule:nonzero;stroke:none" d="m 3159.59,2650.53 c -23.72,0 -50.3,-8.24 -78.03,-24.5 -98.64,-57.88 -178.24,-198 -177.42,-312.37 0.36,-53.29 18.09,-92.58 49.92,-110.64 31.82,-18.06 74.64,-13.2 120.6,13.76 98.65,57.87 178.24,198 177.44,312.36 -0.22,31.38 -6.63,58.71 -18.56,79.03 -8.05,13.73 -18.62,24.37 -31.38,31.63 -12.62,7.17 -26.97,10.73 -42.57,10.73 z M 2996.54,2144.7 c -23.67,0 -45.92,5.64 -65.93,17.01 -47.22,26.8 -73.5,80.64 -73.97,151.63 -0.93,129.47 89.19,288.12 200.88,353.66 61.19,35.91 120.89,40.93 168.11,14.1 20.11,-11.43 36.56,-27.88 48.88,-48.88 16.38,-27.91 24.82,-62.48 25.09,-102.76 0.92,-129.47 -89.21,-288.13 -200.9,-353.66 -35.25,-20.67 -70.01,-31.1 -102.16,-31.1" transform="matrix(1, 0, 0, 1, 4.547473508864641e-13, 0)"/><path id="path228" style="fill:#d9effb;fill-opacity:1;fill-rule:nonzero;stroke:none" d="m 3221.62,2545.44 93.81,-22.99 13.47,69.61 c -34.03,-19.96 -89.42,-20.35 -123.72,-0.86 l 16.44,-45.76" transform="matrix(1, 0, 0, 1, 4.547473508864641e-13, 0)"/><path id="path230" style="fill:#d9effb;fill-opacity:1;fill-rule:nonzero;stroke:none" d="m 3138.07,2551.82 c 29.58,-16.8 63.24,-29.76 99.14,-38.88 25.36,-6.45 51.83,-10.98 78.78,-13.59 104.81,-10.21 216.68,8.48 297.3,55.8 l -382.02,8.57 -93.2,-11.9" transform="matrix(1, 0, 0, 1, 4.547473508864641e-13, 0)"/><path id="path232" style="fill:#4067b1;fill-opacity:1;fill-rule:nonzero;stroke:none" d="m 3279.22,2503.58 c 0,0 -40.61,6.61 -82.97,21.39 v -58.61 c 20.19,-7.05 53.46,-17.25 81.95,-21.02 87.47,-11.55 1.02,58.24 1.02,58.24" transform="matrix(1, 0, 0, 1, 4.547473508864641e-13, 0)"/><path id="path234" style="fill:#5f92d3;fill-opacity:1;fill-rule:nonzero;stroke:none" d="m 3218.3,2517.9 c -17.46,5.15 -36.48,11.72 -54.04,19.94 -51.1,23.93 13.54,-64.71 13.54,-64.71 0,0 17.41,-6.93 40.5,-14.01 v 58.78" transform="matrix(1, 0, 0, 1, 4.547473508864641e-13, 0)"/><path id="path236" style="fill:#5f92d3;fill-opacity:1;fill-rule:nonzero;stroke:none" d="m 4176.7,1488.1 -167.15,-107.8 -81.37,13.21 198.75,96.08 49.77,-1.49" transform="matrix(1, 0, 0, 1, 4.547473508864641e-13, 0)"/><path id="path238" style="fill:#263c7a;fill-opacity:1;fill-rule:nonzero;stroke:none" d="m 3974.61,943.82 c 0,0 -48.15,24.289 -77.72,-11.879 -29.56,-36.152 -71.83,-121.492 -73.14,-179.171 -1.31,-57.661 45.64,-53.782 73.54,-40.122 27.92,13.653 109.44,131.903 114.38,155.071 4.93,23.179 -5.82,54.511 -13.67,60.64 -7.84,6.129 -23.39,15.461 -23.39,15.461" transform="matrix(1, 0, 0, 1, 4.547473508864641e-13, 0)"/><path id="path240" style="fill:#5f92d3;fill-opacity:1;fill-rule:nonzero;stroke:none" d="m 3985.12,955.422 2.22,-49.883 c 0.48,-10.609 -4.85,-20.707 -14.09,-25.949 -8.41,-4.77 -20.62,-8.43 -37.14,-5.77 -36.27,5.828 -39.51,16.192 -42.1,66.059 -2.58,49.871 91.11,15.543 91.11,15.543" transform="matrix(1, 0, 0, 1, 4.547473508864641e-13, 0)"/><path id="path242" style="fill:#263c7a;fill-opacity:1;fill-rule:nonzero;stroke:none" d="m 3798.37,1039.74 c 0,0 -48.15,24.27 -77.72,-11.88 -29.56,-36.149 -71.83,-121.501 -73.14,-179.18 -1.31,-57.66 45.64,-53.77 73.54,-40.129 27.91,13.66 109.44,131.91 114.37,155.078 4.94,23.18 -5.81,54.501 -13.66,60.641 -7.84,6.13 -23.39,15.47 -23.39,15.47" transform="matrix(1, 0, 0, 1, 4.547473508864641e-13, 0)"/><path id="path244" style="fill:#5f92d3;fill-opacity:1;fill-rule:nonzero;stroke:none" d="m 3808.88,1051.34 2.22,-49.88 c 0.48,-10.608 -4.85,-20.722 -14.09,-25.96 -8.41,-4.77 -20.62,-8.43 -37.14,-5.77 -36.27,5.829 -39.51,16.192 -42.1,66.06 -2.58,49.87 91.11,15.55 91.11,15.55" transform="matrix(1, 0, 0, 1, 4.547473508864641e-13, 0)"/><path id="path246" style="fill:#d9effb;fill-opacity:1;fill-rule:nonzero;stroke:none" d="m 4238.49,1967.12 c -14.25,231.86 -251.1,-34.11 -251.1,-34.11 l -162.11,-158.89 -145.97,-160.36 c -28.51,-31.31 -41.77,-73.6 -36.25,-115.59 l 59.04,-449.63 c 2.92,-22.21 21.92,-38.59 44.32,-38.41 6.32,0.05 13.57,0.62 21.87,1.91 52.68,8.2 48.79,58.29 48.79,58.29 l -10.79,420.55 306.55,184.79 c 0,0 139.89,59.59 125.65,291.45" transform="matrix(1, 0, 0, 1, 4.547473508864641e-13, 0)"/><path id="path248" style="fill:#5f92d3;fill-opacity:1;fill-rule:nonzero;stroke:none" d="m 3923.43,1570.36 -43.63,16.02 c -1.01,0 -74.15,-70.75 -73.51,-95.5 l 32.81,-10.54 82.41,79.99 1.92,10.03" transform="matrix(1, 0, 0, 1, 4.547473508864641e-13, 0)"/><path id="path250" style="fill:#5f92d3;fill-opacity:1;fill-rule:nonzero;stroke:none" d="m 4176.7,1488.1 c 0,0 182.18,104.02 203.98,147.63 8.55,17.08 21.82,34.92 -31.34,60.74 l -242.96,-173.19 10.53,-59.63 59.79,24.45" transform="matrix(1, 0, 0, 1, 4.547473508864641e-13, 0)"/><path id="path252" style="fill:#d9effb;fill-opacity:1;fill-rule:nonzero;stroke:none" d="m 4414.74,1877.65 c -15.2,231.79 -251.11,-34.11 -251.11,-34.11 l -162.11,-158.9 -145.97,-160.35 c -28.51,-31.32 -41.77,-73.61 -36.25,-115.6 l 59.05,-449.639 c 2.91,-22.199 21.91,-38.582 44.31,-38.41 6.32,0.058 13.57,0.629 21.87,1.929 52.68,8.2 48.79,58.289 48.79,58.289 l -10.79,420.541 306.55,184.8 c 0,0 139.54,79.52 125.66,291.45" transform="matrix(1, 0, 0, 1, 4.547473508864641e-13, 0)"/><path id="path254" style="fill:#5f92d3;fill-opacity:1;fill-rule:nonzero;stroke:none" d="m 4274.61,2623.07 c 179.57,-74.46 175.97,-180.6 175.97,-180.6 0,0 -35.18,-389.14 -23.17,-649.02 5.02,-108.65 -577.22,-116.94 -490.39,172.91 102.37,341.75 64.01,618.42 111.93,660.14 47.93,41.73 179.21,15.82 225.66,-3.43" transform="matrix(1, 0, 0, 1, 4.547473508864641e-13, 0)"/><path id="path256" style="fill:#fab6a9;fill-opacity:1;fill-rule:nonzero;stroke:none" d="m 4332.38,2528.95 c -9.39,-36.46 -57.16,-55.68 -106.69,-42.91 -49.54,12.75 -82.08,52.65 -72.68,89.11 9.39,36.46 57.16,55.67 106.69,42.92 49.53,-12.77 82.08,-52.67 72.68,-89.12" transform="matrix(1, 0, 0, 1, 4.547473508864641e-13, 0)"/><path id="path258" style="fill:#ffffff;fill-opacity:1;fill-rule:nonzero;stroke:none" d="m 4228.97,2613.45 c -33.34,0 -61.23,-15.52 -67.65,-40.44 -3.84,-14.92 0.62,-31.22 12.59,-45.88 12.57,-15.42 31.72,-27.06 53.92,-32.78 44.87,-11.52 88.04,4.92 96.24,36.73 3.84,14.93 -0.62,31.22 -12.59,45.88 -12.57,15.43 -31.72,27.07 -53.92,32.8 -9.73,2.5 -19.37,3.69 -28.59,3.69 z m 27.04,-139.91 c -10.53,0 -21.46,1.35 -32.46,4.18 -25.72,6.63 -48.07,20.32 -62.95,38.56 -15.5,18.99 -21.15,40.66 -15.9,61.01 10.54,40.99 63.11,63.03 117.14,49.09 25.72,-6.62 48.07,-20.33 62.95,-38.57 15.5,-19 21.15,-40.66 15.9,-61 -8.4,-32.65 -43.46,-53.27 -84.68,-53.27" transform="matrix(1, 0, 0, 1, 4.547473508864641e-13, 0)"/><path id="path260" style="fill:#fab6a9;fill-opacity:1;fill-rule:nonzero;stroke:none" d="m 4202.62,2631.16 c 0,0 1.54,-7.2 -1.57,-64.1 -0.97,-17.89 61.66,-34.6 77.86,-18.41 16.19,16.19 9.71,33.03 13.6,93.91 3.89,60.88 -89.89,-11.4 -89.89,-11.4" transform="matrix(1, 0, 0, 1, 4.547473508864641e-13, 0)"/><path id="path262" style="fill:#eb8b8a;fill-opacity:1;fill-rule:nonzero;stroke:none" d="m 4292.51,2642.56 c 0,0 -15.43,-56.45 -91.47,-78.1 l 1.16,51.3 90.31,26.8" transform="matrix(1, 0, 0, 1, 4.547473508864641e-13, 0)"/><path id="path264" style="fill:#fab6a9;fill-opacity:1;fill-rule:nonzero;stroke:none" d="m 4340.67,2785.98 c 19.12,-73.91 -25.31,-149.31 -99.21,-168.42 -73.91,-19.1 -149.31,25.32 -168.42,99.23 -19.11,73.9 25.31,149.3 99.22,168.42 73.9,19.1 149.31,-25.33 168.41,-99.23" transform="matrix(1, 0, 0, 1, 4.547473508864641e-13, 0)"/><path id="path266" style="fill:#eb8b8a;fill-opacity:1;fill-rule:nonzero;stroke:none" d="m 4238.6,2746.31 c 0,0 -76.1,-32.6 -128.8,-32.97 -52.69,-0.38 -41.07,43.75 -41.07,43.75 l 156.42,22.61 13.45,-33.39" transform="matrix(1, 0, 0, 1, 4.547473508864641e-13, 0)"/><path id="path268" style="fill:#ee1696;fill-opacity:1;fill-rule:nonzero;stroke:none" d="m 4094.1,2737.72 c 0,0 66.29,28.14 124.44,16.41 13.68,-2.76 26.35,-10.08 35.15,-20.89 2.88,-3.53 6.52,-6.76 10.64,-7.69 10.31,-2.34 27.19,40.45 47.24,41.42 20.04,0.98 33.42,-13.21 16.98,-39.53 -16.43,-26.31 -10.87,-55.76 -3.32,-59.98 7.57,-4.22 87.78,57.21 17.03,197.37 -70.76,140.16 -250.48,64.67 -278.44,36.26 0,0 -29.44,-25.65 -53.39,-2.82 0,0 -26.85,-201.08 83.67,-160.55" transform="matrix(1, 0, 0, 1, 4.547473508864641e-13, 0)"/><path id="path270" style="fill:#fab6a9;fill-opacity:1;fill-rule:nonzero;stroke:none" d="m 4349.84,2158.16 v -105.14 c 0,-12.05 -5.06,-23.54 -13.97,-31.66 l -216.01,-196.94 24.54,-37.53 285.27,206.89 c 13.31,9.66 21.89,24.51 23.61,40.87 l 19.29,183.38 -122.73,-59.87" transform="matrix(1, 0, 0, 1, 4.547473508864641e-13, 0)"/><path id="path272" style="fill:#5f92d3;fill-opacity:1;fill-rule:nonzero;stroke:none" d="m 4435.37,2495.05 c 0,0 65.54,-98.56 89.95,-357.97 0,0 -111.94,-36.2 -175.48,-15.64 -63.52,20.54 85.53,373.61 85.53,373.61" transform="matrix(1, 0, 0, 1, 4.547473508864641e-13, 0)"/><path id="path274" style="fill:#4067b1;fill-opacity:1;fill-rule:nonzero;stroke:none" d="m 4337.88,2370.44 c 0,0 -25.65,-137.31 -27.11,-201.84 -0.4,-17.73 10.43,-33.74 27.11,-39.77 v 241.61" transform="matrix(1, 0, 0, 1, 4.547473508864641e-13, 0)"/><path id="path276" style="fill:#263c7a;fill-opacity:1;fill-rule:nonzero;stroke:none" d="m 4281.84,1687.7 -47.75,6.3 -308.18,177.93 c -9.88,5.71 -27.14,4.99 -38.55,-1.6 l -218.38,-126.03 -28.86,3.82 v -28.75 h 0.03 c -0.2,-3.78 1.96,-7.43 6.62,-10.12 l 349.27,-201.64 c 9.88,-5.72 27.13,-4.99 38.54,1.59 l 237.83,137.26 c 6.42,3.71 9.61,8.48 9.43,12.96 v 28.28" transform="matrix(1, 0, 0, 1, 4.547473508864641e-13, 0)"/><path id="path278" style="fill:#4067b1;fill-opacity:1;fill-rule:nonzero;stroke:none" d="m 4050.27,1800.13 -21.89,12.64 h -240.72 l -118.68,-68.47 -28.86,3.82 v -28.75 h 0.03 c -0.2,-3.78 1.96,-7.43 6.62,-10.12 l 349.27,-201.64 c 5.22,-3.02 12.5,-4.22 19.89,-3.73 l 34.34,296.25" transform="matrix(1, 0, 0, 1, 4.547473508864641e-13, 0)"/><path id="path280" style="fill:#5f92d3;fill-opacity:1;fill-rule:nonzero;stroke:none" d="m 3652.93,1746.43 -12.81,1.69 v -28.75 h 0.03 c -0.2,-3.78 1.96,-7.43 6.62,-10.12 l 6.16,-3.55 v 40.73" transform="matrix(1, 0, 0, 1, 4.547473508864641e-13, 0)"/><path id="path282" style="fill:#2e4b8d;fill-opacity:1;fill-rule:nonzero;stroke:none" d="m 3999.55,1505.97 c 9.37,-3.55 22.75,-2.78 32.75,2.04 v 48.88 h -32.75 v -50.92" transform="matrix(1, 0, 0, 1, 4.547473508864641e-13, 0)"/><path id="path284" style="fill:#ffffff;fill-opacity:1;fill-rule:nonzero;stroke:none" d="m 3996.04,1536.33 -349.27,201.64 c -9.88,5.7 -8.64,15.67 2.77,22.25 l 237.82,137.27 c 11.41,6.58 28.67,7.3 38.55,1.59 l 349.27,-201.64 c 9.88,-5.7 8.64,-15.67 -2.77,-22.25 l -237.83,-137.27 c -11.41,-6.58 -28.66,-7.3 -38.54,-1.59" transform="matrix(1, 0, 0, 1, 4.547473508864641e-13, 0)"/><path id="path286" style="fill:#d9effb;fill-opacity:1;fill-rule:nonzero;stroke:none" d="m 3990.13,1566.88 -290.41,167.68 c -8.22,4.74 -7.19,13.03 2.3,18.51 l 127.44,71.66 c 9.49,5.48 23.84,6.07 32.05,1.32 l 290.41,-167.66 c 8.22,-4.75 7.19,-13.03 -2.3,-18.51 l -127.44,-71.67 c -9.48,-5.47 -23.84,-6.06 -32.05,-1.33" transform="matrix(1, 0, 0, 1, 4.547473508864641e-13, 0)"/><path id="path288" style="fill:#fab6a9;fill-opacity:1;fill-rule:nonzero;stroke:none" d="m 3900.87,1904.11 -3.61,-24.1 c -3.09,-20.54 -2.55,-41.45 1.57,-61.8 l 4.3,-21.23 c 2.43,-11.98 11.9,-21.27 23.92,-23.45 9.4,-1.71 18.26,4.88 19.33,14.37 l 5.76,51.51 c 0,0 13.18,-17.26 19.55,-17.26 6.36,0 -7.13,51.59 -21.51,80.79 -14.4,29.2 -49.31,1.17 -49.31,1.17" transform="matrix(1, 0, 0, 1, 4.547473508864641e-13, 0)"/><path id="path290" style="fill:#fab6a9;fill-opacity:1;fill-rule:nonzero;stroke:none" d="m 4019.26,2287.12 -37.47,-74.17 c -8.87,-17.54 -14.08,-36.7 -15.34,-56.31 l -16.27,-253.7 -49.31,1.17 -22.38,284.91 c -0.69,8.8 -0.27,17.65 1.28,26.34 l 25.55,144.48 113.94,-72.72" transform="matrix(1, 0, 0, 1, 4.547473508864641e-13, 0)"/><path id="path292" style="fill:#263c7a;fill-opacity:1;fill-rule:nonzero;stroke:none" d="m 3984.21,1516.95 -29.29,38.24 -307.97,178.31 c -9.87,5.71 -17.86,21.02 -17.85,34.2 l 0.28,252.13 -17.72,23.12 16.64,9.64 0.02,-0.02 c 3.18,2.05 7.42,1.99 12.08,-0.7 l 349.01,-202.08 c 9.88,-5.71 17.87,-21.02 17.86,-34.19 l -0.3,-274.6 c -0.01,-7.42 -2.55,-12.56 -6.53,-14.64 l -16.23,-9.41" transform="matrix(1, 0, 0, 1, 4.547473508864641e-13, 0)"/><path id="path294" style="fill:#4067b1;fill-opacity:1;fill-rule:nonzero;stroke:none" d="m 3771.23,1661.53 -21.87,12.68 -120.11,208.61 0.13,137.01 -17.72,23.12 16.64,9.64 0.02,-0.02 c 3.18,2.05 7.42,1.99 12.08,-0.7 l 349.01,-202.08 c 5.22,-3.01 9.9,-8.73 13.16,-15.38 l -231.34,-172.88" transform="matrix(1, 0, 0, 1, 4.547473508864641e-13, 0)"/><path id="path296" style="fill:#5f92d3;fill-opacity:1;fill-rule:nonzero;stroke:none" d="m 3619.52,2032.7 -7.86,10.25 16.64,9.64 0.02,-0.02 c 3.18,2.05 7.42,1.99 12.08,-0.7 l 6.14,-3.56 -27.02,-15.61" transform="matrix(1, 0, 0, 1, 4.547473508864641e-13, 0)"/><path id="path298" style="fill:#2e4b8d;fill-opacity:1;fill-rule:nonzero;stroke:none" d="m 3992.59,1847.56 c 7.75,-6.34 13.76,-18.33 14.58,-29.4 l -34.11,-19.69 -16.34,28.39 35.87,20.7" transform="matrix(1, 0, 0, 1, 4.547473508864641e-13, 0)"/><path id="path300" style="fill:#5f92d3;fill-opacity:1;fill-rule:nonzero;stroke:none" d="m 3972.79,1840.17 -349.01,202.08 c -9.88,5.71 -17.89,-0.34 -17.91,-13.51 l -0.29,-274.59 c -0.02,-13.17 7.96,-28.49 17.84,-34.21 l 349.02,-202.07 c 9.87,-5.71 17.89,0.33 17.91,13.51 l 0.29,274.59 c 0.01,13.17 -7.97,28.48 -17.85,34.2" transform="matrix(1, 0, 0, 1, 4.547473508864641e-13, 0)"/><path id="path302" style="fill:#fab6a9;fill-opacity:1;fill-rule:nonzero;stroke:none" d="m 4144.4,1786.89 -5.59,-11.59 c -6.44,-13.34 -16.56,-24.56 -29.17,-32.33 l -34.67,-21.37 c -10.78,-6.65 -24.44,-7.2 -35.39,-0.82 l -1.18,0.71 c -11.02,6.91 -12.01,22.73 -2.95,32.05 l 36.23,37.24 c 0,0 -20.35,-15.59 -26.05,-9.32 -4.18,4.61 19.73,27.07 38.09,27.81 18.37,0.73 36.14,15.15 36.14,15.15 l 24.54,-37.53" transform="matrix(1, 0, 0, 1, 4.547473508864641e-13, 0)"/><path id="path304" style="fill:#5f92d3;fill-opacity:1;fill-rule:nonzero;stroke:none" d="m 4052.54,2627.05 c 0,0 -132.8,-144.51 -186.38,-277.08 0,0 45.41,-81.82 156.58,-113.93 111.17,-32.1 29.8,391.01 29.8,391.01" transform="matrix(1, 0, 0, 1, 4.547473508864641e-13, 0)"/><path id="path306" style="fill:#4067b1;fill-opacity:1;fill-rule:nonzero;stroke:none" d="m 3997.73,2244.62 21.53,207.94 -50.72,-194.83 c 9.04,-4.7 18.82,-9.09 29.19,-13.11" transform="matrix(1, 0, 0, 1, 4.547473508864641e-13, 0)"/><path id="path308" style="fill:#ffffff;fill-opacity:1;fill-rule:nonzero;stroke:none" d="m 4152.01,2656.21 -35.68,9.81 c 0,0 17.04,-26.81 41.91,-33.64 24.88,-6.83 28.74,14.22 28.74,14.22 l -34.97,9.61" transform="matrix(1, 0, 0, 1, 4.547473508864641e-13, 0)"/><path id="path310" style="fill:#d9effb;fill-opacity:1;fill-rule:nonzero;stroke:none" d="m 3474.68,3153.77 c -43.1,0 -78.15,-35.05 -78.15,-78.14 0,-43.1 35.05,-78.15 78.15,-78.15 43.09,0 78.14,35.05 78.14,78.15 0,43.09 -35.05,78.14 -78.14,78.14 z m 0,-178.11 c -55.12,0 -99.96,44.85 -99.96,99.97 0,55.11 44.84,99.96 99.96,99.96 55.11,0 99.96,-44.85 99.96,-99.96 0,-55.12 -44.85,-99.97 -99.96,-99.97" transform="matrix(1, 0, 0, 1, 4.547473508864641e-13, 0)"/><path id="path312" style="fill:#5f92d3;fill-opacity:1;fill-rule:nonzero;stroke:none" d="m 5495.54,2375.29 c -27.06,0 -49.08,-22.01 -49.08,-49.07 0,-27.05 22.02,-49.06 49.08,-49.06 27.05,0 49.06,22.01 49.06,49.06 0,27.06 -22.01,49.07 -49.06,49.07 z m 0,-119.95 c -39.08,0 -70.89,31.8 -70.89,70.88 0,39.08 31.81,70.89 70.89,70.89 39.08,0 70.88,-31.81 70.88,-70.89 0,-39.08 -31.8,-70.88 -70.88,-70.88" transform="matrix(1, 0, 0, 1, 4.547473508864641e-13, 0)"/><path id="path314" style="fill:#5f92d3;fill-opacity:1;fill-rule:nonzero;stroke:none" d="m 3152.47,1062.64 28.86,-58.71 58.71,28.85 -28.86,58.71 z m 18.92,-87.91 -48.12,97.85 97.85,48.11 48.12,-97.85 -97.85,-48.11" transform="matrix(1, 0, 0, 1, 4.547473508864641e-13, 0)"/><path id="path316" style="fill:#5f92d3;fill-opacity:1;fill-rule:nonzero;stroke:none" d="m 4572.73,2579.39 28.86,-58.72 58.71,28.86 -28.85,58.72 z m 18.92,-87.92 -48.11,97.87 97.85,48.11 48.11,-97.86 -97.85,-48.12" transform="matrix(1, 0, 0, 1, 4.547473508864641e-13, 0)"/><path id="path318" style="fill:#5f92d3;fill-opacity:1;fill-rule:nonzero;stroke:none" d="m 3062.1,1526.49 -44.99,-22.12 -22.11,45 44.98,22.11 22.12,-44.99" transform="matrix(1, 0, 0, 1, 4.547473508864641e-13, 0)"/><path id="path320" style="fill:#d1078d;fill-opacity:1;fill-rule:nonzero;stroke:none" d="m 4803.13,3022.46 -267.39,154.37 c -5.29,3.05 -10.08,3.17 -13.83,1.11 l 0.02,0.17 -25.93,-14.98 c 0,0 11.48,-4.18 18.23,-6.67 v -194.71 c 0,-15.84 9.63,-34.25 21.51,-41.11 l 255.57,-147.55 v -22.85 l 26.2,15.09 -0.14,0.05 c 4.43,2.71 7.27,8.62 7.27,17.15 v 198.82 c 0,15.85 -9.63,34.25 -21.51,41.11" transform="matrix(1, 0, 0, 1, 4.547473508864641e-13, 0)"/><path id="path322" style="fill:#ee1696;fill-opacity:1;fill-rule:nonzero;stroke:none" d="m 4776.71,2751.04 -267.38,154.38 c -11.89,6.86 -21.52,25.26 -21.52,41.1 v 198.82 c 0,15.84 9.63,23.13 21.52,16.27 l 267.38,-154.38 c 11.88,-6.86 21.51,-25.26 21.51,-41.11 V 2767.3 c 0,-15.84 -9.63,-23.12 -21.51,-16.26" transform="matrix(1, 0, 0, 1, 4.547473508864641e-13, 0)"/><path id="path324" style="fill:#ffffff;fill-opacity:1;fill-rule:nonzero;stroke:none" d="m 4599.25,2973.94 c 0,-11.51 -8.08,-16.18 -18.05,-10.42 -9.96,5.75 -18.04,19.74 -18.04,31.25 0,11.5 8.08,16.16 18.04,10.41 9.97,-5.76 18.05,-19.74 18.05,-31.24" transform="matrix(1, 0, 0, 1, 4.547473508864641e-13, 0)"/><path id="path326" style="fill:#ffffff;fill-opacity:1;fill-rule:nonzero;stroke:none" d="m 4653.9,2942.37 c 0,-11.5 -8.08,-16.16 -18.04,-10.41 -9.96,5.75 -18.05,19.75 -18.05,31.25 0,11.51 8.09,16.16 18.05,10.41 9.96,-5.75 18.04,-19.73 18.04,-31.25" transform="matrix(1, 0, 0, 1, 4.547473508864641e-13, 0)"/><path id="path328" style="fill:#ffffff;fill-opacity:1;fill-rule:nonzero;stroke:none" d="m 4708.55,2910.82 c 0,-11.5 -8.07,-16.16 -18.04,-10.41 -9.96,5.75 -18.04,19.74 -18.04,31.25 0,11.5 8.08,16.16 18.04,10.41 9.97,-5.75 18.04,-19.75 18.04,-31.25" transform="matrix(1, 0, 0, 1, 4.547473508864641e-13, 0)"/><path id="path330" style="fill:#5f92d3;fill-opacity:1;fill-rule:nonzero;stroke:none" d="m 2954.73,1330.92 -262.31,151.44 c -5.19,3 -9.89,3.12 -13.56,1.1 l 0.02,0.16 -25.45,-14.69 c 0,0 11.27,-4.12 17.88,-6.54 v -191.02 c 0,-15.55 9.45,-33.61 21.11,-40.33 l 250.72,-144.76 v -22.41 l 25.71,14.8 -0.14,0.05 c 4.34,2.65 7.13,8.47 7.13,16.83 v 195.05 c 0,15.53 -9.45,33.59 -21.11,40.32" transform="matrix(1, 0, 0, 1, 4.547473508864641e-13, 0)"/><path id="path332" style="fill:#d9effb;fill-opacity:1;fill-rule:nonzero;stroke:none" d="m 2928.82,1064.66 -262.31,151.44 c -11.66,6.73 -21.11,24.79 -21.11,40.33 v 195.04 c 0,15.54 9.45,22.69 21.11,15.96 l 262.31,-151.44 c 11.66,-6.73 21.11,-24.79 21.11,-40.34 v -195.04 c 0,-15.54 -9.45,-22.69 -21.11,-15.95" transform="matrix(1, 0, 0, 1, 4.547473508864641e-13, 0)"/><path id="path334" style="fill:#ffffff;fill-opacity:1;fill-rule:nonzero;stroke:none" d="m 2754.72,1283.31 c 0,-11.28 -7.92,-15.86 -17.7,-10.21 -9.77,5.64 -17.7,19.36 -17.7,30.65 0,11.29 7.93,15.86 17.7,10.21 9.78,-5.63 17.7,-19.36 17.7,-30.65" transform="matrix(1, 0, 0, 1, 4.547473508864641e-13, 0)"/><path id="path336" style="fill:#ffffff;fill-opacity:1;fill-rule:nonzero;stroke:none" d="m 2808.34,1252.36 c 0,-11.29 -7.92,-15.87 -17.7,-10.22 -9.78,5.64 -17.7,19.37 -17.7,30.65 0,11.29 7.92,15.87 17.7,10.23 9.78,-5.65 17.7,-19.38 17.7,-30.66" transform="matrix(1, 0, 0, 1, 4.547473508864641e-13, 0)"/><path id="path338" style="fill:#ffffff;fill-opacity:1;fill-rule:nonzero;stroke:none" d="m 2861.95,1221.41 c 0,-11.29 -7.92,-15.87 -17.69,-10.23 -9.78,5.65 -17.7,19.38 -17.7,30.66 0,11.28 7.92,15.87 17.7,10.22 9.77,-5.64 17.69,-19.37 17.69,-30.65" transform="matrix(1, 0, 0, 1, 4.547473508864641e-13, 0)"/></g></g></g></svg>