<?xml version="1.0" encoding="utf-8"?>
<svg id="master-artboard" viewBox="0 0 1400 980" version="1.1" xmlns="http://www.w3.org/2000/svg" x="0px" y="0px" width="1400px" height="980px" enable-background="new 0 0 1400 980" xmlns:xlink="http://www.w3.org/1999/xlink"><rect id="ee-background" x="0" y="0" width="1400" height="980" style="fill: white; fill-opacity: 0; pointer-events: none;"/>
<defs>
		<path d="M 0 0 H 1400 V 980 H 0 V 0 Z" id="SVGID_1_"/>
	</defs><clipPath id="SVGID_2_">
		<use overflow="visible" xlink:href="#SVGID_1_"/>
	</clipPath><path fill="#414042" d="M580.1,154.6C580.1,154.6,580.1,154.6,580.1,154.6c4.4,2.5,8.8,5.1,13.3,7.7c0,0,0,0,0,0&#10;&#9;&#9;&#9;&#9;&#9;&#9;C588.9,159.8,584.5,157.2,580.1,154.6z" transform="matrix(1, 0, 0, 1, -8.526512829121202e-14, 0)"/><path fill="#414042" d="M569.3,162.6c4.4,2.6,8.8,5.1,13.2,7.7c0,0-0.1,0.1-0.1,0.1L569.3,162.6&#10;&#9;&#9;&#9;&#9;&#9;&#9;C569.2,162.7,569.3,162.6,569.3,162.6z" transform="matrix(1, 0, 0, 1, -8.526512829121202e-14, 0)"/><path d="M 511.3999938964844 567.2999877929688 L 511.3999938964844 569.4000244140625 L 500.1000061035156 576 L 500.1000061035156 573.9000244140625 Z" fill="#F3FCFF" transform="matrix(1, 0, 0, 1, -8.526512829121202e-14, 0)"/><path fill="none" d="M923,306c0-3.7-2.6-8.2-5.8-10.1c-3.2-1.9-5.8-0.4-5.8,3.3c0,3.7,2.6,8.2,5.8,10.1&#10;&#9;&#9;&#9;&#9;&#9;C920.4,311.1,923,309.7,923,306z" transform="matrix(1, 0, 0, 1, -8.526512829121202e-14, 0)"/>
<g transform="matrix(1.7285454273223877, 0, 0, 1.7285454273223877, -511.53125495044145, -182.53184869909623)">
				<path fill="#F2F2F2" d="M912.5,521.6l-20.8-12l-10.2,5.9L677.7,397.9l10.2-5.9l-20.8-12c-6.8-3.9-17.9-3.9-24.7,0l-163.1,94.8&#10;&#9;&#9;&#9;&#9;&#9;c-6.8,3.9-6.8,10.3,0.1,14.3l93.4,53.9c5.3-0.4,10.8,0.5,14.8,2.9l38.7,22.3c4.1,2.3,5.7,5.5,5,8.6l93.4,53.9&#10;&#9;&#9;&#9;&#9;&#9;c6.8,3.9,17.9,3.9,24.7,0l163.1-94.8C919.4,531.9,919.3,525.5,912.5,521.6z M857.2,513.3l12.4,7.2c0.6,0.3,0.6,0.9,0,1.2&#10;&#9;&#9;&#9;&#9;&#9;l-5.9,3.4c-0.6,0.3-1.5,0.3-2.1,0l-12.4-7.2c-0.6-0.3-0.6-0.9,0-1.2l5.9-3.4C855.7,513,856.6,513,857.2,513.3z M594,465.7&#10;&#9;&#9;&#9;&#9;&#9;l11.8-6.8c0.5-0.3,1.3-0.3,1.8,0l11.8,6.8c0.5,0.3,0.5,0.7,0,1l-11.8,6.8c-0.5,0.3-1.3,0.3-1.8,0l-11.8-6.8&#10;&#9;&#9;&#9;&#9;&#9;C593.5,466.4,593.5,465.9,594,465.7z M591.2,464.1c-0.5,0.3-1.3,0.3-1.8,0l-11.8-6.8c-0.5-0.3-0.5-0.7,0-1l11.8-6.8&#10;&#9;&#9;&#9;&#9;&#9;c0.5-0.3,1.3-0.3,1.8,0l11.8,6.8c0.5,0.3,0.5,0.7,0,1L591.2,464.1z M761.9,490.3l-11.8,6.8c-0.5,0.3-1.3,0.3-1.8,0l-11.8-6.8&#10;&#9;&#9;&#9;&#9;&#9;c-0.5-0.3-0.5-0.7,0-1l11.8-6.8c0.5-0.3,1.3-0.3,1.8,0l11.8,6.8C762.4,489.5,762.4,490,761.9,490.3z M764.7,491.8&#10;&#9;&#9;&#9;&#9;&#9;c0.5-0.3,1.3-0.3,1.8,0l11.8,6.8c0.5,0.3,0.5,0.7,0,1l-11.8,6.8c-0.5,0.3-1.3,0.3-1.8,0l-11.8-6.8c-0.5-0.3-0.5-0.7,0-1&#10;&#9;&#9;&#9;&#9;&#9;L764.7,491.8z M745.5,480.8l-11.8,6.8c-0.5,0.3-1.3,0.3-1.8,0l-11.8-6.8c-0.5-0.3-0.5-0.7,0-1l11.8-6.8c0.5-0.3,1.3-0.3,1.8,0&#10;&#9;&#9;&#9;&#9;&#9;l11.8,6.8C746,480.1,746,480.5,745.5,480.8z M729.2,471.4l-11.8,6.8c-0.5,0.3-1.3,0.3-1.8,0l-11.8-6.8c-0.5-0.3-0.5-0.7,0-1&#10;&#9;&#9;&#9;&#9;&#9;l11.8-6.8c0.5-0.3,1.3-0.3,1.8,0l11.8,6.8C729.7,470.6,729.7,471.1,729.2,471.4z M674.2,472.8L686,466c0.5-0.3,1.3-0.3,1.8,0&#10;&#9;&#9;&#9;&#9;&#9;l11.8,6.8c0.5,0.3,0.5,0.7,0,1l-11.8,6.8c-0.5,0.3-1.3,0.3-1.8,0l-11.8-6.8C673.8,473.6,673.8,473.1,674.2,472.8z M671.5,471.2&#10;&#9;&#9;&#9;&#9;&#9;c-0.5,0.3-1.3,0.3-1.8,0l-11.8-6.8c-0.5-0.3-0.5-0.7,0-1l11.8-6.8c0.5-0.3,1.3-0.3,1.8,0l11.8,6.8c0.5,0.3,0.5,0.7,0,1&#10;&#9;&#9;&#9;&#9;&#9;L671.5,471.2z M690.6,482.3l11.8-6.8c0.5-0.3,1.3-0.3,1.8,0l11.8,6.8c0.5,0.3,0.5,0.7,0,1l-11.8,6.8c-0.5,0.3-1.3,0.3-1.8,0&#10;&#9;&#9;&#9;&#9;&#9;l-11.8-6.8C690.1,483,690.1,482.6,690.6,482.3z M712.8,461.9l-11.8,6.8c-0.5,0.3-1.3,0.3-1.8,0l-11.8-6.8c-0.5-0.3-0.5-0.8,0-1&#10;&#9;&#9;&#9;&#9;&#9;l11.8-6.8c0.5-0.3,1.3-0.3,1.8,0l11.8,6.8C713.3,461.2,713.3,461.6,712.8,461.9z M696.4,452.4l-11.8,6.8c-0.5,0.3-1.3,0.3-1.8,0&#10;&#9;&#9;&#9;&#9;&#9;l-11.8-6.8c-0.5-0.3-0.5-0.8,0-1l11.8-6.8c0.5-0.3,1.3-0.3,1.8,0l11.8,6.8C696.9,451.7,696.9,452.2,696.4,452.4z M680,443&#10;&#9;&#9;&#9;&#9;&#9;l-11.8,6.8c-0.5,0.3-1.3,0.3-1.8,0l-11.8-6.8c-0.5-0.3-0.5-0.7,0-1l11.8-6.8c0.5-0.3,1.3-0.3,1.8,0L680,442&#10;&#9;&#9;&#9;&#9;&#9;C680.5,442.2,680.5,442.7,680,443z M655,447.1l11.8,6.8c0.5,0.3,0.5,0.7,0,1l-11.8,6.8c-0.5,0.3-1.3,0.3-1.8,0l-11.8-6.8&#10;&#9;&#9;&#9;&#9;&#9;c-0.5-0.3-0.5-0.7,0-1l11.8-6.8C653.7,446.8,654.5,446.8,655,447.1z M643.2,461c0.5-0.3,1.3-0.3,1.8,0l11.8,6.8&#10;&#9;&#9;&#9;&#9;&#9;c0.5,0.3,0.5,0.7,0,1l-11.8,6.8c-0.5,0.3-1.3,0.3-1.8,0l-11.8-6.8c-0.5-0.3-0.5-0.7,0-1L643.2,461z M647.8,477.3l11.8-6.8&#10;&#9;&#9;&#9;&#9;&#9;c0.5-0.3,1.3-0.3,1.8,0l11.8,6.8c0.5,0.3,0.5,0.7,0,1l-11.8,6.8c-0.5,0.3-1.3,0.3-1.8,0l-11.8-6.8&#10;&#9;&#9;&#9;&#9;&#9;C647.3,478,647.3,477.6,647.8,477.3z M664.1,486.7l11.8-6.8c0.5-0.3,1.3-0.3,1.8,0l11.8,6.8c0.5,0.3,0.5,0.7,0,1l-11.8,6.8&#10;&#9;&#9;&#9;&#9;&#9;c-0.5,0.3-1.3,0.3-1.8,0l-11.8-6.8C663.7,487.5,663.6,487,664.1,486.7z M680.5,496.2l11.8-6.8c0.5-0.3,1.3-0.3,1.8,0l11.8,6.8&#10;&#9;&#9;&#9;&#9;&#9;c0.5,0.3,0.5,0.7,0,1l-11.8,6.8c-0.5,0.3-1.3,0.3-1.8,0l-11.8-6.8C680,496.9,680,496.5,680.5,496.2z M696.9,505.6l11.8-6.8&#10;&#9;&#9;&#9;&#9;&#9;c0.5-0.3,1.3-0.3,1.8,0l11.8,6.8c0.5,0.3,0.5,0.7,0,1l-11.8,6.8c-0.5,0.3-1.3,0.3-1.8,0l-11.8-6.8&#10;&#9;&#9;&#9;&#9;&#9;C696.4,506.4,696.4,505.9,696.9,505.6z M720.6,499.6c-0.5,0.3-1.3,0.3-1.8,0l-11.8-6.8c-0.5-0.3-0.5-0.7,0-1l11.8-6.8&#10;&#9;&#9;&#9;&#9;&#9;c0.5-0.3,1.3-0.3,1.8,0l11.8,6.8c0.5,0.3,0.5,0.7,0,1L720.6,499.6z M723.4,501.2l11.8-6.8c0.5-0.3,1.3-0.3,1.8,0l11.8,6.8&#10;&#9;&#9;&#9;&#9;&#9;c0.5,0.3,0.5,0.7,0,1l-11.8,6.8c-0.5,0.3-1.3,0.3-1.8,0l-11.8-6.8C722.9,501.9,722.9,501.5,723.4,501.2z M739.7,510.6l11.8-6.8&#10;&#9;&#9;&#9;&#9;&#9;c0.5-0.3,1.3-0.3,1.8,0l11.8,6.8c0.5,0.3,0.5,0.7,0,1l-11.8,6.8c-0.5,0.3-1.3,0.3-1.8,0l-11.8-6.8&#10;&#9;&#9;&#9;&#9;&#9;C739.2,511.4,739.2,510.9,739.7,510.6z M756.1,520.1l11.8-6.8c0.5-0.3,1.3-0.3,1.8,0l11.8,6.8c0.5,0.3,0.5,0.7,0,1l-11.8,6.8&#10;&#9;&#9;&#9;&#9;&#9;c-0.5,0.3-1.3,0.3-1.8,0l-11.8-6.8C755.6,520.8,755.6,520.4,756.1,520.1z M781.1,516l-11.8-6.8c-0.5-0.3-0.5-0.7,0-1l11.8-6.8&#10;&#9;&#9;&#9;&#9;&#9;c0.5-0.3,1.3-0.3,1.8,0l11.8,6.8c0.5,0.3,0.5,0.7,0,1l-11.8,6.8C782.4,516.3,781.6,516.3,781.1,516z M785.7,517.6l11.8-6.8&#10;&#9;&#9;&#9;&#9;&#9;c0.5-0.3,1.3-0.3,1.8,0l11.8,6.8c0.5,0.3,0.5,0.7,0,1l-11.8,6.8c-0.5,0.3-1.3,0.3-1.8,0l-11.8-6.8&#10;&#9;&#9;&#9;&#9;&#9;C785.2,518.3,785.2,517.9,785.7,517.6z M808.2,512.6c-0.5-0.3-0.5-0.7,0-1l11.8-6.8c0.5-0.3,1.3-0.3,1.8,0l11.8,6.8&#10;&#9;&#9;&#9;&#9;&#9;c0.5,0.3,0.5,0.7,0,1l-11.8,6.8c-0.5,0.3-1.3,0.3-1.8,0L808.2,512.6z M817.2,503.2l-11.8,6.8c-0.5,0.3-1.3,0.3-1.8,0l-11.8-6.8&#10;&#9;&#9;&#9;&#9;&#9;c-0.5-0.3-0.5-0.7,0-1l11.8-6.8c0.5-0.3,1.3-0.3,1.8,0l11.8,6.8C817.7,502.4,817.7,502.9,817.2,503.2z M800.9,493.7l-11.8,6.8&#10;&#9;&#9;&#9;&#9;&#9;c-0.5,0.3-1.3,0.3-1.8,0l-11.8-6.8c-0.5-0.3-0.5-0.8,0-1l11.8-6.8c0.5-0.3,1.3-0.3,1.8,0l11.8,6.8&#10;&#9;&#9;&#9;&#9;&#9;C801.4,493,801.4,493.5,800.9,493.7z M784.5,484.3l-11.8,6.8c-0.5,0.3-1.3,0.3-1.8,0l-11.8-6.8c-0.5-0.3-0.5-0.8,0-1l11.8-6.8&#10;&#9;&#9;&#9;&#9;&#9;c0.5-0.3,1.3-0.3,1.8,0l11.8,6.8C785,483.5,785,484,784.5,484.3z M768.1,474.8l-11.8,6.8c-0.5,0.3-1.3,0.3-1.8,0l-11.8-6.8&#10;&#9;&#9;&#9;&#9;&#9;c-0.5-0.3-0.5-0.7,0-1l11.8-6.8c0.5-0.3,1.3-0.3,1.8,0l11.8,6.8C768.6,474.1,768.6,474.5,768.1,474.8z M751.8,465.4l-11.8,6.8&#10;&#9;&#9;&#9;&#9;&#9;c-0.5,0.3-1.3,0.3-1.8,0l-11.8-6.8c-0.5-0.3-0.5-0.7,0-1l11.8-6.8c0.5-0.3,1.3-0.3,1.8,0l11.8,6.8&#10;&#9;&#9;&#9;&#9;&#9;C752.2,464.6,752.2,465.1,751.8,465.4z M735.4,455.9l-11.8,6.8c-0.5,0.3-1.3,0.3-1.8,0l-11.8-6.8c-0.5-0.3-0.5-0.7,0-1l11.8-6.8&#10;&#9;&#9;&#9;&#9;&#9;c0.5-0.3,1.3-0.3,1.8,0l11.8,6.8C735.9,455.2,735.9,455.6,735.4,455.9z M719,446.5l-11.8,6.8c-0.5,0.3-1.3,0.3-1.8,0l-11.8-6.8&#10;&#9;&#9;&#9;&#9;&#9;c-0.5-0.3-0.5-0.7,0-1l11.8-6.8c0.5-0.3,1.3-0.3,1.8,0l11.8,6.8C719.5,445.7,719.5,446.2,719,446.5z M702.6,437l-11.8,6.8&#10;&#9;&#9;&#9;&#9;&#9;c-0.5,0.3-1.3,0.3-1.8,0l-11.8-6.8c-0.5-0.3-0.5-0.7,0-1l11.8-6.8c0.5-0.3,1.3-0.3,1.8,0l11.8,6.8&#10;&#9;&#9;&#9;&#9;&#9;C703.1,436.3,703.1,436.7,702.6,437z M686.3,427.6l-11.8,6.8c-0.5,0.3-1.3,0.3-1.8,0l-11.8-6.8c-0.5-0.3-0.5-0.7,0-1l11.8-6.8&#10;&#9;&#9;&#9;&#9;&#9;c0.5-0.3,1.3-0.3,1.8,0l11.8,6.8C686.8,426.8,686.8,427.3,686.3,427.6z M669.9,418.1l-11.8,6.8c-0.5,0.3-1.3,0.3-1.8,0&#10;&#9;&#9;&#9;&#9;&#9;l-11.8-6.8c-0.5-0.3-0.5-0.7,0-1l11.8-6.8c0.5-0.3,1.3-0.3,1.8,0l11.8,6.8C670.4,417.4,670.4,417.8,669.9,418.1z M651.8,425.7&#10;&#9;&#9;&#9;&#9;&#9;l11.8,6.8c0.5,0.3,0.5,0.7,0,1l-11.8,6.8c-0.5,0.3-1.3,0.3-1.8,0l-11.8-6.8c-0.5-0.3-0.5-0.7,0-1l11.8-6.8&#10;&#9;&#9;&#9;&#9;&#9;C650.5,425.4,651.3,425.4,651.8,425.7z M638.7,437.6l11.8,6.8c0.5,0.3,0.5,0.7,0,1l-11.8,6.8c-0.5,0.3-1.3,0.3-1.8,0l-11.8-6.8&#10;&#9;&#9;&#9;&#9;&#9;c-0.5-0.3-0.5-0.7,0-1l11.8-6.8C637.4,437.4,638.2,437.4,638.7,437.6z M626.8,451.5c0.5-0.3,1.3-0.3,1.8,0l11.8,6.8&#10;&#9;&#9;&#9;&#9;&#9;c0.5,0.3,0.5,0.7,0,1l-11.8,6.8c-0.5,0.3-1.3,0.3-1.8,0l-11.8-6.8c-0.5-0.3-0.5-0.7,0-1L626.8,451.5z M610.3,475.1l11.8-6.8&#10;&#9;&#9;&#9;&#9;&#9;c0.5-0.3,1.3-0.3,1.8,0l4.3,2.5l7.6,4.4l4.3,2.5c0.5,0.3,0.5,0.7,0,1l-11.8,6.8c-0.5,0.3-1.3,0.3-1.8,0l-4.3-2.5l-7.6-4.4&#10;&#9;&#9;&#9;&#9;&#9;l-4.3-2.5C609.9,475.9,609.9,475.4,610.3,475.1z M631,487l11.8-6.8c0.5-0.3,1.3-0.3,1.8,0l5.9,3.4l5.9,3.4l53.7,31l7.6,4.4&#10;&#9;&#9;&#9;&#9;&#9;l4.2,2.4c0.5,0.3,0.5,0.7,0,1l-11.8,6.8c-0.5,0.3-1.3,0.3-1.8,0l-4.2-2.4l-7.6-4.4l-53.7-31l-5.9-3.4l-5.9-3.4&#10;&#9;&#9;&#9;&#9;&#9;C630.5,487.8,630.5,487.3,631,487z M713.3,516.1c-0.5-0.3-0.5-0.7,0-1l11.8-6.8c0.5-0.3,1.3-0.3,1.8,0l11.8,6.8&#10;&#9;&#9;&#9;&#9;&#9;c0.5,0.3,0.5,0.7,0,1l-11.8,6.8c-0.5,0.3-1.3,0.3-1.8,0L713.3,516.1z M729.6,524.5l11.8-6.8c0.5-0.3,1.3-0.3,1.8,0l11.8,6.8&#10;&#9;&#9;&#9;&#9;&#9;c0.5,0.3,0.5,0.7,0,1l-11.8,6.8c-0.5,0.3-1.3,0.3-1.8,0l-11.8-6.8C729.1,525.3,729.1,524.8,729.6,524.5z M746,534l11.8-6.8&#10;&#9;&#9;&#9;&#9;&#9;c0.5-0.3,1.3-0.3,1.8,0l11.8,6.8c0.5,0.3,0.5,0.7,0,1l-11.8,6.8c-0.5,0.3-1.3,0.3-1.8,0L746,535&#10;&#9;&#9;&#9;&#9;&#9;C745.5,534.7,745.5,534.3,746,534z M762.4,543.4l11.8-6.8c0.5-0.3,1.3-0.3,1.8,0l11.8,6.8c0.5,0.3,0.5,0.7,0,1l-11.8,6.8&#10;&#9;&#9;&#9;&#9;&#9;c-0.5,0.3-1.3,0.3-1.8,0l-11.8-6.8C761.9,544.2,761.9,543.7,762.4,543.4z M786.1,537.4c-0.5,0.3-1.3,0.3-1.8,0l-11.8-6.8&#10;&#9;&#9;&#9;&#9;&#9;c-0.5-0.3-0.5-0.7,0-1l11.8-6.8c0.5-0.3,1.3-0.3,1.8,0l11.8,6.8c0.5,0.3,0.5,0.7,0,1L786.1,537.4z M788.9,539l11.8-6.8&#10;&#9;&#9;&#9;&#9;&#9;c0.5-0.3,1.3-0.3,1.8,0l11.8,6.8c0.5,0.3,0.5,0.7,0,1l-11.8,6.8c-0.5,0.3-1.3,0.3-1.8,0l-11.8-6.8&#10;&#9;&#9;&#9;&#9;&#9;C788.4,539.8,788.4,539.3,788.9,539z M813.9,534.9l-11.8-6.8c-0.5-0.3-0.5-0.7,0-1l11.8-6.8c0.5-0.3,1.3-0.3,1.8,0l11.8,6.8&#10;&#9;&#9;&#9;&#9;&#9;c0.5,0.3,0.5,0.7,0,1l-11.8,6.8C815.2,535.2,814.4,535.2,813.9,534.9z M818.4,536.5l11.8-6.8c0.5-0.3,1.3-0.3,1.8,0l11.8,6.8&#10;&#9;&#9;&#9;&#9;&#9;c0.5,0.3,0.5,0.7,0,1l-11.8,6.8c-0.5,0.3-1.3,0.3-1.8,0l-11.8-6.8C817.9,537.2,817.9,536.8,818.4,536.5z M836.5,528.9l-11.8-6.8&#10;&#9;&#9;&#9;&#9;&#9;c-0.5-0.3-0.5-0.7,0-1l11.8-6.8c0.5-0.3,1.3-0.3,1.8,0l11.8,6.8c0.5,0.3,0.5,0.7,0,1l-11.8,6.8&#10;&#9;&#9;&#9;&#9;&#9;C837.7,529.2,836.9,529.2,836.5,528.9z M840.1,503.5l12.4,7.2c0.6,0.3,0.6,0.9,0,1.2l-5.9,3.4c-0.6,0.3-1.5,0.3-2.1,0l-12.4-7.2&#10;&#9;&#9;&#9;&#9;&#9;c-0.6-0.3-0.6-0.9,0-1.2l5.9-3.4C838.6,503.1,839.5,503.1,840.1,503.5z M823,493.6l12.4,7.2c0.6,0.3,0.6,0.9,0,1.2l-5.9,3.4&#10;&#9;&#9;&#9;&#9;&#9;c-0.6,0.3-1.5,0.3-2.1,0l-12.4-7.2c-0.6-0.3-0.6-0.9,0-1.2l5.9-3.4C821.5,493.3,822.4,493.3,823,493.6z M805.9,483.7l12.4,7.2&#10;&#9;&#9;&#9;&#9;&#9;c0.6,0.3,0.6,0.9,0,1.2l-5.9,3.4c-0.6,0.3-1.5,0.3-2.1,0l-12.4-7.2c-0.6-0.3-0.6-0.9,0-1.2l5.9-3.4&#10;&#9;&#9;&#9;&#9;&#9;C804.4,483.4,805.3,483.4,805.9,483.7z M788.8,473.9l12.4,7.2c0.6,0.3,0.6,0.9,0,1.2l-5.9,3.4c-0.6,0.3-1.5,0.3-2.1,0l-12.4-7.2&#10;&#9;&#9;&#9;&#9;&#9;c-0.6-0.3-0.6-0.9,0-1.2l5.9-3.4C787.3,473.5,788.3,473.5,788.8,473.9z M771.7,464l12.4,7.2c0.6,0.3,0.6,0.9,0,1.2l-5.9,3.4&#10;&#9;&#9;&#9;&#9;&#9;c-0.6,0.3-1.5,0.3-2.1,0l-12.4-7.2c-0.6-0.3-0.6-0.9,0-1.2l5.9-3.4C770.2,463.7,771.2,463.7,771.7,464z M754.6,454.1l12.4,7.2&#10;&#9;&#9;&#9;&#9;&#9;c0.6,0.3,0.6,0.9,0,1.2l-5.9,3.4c-0.6,0.3-1.5,0.3-2.1,0l-12.4-7.2c-0.6-0.3-0.6-0.9,0-1.2l5.9-3.4&#10;&#9;&#9;&#9;&#9;&#9;C753.1,453.8,754.1,453.8,754.6,454.1z M737.6,444.3l12.4,7.2c0.6,0.3,0.6,0.9,0,1.2l-5.9,3.4c-0.6,0.3-1.5,0.3-2.1,0l-12.4-7.2&#10;&#9;&#9;&#9;&#9;&#9;c-0.6-0.3-0.6-0.9,0-1.2l5.9-3.4C736.1,443.9,737,443.9,737.6,444.3z M720.5,434.4l12.4,7.2c0.6,0.3,0.6,0.9,0,1.2l-5.9,3.4&#10;&#9;&#9;&#9;&#9;&#9;c-0.6,0.3-1.5,0.3-2.1,0l-12.4-7.2c-0.6-0.3-0.6-0.9,0-1.2l5.9-3.4C719,434.1,719.9,434.1,720.5,434.4z M703.4,424.5l12.4,7.2&#10;&#9;&#9;&#9;&#9;&#9;c0.6,0.3,0.6,0.9,0,1.2l-5.9,3.4c-0.6,0.3-1.5,0.3-2.1,0l-12.4-7.2c-0.6-0.3-0.6-0.9,0-1.2l5.9-3.4&#10;&#9;&#9;&#9;&#9;&#9;C701.9,424.2,702.8,424.2,703.4,424.5z M686.3,414.7l12.4,7.2c0.6,0.3,0.6,0.9,0,1.2l-5.9,3.4c-0.6,0.3-1.5,0.3-2.1,0l-12.4-7.2&#10;&#9;&#9;&#9;&#9;&#9;c-0.6-0.3-0.6-0.9,0-1.2l5.9-3.4C684.8,414.3,685.7,414.3,686.3,414.7z M669.2,404.8l12.4,7.2c0.6,0.3,0.6,0.9,0,1.2l-5.9,3.4&#10;&#9;&#9;&#9;&#9;&#9;c-0.6,0.3-1.5,0.3-2.1,0l-12.4-7.2c-0.6-0.3-0.6-0.9,0-1.2l5.9-3.4C667.7,404.5,668.6,404.5,669.2,404.8z M644.2,398.3l5.9-3.4&#10;&#9;&#9;&#9;&#9;&#9;c0.6-0.3,1.5-0.3,2.1,0l12.4,7.2c0.6,0.3,0.6,0.9,0,1.2l-5.9,3.4c-0.6,0.3-1.5,0.3-2.1,0l-12.4-7.2&#10;&#9;&#9;&#9;&#9;&#9;C643.6,399.2,643.6,398.7,644.2,398.3z M628.1,407.6l11.8-6.8c0.5-0.3,1.3-0.3,1.8,0l11.8,6.8c0.5,0.3,0.5,0.7,0,1l-11.8,6.8&#10;&#9;&#9;&#9;&#9;&#9;c-0.5,0.3-1.3,0.3-1.8,0l-11.8-6.8C627.7,408.4,627.6,407.9,628.1,407.6z M611.7,417.2l11.8-6.8c0.5-0.3,1.3-0.3,1.8,0l10.2,5.9&#10;&#9;&#9;&#9;&#9;&#9;l1.6,1l10.2,5.9c0.5,0.3,0.5,0.7,0,1l-11.8,6.8c-0.5,0.3-1.3,0.3-1.8,0l-10.2-5.9l-1.6-1l-10.2-5.9&#10;&#9;&#9;&#9;&#9;&#9;C611.2,417.9,611.2,417.5,611.7,417.2z M594.8,427l11.8-6.8c0.5-0.3,1.3-0.3,1.8,0l3.7,2.1l6.5,3.7l1.6,1l2.1,1.2l1.6,0.9&#10;&#9;&#9;&#9;&#9;&#9;l6.5,3.7l3.7,2.1c0.5,0.3,0.5,0.7,0,1l-11.8,6.8c-0.5,0.3-1.3,0.3-1.8,0l-3.7-2.1l-6.5-3.7l-1.6-0.9l-2.1-1.2l-1.6-1l-6.5-3.7&#10;&#9;&#9;&#9;&#9;&#9;l-3.7-2.1C594.3,427.7,594.3,427.3,594.8,427z M577.8,436.9l11.8-6.8c0.5-0.3,1.3-0.3,1.8,0l3.7,2.1l3.2,1.8l3.3,1.9l0.4,0.3&#10;&#9;&#9;&#9;&#9;&#9;l1.2,0.7l2.1,1.2l1.6,0.9l1.6,0.9l1.6,0.9l2.1,1.2l1.2,0.7l0.4,0.3l3.3,1.9l3.2,1.8l3.7,2.1c0.5,0.3,0.5,0.7,0,1l-11.8,6.8&#10;&#9;&#9;&#9;&#9;&#9;c-0.5,0.3-1.3,0.3-1.8,0l-3.7-2.1l-3.2-1.8l-3.3-1.9l-0.4-0.3l-1.2-0.7l-2.1-1.2l-1.6-0.9l-1.6-0.9l-1.6-0.9l-2.1-1.2l-1.2-0.7&#10;&#9;&#9;&#9;&#9;&#9;l-0.4-0.3l-3.3-1.9l-3.2-1.8l-3.7-2.1C577.3,437.6,577.3,437.2,577.8,436.9z M561.2,446.7l11.8-6.8c0.5-0.3,1.3-0.3,1.8,0&#10;&#9;&#9;&#9;&#9;&#9;l11.8,6.8c0.5,0.3,0.5,0.7,0,1l-11.8,6.8c-0.5,0.3-1.3,0.3-1.8,0l-11.8-6.8C560.7,447.5,560.7,447,561.2,446.7z M710.8,552.3&#10;&#9;&#9;&#9;&#9;&#9;l-43.4,25.2c-3.3,1.9-8.7,1.9-12.1,0l-84-48.5c-3.4-1.9-3.4-5.1,0-7l43.4-25.2c3.3-1.9,8.7-1.9,12.1,0l84,48.5&#10;&#9;&#9;&#9;&#9;&#9;C714.1,547.3,714.2,550.4,710.8,552.3z M729.5,544.9l-4.3-2.5l-7.6-4.4l-4.3-2.5c-0.5-0.3-0.5-0.7,0-1l11.8-6.8&#10;&#9;&#9;&#9;&#9;&#9;c0.5-0.3,1.3-0.3,1.8,0l4.3,2.5l7.6,4.4l4.3,2.5c0.5,0.3,0.5,0.7,0,1l-11.8,6.8C730.8,545.2,730,545.2,729.5,544.9z&#10;&#9;&#9;&#9;&#9;&#9; M744.4,553.6l-4.3-2.5l-2-1.2l-4.3-2.5c-0.5-0.3-0.5-0.7,0-1l11.8-6.8c0.5-0.3,1.3-0.3,1.8,0l4.3,2.5l2,1.2l4.3,2.5&#10;&#9;&#9;&#9;&#9;&#9;c0.5,0.3,0.5,0.7,0,1l-11.8,6.8C745.7,553.8,744.9,553.8,744.4,553.6z M761.4,563.4l-11.9-6.8c-0.5-0.3-0.5-0.8,0-1.1l4.8-2.8&#10;&#9;&#9;&#9;&#9;&#9;c0.5-0.3,1.4-0.3,2,0l11.9,6.8c0.5,0.3,0.5,0.8,0,1.1l-4.8,2.8C762.8,563.7,762,563.7,761.4,563.4z M778,572.9l-11.9-6.8&#10;&#9;&#9;&#9;&#9;&#9;c-0.5-0.3-0.5-0.8,0-1.1l4.8-2.8c0.5-0.3,1.4-0.3,1.9,0c-0.5-0.3-0.5-0.8,0-1.1l4.8-2.8c0.5-0.3,1.4-0.3,1.9,0l11.9,6.8&#10;&#9;&#9;&#9;&#9;&#9;c0.5,0.3,0.5,0.8,0,1.1l-4.8,2.8c-0.5,0.3-1.4,0.3-1.9,0c0.5,0.3,0.5,0.8,0,1.1l-4.8,2.8C779.4,573.2,778.5,573.2,778,572.9z&#10;&#9;&#9;&#9;&#9;&#9; M801.3,579.6l-4.8,2.8c-0.5,0.3-1.4,0.3-1.9,0l-11.9-6.8c-0.5-0.3-0.5-0.8,0-1.1l4.8-2.8c0.5-0.3,1.4-0.3,1.9,0l11.9,6.8&#10;&#9;&#9;&#9;&#9;&#9;C801.8,578.8,801.8,579.3,801.3,579.6z M826.2,566.7l-11.8,6.8c-0.5,0.3-1.3,0.3-1.8,0l-0.4-0.2l-9-5.2l-0.4-0.2l-2-1.2&#10;&#9;&#9;&#9;&#9;&#9;l-0.5-0.3l-0.4-0.2l-8.5-4.9L791,561l-0.4-0.2l-2-1.2l-0.4-0.2l-9-5.2l-0.4-0.2c-0.5-0.3-0.5-0.7,0-1l11.8-6.8&#10;&#9;&#9;&#9;&#9;&#9;c0.5-0.3,1.3-0.3,1.8,0l0.4,0.2l9,5.2l0.4,0.2l2,1.2l0.5,0.3l0.4,0.2l8.5,4.9l0.5,0.3l0.4,0.2l2,1.2l0.4,0.2l9,5.2l0.4,0.2&#10;&#9;&#9;&#9;&#9;&#9;C826.7,565.9,826.7,566.4,826.2,566.7z M843.2,556.8l-11.8,6.8c-0.5,0.3-1.3,0.3-1.8,0l-0.3-0.1l-11.6-6.7l-0.3-0.1&#10;&#9;&#9;&#9;&#9;&#9;c-0.1,0-0.1-0.1-0.1-0.1c-0.1,0-0.2-0.1-0.2-0.1l-0.3-0.1l-11.6-6.7l-0.3-0.1c-0.5-0.3-0.5-0.7,0-1l11.8-6.8&#10;&#9;&#9;&#9;&#9;&#9;c0.5-0.3,1.3-0.3,1.8,0l0.3,0.1l11.6,6.7l0.3,0.1c0.1,0,0.1,0.1,0.2,0.1c0.1,0,0.2,0,0.2,0.1l0.3,0.1l11.6,6.7l0.3,0.1&#10;&#9;&#9;&#9;&#9;&#9;C843.7,556,843.7,556.5,843.2,556.8z M860.1,547l-11.8,6.8c-0.5,0.3-1.3,0.3-1.8,0l-11.8-6.8c-0.5-0.3-0.5-0.7,0-1l11.8-6.8&#10;&#9;&#9;&#9;&#9;&#9;c0.5-0.3,1.3-0.3,1.8,0l11.8,6.8C860.6,546.2,860.6,546.7,860.1,547z M876.6,537.4l-11.8,6.8c-0.5,0.3-1.3,0.3-1.8,0l-10.2-5.9&#10;&#9;&#9;&#9;&#9;&#9;l-1.6-0.9l-10.2-5.9c-0.5-0.3-0.5-0.7,0-1l11.8-6.8c0.5-0.3,1.3-0.3,1.8,0l10.2,5.9l1.6,0.9l10.2,5.9&#10;&#9;&#9;&#9;&#9;&#9;C877,536.7,877,537.2,876.6,537.4z M886.7,531.6l-5.9,3.4c-0.6,0.3-1.5,0.3-2.1,0l-12.4-7.2c-0.6-0.3-0.6-0.9,0-1.2l5.9-3.4&#10;&#9;&#9;&#9;&#9;&#9;c0.6-0.3,1.5-0.3,2.1,0l12.4,7.2C887.3,530.7,887.3,531.2,886.7,531.6z"/>
				<g>
					<g>
						<path fill="#414042" d="M626.4,568.1c4.1,2.3,5.7,5.5,5,8.6l-58.5-33.8c5.3-0.4,10.8,0.5,14.8,2.9L626.4,568.1z"/>
					</g>
				</g>
				<path fill="#E6E7E8" d="M906.7,309.4L665.6,170.2c-5.7-3.3-10.4-0.6-10.4,5.9l-0.5,184.6c0,6.6,4.6,14.6,10.3,17.9l241.1,139.2&#10;&#9;&#9;&#9;&#9;&#9;c5.7,3.3,10.4,0.6,10.4-5.9l0.5-184.6C917,320.7,912.4,312.7,906.7,309.4z M904,499.7L667.2,363l0.5-174.7L904.5,325L904,499.7z&#10;&#9;&#9;&#9;&#9;&#9;"/>
				<g>
					<g>
						<path d="M 904.5 325 L 904 499.70001220703125 L 667.2000122070312 363 L 667.7000122070312 188.3000030517578 Z" fill="#C0EFFF"/>
					</g>
				</g>
				<g>
					<path fill="#414042" d="M915.4,304.3L674.3,165.1c-2.9-1.7-5.5-1.8-7.4-0.7l-8.7,5.1c1.9-1.1,4.5-0.9,7.4,0.7l241.1,139.2&#10;&#9;&#9;&#9;&#9;&#9;&#9;c5.7,3.3,10.3,11.3,10.3,17.9l-0.5,184.6c0,3.3-1.2,5.6-3,6.6l8.7-5.1c1.9-1.1,3-3.4,3-6.6l0.5-184.6&#10;&#9;&#9;&#9;&#9;&#9;&#9;C925.7,315.7,921.1,307.6,915.4,304.3z"/>
				</g>
				<g>
					<g>
						<path d="M 891.7000122070312 509.6000061035156 L 881.5 515.5 L 677.7000122070312 397.8999938964844 L 688 391.8999938964844 Z" fill="#414042"/>
					</g>
				</g>
				<g>
					<g>
						<path fill="#414042" d="M710.8,545.3c3.3,1.9,3.4,5.1,0,7l-43.4,25.2c-3.3,1.9-8.7,1.9-12.1,0l-84-48.5c-3.4-1.9-3.4-5.1,0-7&#10;&#9;&#9;&#9;&#9;&#9;&#9;&#9;l43.4-25.2c3.3-1.9,8.7-1.9,12.1,0L710.8,545.3z"/>
					</g>
				</g>
				<g>
					<g>
						<g>
							<path fill="#414042" d="M647.3,423.1c0.5,0.3,0.5,0.7,0,1l-11.8,6.8c-0.5,0.3-1.3,0.3-1.8,0l-10.2-5.9l-1.6-1l-10.2-5.9&#10;&#9;&#9;&#9;&#9;&#9;&#9;&#9;&#9;c-0.5-0.3-0.5-0.7,0-1l11.8-6.8c0.5-0.3,1.3-0.3,1.8,0l10.2,5.9l1.6,1L647.3,423.1z"/>
						</g>
					</g>
					<g>
						<g>
							<path fill="#414042" d="M686.3,426.5c0.5,0.3,0.5,0.7,0,1l-11.8,6.8c-0.5,0.3-1.3,0.3-1.8,0l-11.8-6.8c-0.5-0.3-0.5-0.7,0-1&#10;&#9;&#9;&#9;&#9;&#9;&#9;&#9;&#9;l11.8-6.8c0.5-0.3,1.3-0.3,1.8,0L686.3,426.5z"/>
						</g>
					</g>
					<g>
						<g>
							<path fill="#414042" d="M663.7,432.5c0.5,0.3,0.5,0.7,0,1l-11.8,6.8c-0.5,0.3-1.3,0.3-1.8,0l-11.8-6.8c-0.5-0.3-0.5-0.7,0-1&#10;&#9;&#9;&#9;&#9;&#9;&#9;&#9;&#9;l11.8-6.8c0.5-0.3,1.3-0.3,1.8,0L663.7,432.5z"/>
						</g>
					</g>
					<g>
						<g>
							<path fill="#414042" d="M634.1,435c0.5,0.3,0.5,0.7,0,1l-11.8,6.8c-0.5,0.3-1.3,0.3-1.8,0l-3.7-2.1l-6.5-3.7l-1.6-0.9&#10;&#9;&#9;&#9;&#9;&#9;&#9;&#9;&#9;l-2.1-1.2l-1.6-1l-6.5-3.7l-3.7-2.1c-0.5-0.3-0.5-0.7,0-1l11.8-6.8c0.5-0.3,1.3-0.3,1.8,0l3.7,2.1l6.5,3.7l1.6,1l2.1,1.2&#10;&#9;&#9;&#9;&#9;&#9;&#9;&#9;&#9;l1.6,0.9l6.5,3.7L634.1,435z"/>
						</g>
					</g>
					<g>
						<g>
							<path fill="#414042" d="M732.9,441.5c0.6,0.3,0.6,0.9,0,1.2l-5.9,3.4c-0.6,0.3-1.5,0.3-2.1,0l-12.4-7.2&#10;&#9;&#9;&#9;&#9;&#9;&#9;&#9;&#9;c-0.6-0.3-0.6-0.9,0-1.2l5.9-3.4c0.6-0.3,1.5-0.3,2.1,0L732.9,441.5z"/>
						</g>
					</g>
					<g>
						<g>
							<path fill="#414042" d="M680,442c0.5,0.3,0.5,0.7,0,1l-11.8,6.8c-0.5,0.3-1.3,0.3-1.8,0l-11.8-6.8c-0.5-0.3-0.5-0.7,0-1&#10;&#9;&#9;&#9;&#9;&#9;&#9;&#9;&#9;l11.8-6.8c0.5-0.3,1.3-0.3,1.8,0L680,442z"/>
						</g>
					</g>
					<g>
						<g>
							<path fill="#414042" d="M650.5,444.5c0.5,0.3,0.5,0.7,0,1l-11.8,6.8c-0.5,0.3-1.3,0.3-1.8,0l-11.8-6.8c-0.5-0.3-0.5-0.7,0-1&#10;&#9;&#9;&#9;&#9;&#9;&#9;&#9;&#9;l11.8-6.8c0.5-0.3,1.3-0.3,1.8,0L650.5,444.5z"/>
						</g>
					</g>
					<g>
						<g>
							<path fill="#414042" d="M719,445.4c0.5,0.3,0.5,0.7,0,1l-11.8,6.8c-0.5,0.3-1.3,0.3-1.8,0l-11.8-6.8c-0.5-0.3-0.5-0.7,0-1&#10;&#9;&#9;&#9;&#9;&#9;&#9;&#9;&#9;l11.8-6.8c0.5-0.3,1.3-0.3,1.8,0L719,445.4z"/>
						</g>
					</g>
					<g>
						<g>
							<path fill="#414042" d="M624,448.9c0.5,0.3,0.5,0.7,0,1l-11.8,6.8c-0.5,0.3-1.3,0.3-1.8,0l-3.7-2.1l-3.2-1.8l-3.3-1.9&#10;&#9;&#9;&#9;&#9;&#9;&#9;&#9;&#9;l-0.4-0.3l-1.2-0.7l-2.1-1.2l-1.6-0.9l-1.6-0.9l-1.6-0.9l-2.1-1.2l-1.2-0.7l-0.4-0.3l-3.3-1.9l-3.2-1.8l-3.7-2.1&#10;&#9;&#9;&#9;&#9;&#9;&#9;&#9;&#9;c-0.5-0.3-0.5-0.7,0-1l11.8-6.8c0.5-0.3,1.3-0.3,1.8,0l3.7,2.1l3.2,1.8l3.3,1.9l0.4,0.3l1.2,0.7l2.1,1.2l1.6,0.9l1.6,0.9&#10;&#9;&#9;&#9;&#9;&#9;&#9;&#9;&#9;l1.6,0.9l2.1,1.2l1.2,0.7l0.4,0.3l3.3,1.9l3.2,1.8L624,448.9z"/>
						</g>
					</g>
					<g>
						<g>
							<path fill="#414042" d="M696.4,451.4c0.5,0.3,0.5,0.7,0,1l-11.8,6.8c-0.5,0.3-1.3,0.3-1.8,0l-11.8-6.8c-0.5-0.3-0.5-0.8,0-1&#10;&#9;&#9;&#9;&#9;&#9;&#9;&#9;&#9;l11.8-6.8c0.5-0.3,1.3-0.3,1.8,0L696.4,451.4z"/>
						</g>
					</g>
					<g>
						<g>
							<path fill="#414042" d="M735.4,454.9c0.5,0.3,0.5,0.7,0,1l-11.8,6.8c-0.5,0.3-1.3,0.3-1.8,0l-11.8-6.8c-0.5-0.3-0.5-0.7,0-1&#10;&#9;&#9;&#9;&#9;&#9;&#9;&#9;&#9;l11.8-6.8c0.5-0.3,1.3-0.3,1.8,0L735.4,454.9z"/>
						</g>
					</g>
					<g>
						<g>
							<path fill="#414042" d="M603,456.2c0.5,0.3,0.5,0.7,0,1l-11.8,6.8c-0.5,0.3-1.3,0.3-1.8,0l-11.8-6.8c-0.5-0.3-0.5-0.8,0-1&#10;&#9;&#9;&#9;&#9;&#9;&#9;&#9;&#9;l11.8-6.8c0.5-0.3,1.3-0.3,1.8,0L603,456.2z"/>
						</g>
					</g>
					<g>
						<g>
							<path fill="#414042" d="M640.4,458.4c0.5,0.3,0.5,0.7,0,1l-11.8,6.8c-0.5,0.3-1.3,0.3-1.8,0l-11.8-6.8c-0.5-0.3-0.5-0.7,0-1&#10;&#9;&#9;&#9;&#9;&#9;&#9;&#9;&#9;l11.8-6.8c0.5-0.3,1.3-0.3,1.8,0L640.4,458.4z"/>
						</g>
					</g>
					<g>
						<g>
							<path fill="#414042" d="M712.8,460.9c0.5,0.3,0.5,0.7,0,1l-11.8,6.8c-0.5,0.3-1.3,0.3-1.8,0l-11.8-6.8c-0.5-0.3-0.5-0.7,0-1&#10;&#9;&#9;&#9;&#9;&#9;&#9;&#9;&#9;l11.8-6.8c0.5-0.3,1.3-0.3,1.8,0L712.8,460.9z"/>
						</g>
					</g>
					<g>
						<g>
							<path fill="#414042" d="M619.3,465.7c0.5,0.3,0.5,0.7,0,1l-11.8,6.8c-0.5,0.3-1.3,0.3-1.8,0l-11.8-6.8c-0.5-0.3-0.5-0.7,0-1&#10;&#9;&#9;&#9;&#9;&#9;&#9;&#9;&#9;l11.8-6.8c0.5-0.3,1.3-0.3,1.8,0L619.3,465.7z"/>
						</g>
					</g>
					<g>
						<g>
							<path fill="#414042" d="M784.1,471.1c0.6,0.3,0.6,0.9,0,1.2l-5.9,3.4c-0.6,0.3-1.5,0.3-2.1,0l-12.4-7.2&#10;&#9;&#9;&#9;&#9;&#9;&#9;&#9;&#9;c-0.6-0.3-0.6-0.9,0-1.2l5.9-3.4c0.6-0.3,1.5-0.3,2.1,0L784.1,471.1z"/>
						</g>
					</g>
					<g>
						<g>
							<path fill="#414042" d="M656.8,467.8c0.5,0.3,0.5,0.7,0,1l-11.8,6.8c-0.5,0.3-1.3,0.3-1.8,0l-11.8-6.8c-0.5-0.3-0.5-0.7,0-1&#10;&#9;&#9;&#9;&#9;&#9;&#9;&#9;&#9;l11.8-6.8c0.5-0.3,1.3-0.3,1.8,0L656.8,467.8z"/>
						</g>
					</g>
					<g>
						<g>
							<path fill="#414042" d="M729.2,470.3c0.5,0.3,0.5,0.7,0,1l-11.8,6.8c-0.5,0.3-1.3,0.3-1.8,0l-11.8-6.8c-0.5-0.3-0.5-0.7,0-1&#10;&#9;&#9;&#9;&#9;&#9;&#9;&#9;&#9;l11.8-6.8c0.5-0.3,1.3-0.3,1.8,0L729.2,470.3z"/>
						</g>
					</g>
					<g>
						<g>
							<path fill="#414042" d="M801.2,481c0.6,0.3,0.6,0.9,0,1.2l-5.9,3.4c-0.6,0.3-1.5,0.3-2.1,0l-12.4-7.2c-0.6-0.3-0.6-0.9,0-1.2&#10;&#9;&#9;&#9;&#9;&#9;&#9;&#9;&#9;l5.9-3.4c0.6-0.3,1.5-0.3,2.1,0L801.2,481z"/>
						</g>
					</g>
					<g>
						<g>
							<path fill="#414042" d="M640,477.6c0.5,0.3,0.5,0.7,0,1l-11.8,6.8c-0.5,0.3-1.3,0.3-1.8,0l-4.3-2.5l-7.6-4.4l-4.3-2.5&#10;&#9;&#9;&#9;&#9;&#9;&#9;&#9;&#9;c-0.5-0.3-0.5-0.7,0-1l11.8-6.8c0.5-0.3,1.3-0.3,1.8,0l4.3,2.5l7.6,4.4L640,477.6z"/>
						</g>
					</g>
					<g>
						<g>
							<path fill="#414042" d="M745.5,479.8c0.5,0.3,0.5,0.7,0,1l-11.8,6.8c-0.5,0.3-1.3,0.3-1.8,0l-11.8-6.8c-0.5-0.3-0.5-0.7,0-1&#10;&#9;&#9;&#9;&#9;&#9;&#9;&#9;&#9;l11.8-6.8c0.5-0.3,1.3-0.3,1.8,0L745.5,479.8z"/>
						</g>
					</g>
					<g>
						<g>
							<path fill="#414042" d="M784.5,483.3c0.5,0.3,0.5,0.7,0,1l-11.8,6.8c-0.5,0.3-1.3,0.3-1.8,0l-11.8-6.8c-0.5-0.3-0.5-0.7,0-1&#10;&#9;&#9;&#9;&#9;&#9;&#9;&#9;&#9;l11.8-6.8c0.5-0.3,1.3-0.3,1.8,0L784.5,483.3z"/>
						</g>
					</g>
					<g>
						<g>
							<path fill="#414042" d="M761.9,489.2c0.5,0.3,0.5,0.7,0,1l-11.8,6.8c-0.5,0.3-1.3,0.3-1.8,0l-11.8-6.8c-0.5-0.3-0.5-0.7,0-1&#10;&#9;&#9;&#9;&#9;&#9;&#9;&#9;&#9;l11.8-6.8c0.5-0.3,1.3-0.3,1.8,0L761.9,489.2z"/>
						</g>
					</g>
					<g>
						<g>
							<path fill="#414042" d="M800.9,492.7c0.5,0.3,0.5,0.7,0,1l-11.8,6.8c-0.5,0.3-1.3,0.3-1.8,0l-11.8-6.8c-0.5-0.3-0.5-0.7,0-1&#10;&#9;&#9;&#9;&#9;&#9;&#9;&#9;&#9;l11.8-6.8c0.5-0.3,1.3-0.3,1.8,0L800.9,492.7z"/>
						</g>
					</g>
					<g>
						<g>
							<path fill="#414042" d="M778.3,498.7c0.5,0.3,0.5,0.7,0,1l-11.8,6.8c-0.5,0.3-1.3,0.3-1.8,0l-11.8-6.8c-0.5-0.3-0.5-0.7,0-1&#10;&#9;&#9;&#9;&#9;&#9;&#9;&#9;&#9;l11.8-6.8c0.5-0.3,1.3-0.3,1.8,0L778.3,498.7z"/>
						</g>
					</g>
					<g>
						<g>
							<path fill="#414042" d="M817.2,502.2c0.5,0.3,0.5,0.7,0,1l-11.8,6.8c-0.5,0.3-1.3,0.3-1.8,0l-11.8-6.8c-0.5-0.3-0.5-0.7,0-1&#10;&#9;&#9;&#9;&#9;&#9;&#9;&#9;&#9;l11.8-6.8c0.5-0.3,1.3-0.3,1.8,0L817.2,502.2z"/>
						</g>
					</g>
					<g>
						<g>
							<path fill="#414042" d="M794.6,508.1c0.5,0.3,0.5,0.7,0,1l-11.8,6.8c-0.5,0.3-1.3,0.3-1.8,0l-11.8-6.8c-0.5-0.3-0.5-0.7,0-1&#10;&#9;&#9;&#9;&#9;&#9;&#9;&#9;&#9;l11.8-6.8c0.5-0.3,1.3-0.3,1.8,0L794.6,508.1z"/>
						</g>
					</g>
					<g>
						<g>
							<path fill="#414042" d="M765.1,510.6c0.5,0.3,0.5,0.7,0,1l-11.8,6.8c-0.5,0.3-1.3,0.3-1.8,0l-11.8-6.8c-0.5-0.3-0.5-0.8,0-1&#10;&#9;&#9;&#9;&#9;&#9;&#9;&#9;&#9;l11.8-6.8c0.5-0.3,1.3-0.3,1.8,0L765.1,510.6z"/>
						</g>
					</g>
					<g>
						<g>
							<path fill="#414042" d="M738.6,515.1c0.5,0.3,0.5,0.7,0,1l-11.8,6.8c-0.5,0.3-1.3,0.3-1.8,0l-11.8-6.8c-0.5-0.3-0.5-0.7,0-1&#10;&#9;&#9;&#9;&#9;&#9;&#9;&#9;&#9;l11.8-6.8c0.5-0.3,1.3-0.3,1.8,0L738.6,515.1z"/>
						</g>
					</g>
					<g>
						<g>
							<path fill="#414042" d="M811,517.6c0.5,0.3,0.5,0.7,0,1l-11.8,6.8c-0.5,0.3-1.3,0.3-1.8,0l-11.8-6.8c-0.5-0.3-0.5-0.7,0-1&#10;&#9;&#9;&#9;&#9;&#9;&#9;&#9;&#9;l11.8-6.8c0.5-0.3,1.3-0.3,1.8,0L811,517.6z"/>
						</g>
					</g>
					<g>
						<g>
							<path fill="#414042" d="M781.5,520.1c0.5,0.3,0.5,0.7,0,1l-11.8,6.8c-0.5,0.3-1.3,0.3-1.8,0l-11.8-6.8c-0.5-0.3-0.5-0.8,0-1&#10;&#9;&#9;&#9;&#9;&#9;&#9;&#9;&#9;l11.8-6.8c0.5-0.3,1.3-0.3,1.8,0L781.5,520.1z"/>
						</g>
					</g>
					<g>
						<g>
							<path fill="#414042" d="M721.8,524.8c0.5,0.3,0.5,0.7,0,1l-11.8,6.8c-0.5,0.3-1.3,0.3-1.8,0l-4.2-2.4l-7.6-4.4l-53.7-31&#10;&#9;&#9;&#9;&#9;&#9;&#9;&#9;&#9;l-5.9-3.4l-5.9-3.4c-0.5-0.3-0.5-0.7,0-1l11.8-6.8c0.5-0.3,1.3-0.3,1.8,0l5.9,3.4l5.9,3.4l53.7,31l7.6,4.4L721.8,524.8z"/>
						</g>
					</g>
					<g>
						<g>
							<path fill="#414042" d="M827.4,527c0.5,0.3,0.5,0.7,0,1l-11.8,6.8c-0.5,0.3-1.3,0.3-1.8,0l-11.8-6.8c-0.5-0.3-0.5-0.7,0-1&#10;&#9;&#9;&#9;&#9;&#9;&#9;&#9;&#9;l11.8-6.8c0.5-0.3,1.3-0.3,1.8,0L827.4,527z"/>
						</g>
					</g>
					<g>
						<g>
							<path fill="#414042" d="M771.4,534c0.5,0.3,0.5,0.7,0,1l-11.8,6.8c-0.5,0.3-1.3,0.3-1.8,0L746,535c-0.5-0.3-0.5-0.7,0-1&#10;&#9;&#9;&#9;&#9;&#9;&#9;&#9;&#9;l11.8-6.8c0.5-0.3,1.3-0.3,1.8,0L771.4,534z"/>
						</g>
					</g>
					<g>
						<g>
							<path fill="#414042" d="M876.6,536.4c0.5,0.3,0.5,0.7,0,1l-11.8,6.8c-0.5,0.3-1.3,0.3-1.8,0l-10.2-5.9l-1.6-0.9l-10.2-5.9&#10;&#9;&#9;&#9;&#9;&#9;&#9;&#9;&#9;c-0.5-0.3-0.5-0.7,0-1l11.8-6.8c0.5-0.3,1.3-0.3,1.8,0l10.2,5.9l1.6,0.9L876.6,536.4z"/>
						</g>
					</g>
					<g>
						<g>
							<path fill="#414042" d="M843.8,536.5c0.5,0.3,0.5,0.7,0,1l-11.8,6.8c-0.5,0.3-1.3,0.3-1.8,0l-11.8-6.8c-0.5-0.3-0.5-0.7,0-1&#10;&#9;&#9;&#9;&#9;&#9;&#9;&#9;&#9;l11.8-6.8c0.5-0.3,1.3-0.3,1.8,0L843.8,536.5z"/>
						</g>
					</g>
					<g>
						<g>
							<path fill="#414042" d="M743,537c0.5,0.3,0.5,0.7,0,1l-11.8,6.8c-0.5,0.3-1.3,0.3-1.8,0l-4.3-2.5l-7.6-4.4l-4.3-2.5&#10;&#9;&#9;&#9;&#9;&#9;&#9;&#9;&#9;c-0.5-0.3-0.5-0.7,0-1l11.8-6.8c0.5-0.3,1.3-0.3,1.8,0l4.3,2.5l7.6,4.4L743,537z"/>
						</g>
					</g>
					<g>
						<g>
							<path fill="#414042" d="M787.7,543.4c0.5,0.3,0.5,0.7,0,1l-11.8,6.8c-0.5,0.3-1.3,0.3-1.8,0l-11.8-6.8c-0.5-0.3-0.5-0.7,0-1&#10;&#9;&#9;&#9;&#9;&#9;&#9;&#9;&#9;l11.8-6.8c0.5-0.3,1.3-0.3,1.8,0L787.7,543.4z"/>
						</g>
					</g>
					<g>
						<g>
							<path fill="#414042" d="M860.1,545.9c0.5,0.3,0.5,0.7,0,1l-11.8,6.8c-0.5,0.3-1.3,0.3-1.8,0l-11.8-6.8c-0.5-0.3-0.5-0.7,0-1&#10;&#9;&#9;&#9;&#9;&#9;&#9;&#9;&#9;l11.8-6.8c0.5-0.3,1.3-0.3,1.8,0L860.1,545.9z"/>
						</g>
					</g>
					<g>
						<g>
							<path fill="#414042" d="M758,545.7c0.5,0.3,0.5,0.7,0,1l-11.8,6.8c-0.5,0.3-1.3,0.3-1.8,0l-4.3-2.5l-2-1.2l-4.3-2.5&#10;&#9;&#9;&#9;&#9;&#9;&#9;&#9;&#9;c-0.5-0.3-0.5-0.7,0-1l11.8-6.8c0.5-0.3,1.3-0.3,1.8,0l4.3,2.5l2,1.2L758,545.7z"/>
						</g>
					</g>
					<g>
						<g>
							<path fill="#414042" d="M768.2,559.4c0.5,0.3,0.5,0.8,0,1.1l-4.8,2.8c-0.5,0.3-1.4,0.3-2,0l-11.9-6.8c-0.5-0.3-0.5-0.8,0-1.1&#10;&#9;&#9;&#9;&#9;&#9;&#9;&#9;&#9;l4.8-2.8c0.5-0.3,1.4-0.3,2,0L768.2,559.4z"/>
						</g>
					</g>
					<g>
						<g>
							<path fill="#414042" d="M791.5,565c0.5,0.3,0.5,0.8,0,1.1l-4.8,2.8c-0.5,0.3-1.4,0.3-1.9,0l-11.9-6.8c-0.5-0.3-0.5-0.8,0-1.1&#10;&#9;&#9;&#9;&#9;&#9;&#9;&#9;&#9;l4.8-2.8c0.5-0.3,1.4-0.3,1.9,0L791.5,565z"/>
						</g>
					</g>
					<g>
						<g>
							<path fill="#414042" d="M784.7,569c0.5,0.3,0.5,0.8,0,1.1l-4.8,2.8c-0.5,0.3-1.4,0.3-1.9,0l-11.9-6.8c-0.5-0.3-0.5-0.8,0-1.1&#10;&#9;&#9;&#9;&#9;&#9;&#9;&#9;&#9;l4.8-2.8c0.5-0.3,1.4-0.3,1.9,0L784.7,569z"/>
						</g>
					</g>
					<g>
						<g>
							<path fill="#414042" d="M826.2,565.7c0.5,0.3,0.5,0.7,0,1l-11.8,6.8c-0.5,0.3-1.3,0.3-1.8,0l-0.4-0.2l-9-5.2l-0.4-0.2l-2-1.2&#10;&#9;&#9;&#9;&#9;&#9;&#9;&#9;&#9;l-0.4-0.2l-0.5-0.3l-8.5-4.9l-0.4-0.2l-0.5-0.3l-2-1.2l-0.4-0.2l-9-5.2l-0.4-0.2c-0.5-0.3-0.5-0.7,0-1l11.8-6.8&#10;&#9;&#9;&#9;&#9;&#9;&#9;&#9;&#9;c0.5-0.3,1.3-0.3,1.8,0l0.4,0.2l9,5.2l0.4,0.2l2,1.2l0.4,0.2l0.5,0.3l8.5,4.9l0.4,0.2l0.5,0.3l2,1.2l0.4,0.2l9,5.2&#10;&#9;&#9;&#9;&#9;&#9;&#9;&#9;&#9;L826.2,565.7z"/>
						</g>
					</g>
					<g>
						<g>
							<path fill="#414042" d="M801.3,578.5c0.5,0.3,0.5,0.8,0,1.1l-4.8,2.8c-0.5,0.3-1.4,0.3-1.9,0l-11.9-6.8&#10;&#9;&#9;&#9;&#9;&#9;&#9;&#9;&#9;c-0.5-0.3-0.5-0.8,0-1.1l4.8-2.8c0.5-0.3,1.4-0.3,1.9,0L801.3,578.5z"/>
						</g>
					</g>
					<g>
						<g>
							<path fill="#414042" d="M664.5,402.1c0.6,0.3,0.6,0.9,0,1.2l-5.9,3.4c-0.6,0.3-1.5,0.3-2.1,0l-12.4-7.2&#10;&#9;&#9;&#9;&#9;&#9;&#9;&#9;&#9;c-0.6-0.3-0.6-0.9,0-1.2l5.9-3.4c0.6-0.3,1.5-0.3,2.1,0L664.5,402.1z"/>
						</g>
					</g>
					<g>
						<g>
							<path fill="#414042" d="M653.5,407.6c0.5,0.3,0.5,0.7,0,1l-11.8,6.8c-0.5,0.3-1.3,0.3-1.8,0l-11.8-6.8c-0.5-0.3-0.5-0.7,0-1&#10;&#9;&#9;&#9;&#9;&#9;&#9;&#9;&#9;l11.8-6.8c0.5-0.3,1.3-0.3,1.8,0L653.5,407.6z"/>
						</g>
					</g>
					<g>
						<g>
							<path fill="#414042" d="M681.6,411.9c0.6,0.3,0.6,0.9,0,1.2l-5.9,3.4c-0.6,0.3-1.5,0.3-2.1,0l-12.4-7.2&#10;&#9;&#9;&#9;&#9;&#9;&#9;&#9;&#9;c-0.6-0.3-0.6-0.9,0-1.2l5.9-3.4c0.6-0.3,1.5-0.3,2.1,0L681.6,411.9z"/>
						</g>
					</g>
					<g>
						<g>
							<path fill="#414042" d="M669.9,417.1c0.5,0.3,0.5,0.7,0,1l-11.8,6.8c-0.5,0.3-1.3,0.3-1.8,0l-11.8-6.8c-0.5-0.3-0.5-0.7,0-1&#10;&#9;&#9;&#9;&#9;&#9;&#9;&#9;&#9;l11.8-6.8c0.5-0.3,1.3-0.3,1.8,0L669.9,417.1z"/>
						</g>
					</g>
					<g>
						<g>
							<path fill="#414042" d="M698.7,421.8c0.6,0.3,0.6,0.9,0,1.2l-5.9,3.4c-0.6,0.3-1.5,0.3-2.1,0l-12.4-7.2&#10;&#9;&#9;&#9;&#9;&#9;&#9;&#9;&#9;c-0.6-0.3-0.6-0.9,0-1.2l5.9-3.4c0.6-0.3,1.5-0.3,2.1,0L698.7,421.8z"/>
						</g>
					</g>
					<g>
						<g>
							<path fill="#414042" d="M715.8,431.7c0.6,0.3,0.6,0.9,0,1.2l-5.9,3.4c-0.6,0.3-1.5,0.3-2.1,0l-12.4-7.2&#10;&#9;&#9;&#9;&#9;&#9;&#9;&#9;&#9;c-0.6-0.3-0.6-0.9,0-1.2l5.9-3.4c0.6-0.3,1.5-0.3,2.1,0L715.8,431.7z"/>
						</g>
					</g>
					<g>
						<g>
							<path fill="#414042" d="M702.6,436c0.5,0.3,0.5,0.7,0,1l-11.8,6.8c-0.5,0.3-1.3,0.3-1.8,0l-11.8-6.8c-0.5-0.3-0.5-0.7,0-1&#10;&#9;&#9;&#9;&#9;&#9;&#9;&#9;&#9;l11.8-6.8c0.5-0.3,1.3-0.3,1.8,0L702.6,436z"/>
						</g>
					</g>
					<g>
						<g>
							<path fill="#414042" d="M586.6,446.7c0.5,0.3,0.5,0.7,0,1l-11.8,6.8c-0.5,0.3-1.3,0.3-1.8,0l-11.8-6.8c-0.5-0.3-0.5-0.7,0-1&#10;&#9;&#9;&#9;&#9;&#9;&#9;&#9;&#9;l11.8-6.8c0.5-0.3,1.3-0.3,1.8,0L586.6,446.7z"/>
						</g>
					</g>
					<g>
						<g>
							<path fill="#414042" d="M749.9,451.4c0.6,0.3,0.6,0.9,0,1.2l-5.9,3.4c-0.6,0.3-1.5,0.3-2.1,0l-12.4-7.2&#10;&#9;&#9;&#9;&#9;&#9;&#9;&#9;&#9;c-0.6-0.3-0.6-0.9,0-1.2l5.9-3.4c0.6-0.3,1.5-0.3,2.1,0L749.9,451.4z"/>
						</g>
					</g>
					<g>
						<g>
							<path fill="#414042" d="M666.9,453.9c0.5,0.3,0.5,0.7,0,1l-11.8,6.8c-0.5,0.3-1.3,0.3-1.8,0l-11.8-6.8c-0.5-0.3-0.5-0.7,0-1&#10;&#9;&#9;&#9;&#9;&#9;&#9;&#9;&#9;l11.8-6.8c0.5-0.3,1.3-0.3,1.8,0L666.9,453.9z"/>
						</g>
					</g>
					<g>
						<g>
							<path fill="#414042" d="M767,461.3c0.6,0.3,0.6,0.9,0,1.2l-5.9,3.4c-0.6,0.3-1.5,0.3-2.1,0l-12.4-7.2c-0.6-0.3-0.6-0.9,0-1.2&#10;&#9;&#9;&#9;&#9;&#9;&#9;&#9;&#9;l5.9-3.4c0.6-0.3,1.5-0.3,2.1,0L767,461.3z"/>
						</g>
					</g>
					<g>
						<g>
							<path fill="#414042" d="M683.2,463.4c0.5,0.3,0.5,0.7,0,1l-11.8,6.8c-0.5,0.3-1.3,0.3-1.8,0l-11.8-6.8c-0.5-0.3-0.5-0.7,0-1&#10;&#9;&#9;&#9;&#9;&#9;&#9;&#9;&#9;l11.8-6.8c0.5-0.3,1.3-0.3,1.8,0L683.2,463.4z"/>
						</g>
					</g>
					<g>
						<g>
							<path fill="#414042" d="M751.8,464.4c0.5,0.3,0.5,0.7,0,1l-11.8,6.8c-0.5,0.3-1.3,0.3-1.8,0l-11.8-6.8c-0.5-0.3-0.5-0.7,0-1&#10;&#9;&#9;&#9;&#9;&#9;&#9;&#9;&#9;l11.8-6.8c0.5-0.3,1.3-0.3,1.8,0L751.8,464.4z"/>
						</g>
					</g>
					<g>
						<g>
							<path fill="#414042" d="M699.6,472.8c0.5,0.3,0.5,0.7,0,1l-11.8,6.8c-0.5,0.3-1.3,0.3-1.8,0l-11.8-6.8c-0.5-0.3-0.5-0.7,0-1&#10;&#9;&#9;&#9;&#9;&#9;&#9;&#9;&#9;L686,466c0.5-0.3,1.3-0.3,1.8,0L699.6,472.8z"/>
						</g>
					</g>
					<g>
						<g>
							<path fill="#414042" d="M768.1,473.8c0.5,0.3,0.5,0.7,0,1l-11.8,6.8c-0.5,0.3-1.3,0.3-1.8,0l-11.8-6.8c-0.5-0.3-0.5-0.7,0-1&#10;&#9;&#9;&#9;&#9;&#9;&#9;&#9;&#9;l11.8-6.8c0.5-0.3,1.3-0.3,1.8,0L768.1,473.8z"/>
						</g>
					</g>
					<g>
						<g>
							<path fill="#414042" d="M673.1,477.3c0.5,0.3,0.5,0.7,0,1l-11.8,6.8c-0.5,0.3-1.3,0.3-1.8,0l-11.8-6.8c-0.5-0.3-0.5-0.7,0-1&#10;&#9;&#9;&#9;&#9;&#9;&#9;&#9;&#9;l11.8-6.8c0.5-0.3,1.3-0.3,1.8,0L673.1,477.3z"/>
						</g>
					</g>
					<g>
						<g>
							<path fill="#414042" d="M716,482.3c0.5,0.3,0.5,0.7,0,1l-11.8,6.8c-0.5,0.3-1.3,0.3-1.8,0l-11.8-6.8c-0.5-0.3-0.5-0.7,0-1&#10;&#9;&#9;&#9;&#9;&#9;&#9;&#9;&#9;l11.8-6.8c0.5-0.3,1.3-0.3,1.8,0L716,482.3z"/>
						</g>
					</g>
					<g>
						<g>
							<path fill="#414042" d="M689.5,486.7c0.5,0.3,0.5,0.7,0,1l-11.8,6.8c-0.5,0.3-1.3,0.3-1.8,0l-11.8-6.8c-0.5-0.3-0.5-0.7,0-1&#10;&#9;&#9;&#9;&#9;&#9;&#9;&#9;&#9;l11.8-6.8c0.5-0.3,1.3-0.3,1.8,0L689.5,486.7z"/>
						</g>
					</g>
					<g>
						<g>
							<path fill="#414042" d="M818.3,490.9c0.6,0.3,0.6,0.9,0,1.2l-5.9,3.4c-0.6,0.3-1.5,0.3-2.1,0l-12.4-7.2&#10;&#9;&#9;&#9;&#9;&#9;&#9;&#9;&#9;c-0.6-0.3-0.6-0.9,0-1.2l5.9-3.4c0.6-0.3,1.5-0.3,2.1,0L818.3,490.9z"/>
						</g>
					</g>
					<g>
						<g>
							<path fill="#414042" d="M732.4,491.7c0.5,0.3,0.5,0.7,0,1l-11.8,6.8c-0.5,0.3-1.3,0.3-1.8,0l-11.8-6.8c-0.5-0.3-0.5-0.7,0-1&#10;&#9;&#9;&#9;&#9;&#9;&#9;&#9;&#9;l11.8-6.8c0.5-0.3,1.3-0.3,1.8,0L732.4,491.7z"/>
						</g>
					</g>
					<g>
						<g>
							<path fill="#414042" d="M705.9,496.2c0.5,0.3,0.5,0.7,0,1l-11.8,6.8c-0.5,0.3-1.3,0.3-1.8,0l-11.8-6.8c-0.5-0.3-0.5-0.7,0-1&#10;&#9;&#9;&#9;&#9;&#9;&#9;&#9;&#9;l11.8-6.8c0.5-0.3,1.3-0.3,1.8,0L705.9,496.2z"/>
						</g>
					</g>
					<g>
						<g>
							<path fill="#414042" d="M835.4,500.8c0.6,0.3,0.6,0.9,0,1.2l-5.9,3.4c-0.6,0.3-1.5,0.3-2.1,0l-12.4-7.2&#10;&#9;&#9;&#9;&#9;&#9;&#9;&#9;&#9;c-0.6-0.3-0.6-0.9,0-1.2l5.9-3.4c0.6-0.3,1.5-0.3,2.1,0L835.4,500.8z"/>
						</g>
					</g>
					<g>
						<g>
							<path fill="#414042" d="M748.7,501.2c0.5,0.3,0.5,0.7,0,1l-11.8,6.8c-0.5,0.3-1.3,0.3-1.8,0l-11.8-6.8c-0.5-0.3-0.5-0.7,0-1&#10;&#9;&#9;&#9;&#9;&#9;&#9;&#9;&#9;l11.8-6.8c0.5-0.3,1.3-0.3,1.8,0L748.7,501.2z"/>
						</g>
					</g>
					<g>
						<g>
							<path fill="#414042" d="M722.3,505.6c0.5,0.3,0.5,0.7,0,1l-11.8,6.8c-0.5,0.3-1.3,0.3-1.8,0l-11.8-6.8c-0.5-0.3-0.5-0.7,0-1&#10;&#9;&#9;&#9;&#9;&#9;&#9;&#9;&#9;l11.8-6.8c0.5-0.3,1.3-0.3,1.8,0L722.3,505.6z"/>
						</g>
					</g>
					<g>
						<g>
							<path fill="#414042" d="M852.5,510.6c0.6,0.3,0.6,0.9,0,1.2l-5.9,3.4c-0.6,0.3-1.5,0.3-2.1,0l-12.4-7.2&#10;&#9;&#9;&#9;&#9;&#9;&#9;&#9;&#9;c-0.6-0.3-0.6-0.9,0-1.2l5.9-3.4c0.6-0.3,1.5-0.3,2.1,0L852.5,510.6z"/>
						</g>
					</g>
					<g>
						<g>
							<path fill="#414042" d="M833.6,511.6c0.5,0.3,0.5,0.7,0,1l-11.8,6.8c-0.5,0.3-1.3,0.3-1.8,0l-11.8-6.8c-0.5-0.3-0.5-0.7,0-1&#10;&#9;&#9;&#9;&#9;&#9;&#9;&#9;&#9;l11.8-6.8c0.5-0.3,1.3-0.3,1.8,0L833.6,511.6z"/>
						</g>
					</g>
					<g>
						<g>
							<path fill="#414042" d="M869.6,520.5c0.6,0.3,0.6,0.9,0,1.2l-5.9,3.4c-0.6,0.3-1.5,0.3-2.1,0l-12.4-7.2&#10;&#9;&#9;&#9;&#9;&#9;&#9;&#9;&#9;c-0.6-0.3-0.6-0.9,0-1.2l5.9-3.4c0.6-0.3,1.5-0.3,2.1,0L869.6,520.5z"/>
						</g>
					</g>
					<g>
						<g>
							<path fill="#414042" d="M850,521.1c0.5,0.3,0.5,0.7,0,1l-11.8,6.8c-0.5,0.3-1.3,0.3-1.8,0l-11.8-6.8c-0.5-0.3-0.5-0.7,0-1&#10;&#9;&#9;&#9;&#9;&#9;&#9;&#9;&#9;l11.8-6.8c0.5-0.3,1.3-0.3,1.8,0L850,521.1z"/>
						</g>
					</g>
					<g>
						<g>
							<path fill="#414042" d="M755,524.5c0.5,0.3,0.5,0.7,0,1l-11.8,6.8c-0.5,0.3-1.3,0.3-1.8,0l-11.8-6.8c-0.5-0.3-0.5-0.7,0-1&#10;&#9;&#9;&#9;&#9;&#9;&#9;&#9;&#9;l11.8-6.8c0.5-0.3,1.3-0.3,1.8,0L755,524.5z"/>
						</g>
					</g>
					<g>
						<g>
							<path fill="#414042" d="M886.7,530.4c0.6,0.3,0.6,0.9,0,1.2l-5.9,3.4c-0.6,0.3-1.5,0.3-2.1,0l-12.4-7.2&#10;&#9;&#9;&#9;&#9;&#9;&#9;&#9;&#9;c-0.6-0.3-0.6-0.9,0-1.2l5.9-3.4c0.6-0.3,1.5-0.3,2.1,0L886.7,530.4z"/>
						</g>
					</g>
					<g>
						<g>
							<path fill="#414042" d="M797.8,529.6c0.5,0.3,0.5,0.7,0,1l-11.8,6.8c-0.5,0.3-1.3,0.3-1.8,0l-11.8-6.8c-0.5-0.3-0.5-0.7,0-1&#10;&#9;&#9;&#9;&#9;&#9;&#9;&#9;&#9;l11.8-6.8c0.5-0.3,1.3-0.3,1.8,0L797.8,529.6z"/>
						</g>
					</g>
					<g>
						<g>
							<path fill="#414042" d="M814.2,539c0.5,0.3,0.5,0.7,0,1l-11.8,6.8c-0.5,0.3-1.3,0.3-1.8,0l-11.8-6.8c-0.5-0.3-0.5-0.7,0-1&#10;&#9;&#9;&#9;&#9;&#9;&#9;&#9;&#9;l11.8-6.8c0.5-0.3,1.3-0.3,1.8,0L814.2,539z"/>
						</g>
					</g>
					<g>
						<g>
							<path fill="#414042" d="M843.2,555.8c0.5,0.3,0.5,0.7,0,1l-11.8,6.8c-0.5,0.3-1.3,0.3-1.8,0l-0.3-0.1l-11.6-6.7l-0.3-0.1&#10;&#9;&#9;&#9;&#9;&#9;&#9;&#9;&#9;c-0.1,0-0.1-0.1-0.1-0.1c-0.1,0-0.2-0.1-0.2-0.1l-0.3-0.1l-11.6-6.7l-0.3-0.1c-0.5-0.3-0.5-0.7,0-1l11.8-6.8&#10;&#9;&#9;&#9;&#9;&#9;&#9;&#9;&#9;c0.5-0.3,1.3-0.3,1.8,0l0.3,0.1l11.6,6.7l0.3,0.1c0.1,0,0.1,0.1,0.2,0.1c0.1,0,0.2,0,0.2,0.1l0.3,0.1l11.6,6.7L843.2,555.8z"/>
						</g>
					</g>
				</g>
				<g>
					<path fill="#414042" d="M912.6,535.9l-163.1,94.8c-6.8,3.9-17.8,3.9-24.7,0l-93.4-53.9v0l-58.5-33.8l0,0L479.5,489&#10;&#9;&#9;&#9;&#9;&#9;&#9;c-3.4-2-5.2-4.6-5.1-7.2l0,9.9c0,2.6,1.7,5.2,5.1,7.2l93.4,53.9h0v0l58.5,33.8v0l93.4,53.9c6.8,3.9,17.9,3.9,24.7,0l163.1-94.8&#10;&#9;&#9;&#9;&#9;&#9;&#9;c3.4-2,5.1-4.5,5.1-7.1l0-9.9C917.6,531.3,915.9,533.9,912.6,535.9z"/>
				</g>
				<g>
					<path d="M 697.2000122070312 136.1999969482422 L 696.5 379.6000061035156 L 866 477.5 L 866.7000122070312 234 Z" fill="#FFFDF3"/>
					<path fill="#FFFCEB" d="M781.9,213.7c10.6,6.1,19.1,20.9,19.1,33c0,12.1-8.6,17-19.2,10.9c-10.6-6.1-19.1-20.9-19.1-33&#10;&#9;&#9;&#9;&#9;&#9;&#9;C762.7,212.5,771.3,207.6,781.9,213.7z"/>
					<path fill="#9B9B9B" d="M781.9,213.7c-10.6-6.1-19.2-1.2-19.2,10.9c0,12.1,8.5,26.9,19.1,33c10.6,6.1,19.2,1.2,19.2-10.9&#10;&#9;&#9;&#9;&#9;&#9;&#9;C801,234.6,792.5,219.8,781.9,213.7z M776.4,223.3c0-3.5,2.5-4.9,5.5-3.1c3,1.7,5.5,6,5.5,9.5l0,2.7c0,3.5-2.5,4.9-5.5,3.1&#10;&#9;&#9;&#9;&#9;&#9;&#9;c-3-1.7-5.5-6-5.5-9.5L776.4,223.3z M792,254c-2.7,1.3-6.2,1-10.2-1.2c-3.9-2.3-7.5-6.1-10.2-10.5l0-3c0-4.2,1.9-6.7,4.8-7.1&#10;&#9;&#9;&#9;&#9;&#9;&#9;c1.4,2.4,3.3,4.5,5.4,5.8c2.1,1.2,4,1.3,5.4,0.5c2.9,3.7,4.8,8.5,4.7,12.7L792,254z"/>
					<path fill="#414042" d="M718.1,285.1l-0.1,24.6L845,383.1l0.1-24.6L718.1,285.1z M843.2,379.9l-123.3-71.2l0.1-20.4l123.3,71.2&#10;&#9;&#9;&#9;&#9;&#9;&#9;L843.2,379.9z"/>
					<path d="M 727.9000244140625 262.6000061035156 L 725.7000122070312 261.29998779296875 L 725.7000122070312 263 L 727.7999877929688 264.20001220703125 L 727.7999877929688 265.1000061035156 L 725.7000122070312 263.8999938964844 L 725.7000122070312 265.8999938964844 L 727.9000244140625 267.1000061035156 L 727.9000244140625 268 L 724.7999877929688 266.20001220703125 L 724.7999877929688 259.8999938964844 L 727.9000244140625 261.70001220703125 Z" fill="#89877E"/>
					<path fill="#89877E" d="M732.6,270.7l-0.9-0.5l0-2.9c0-0.4-0.1-0.7-0.2-0.9c-0.1-0.3-0.3-0.5-0.6-0.6c-0.4-0.2-0.6-0.2-0.8-0.1&#10;&#9;&#9;&#9;&#9;&#9;&#9;c-0.2,0.2-0.3,0.5-0.3,1.1l0,2.4l-0.9-0.5l0-4.8l0.7,0.4l0.1,0.7l0,0c0.1-0.2,0.3-0.2,0.5-0.2c0.2,0,0.5,0.1,0.8,0.3&#10;&#9;&#9;&#9;&#9;&#9;&#9;c1,0.6,1.5,1.4,1.5,2.6L732.6,270.7z"/>
					<path fill="#89877E" d="M735.9,272.5c-0.1,0-0.2,0-0.4-0.1c-0.2-0.1-0.3-0.1-0.5-0.2c-0.8-0.5-1.3-1.2-1.3-2.2l0-2.6l-0.6-0.3&#10;&#9;&#9;&#9;&#9;&#9;&#9;l0-0.4l0.6,0l0.3-0.8l0.5,0.3l0,1.1l1.2,0.7l0,0.8l-1.2-0.7l0,2.6c0,0.2,0.1,0.5,0.2,0.6c0.1,0.2,0.2,0.3,0.4,0.4&#10;&#9;&#9;&#9;&#9;&#9;&#9;c0.2,0.1,0.4,0.2,0.7,0.3L735.9,272.5z"/>
					<path fill="#89877E" d="M743.5,273.1c-0.1-0.1-0.3-0.2-0.4-0.3c-0.4-0.2-0.6-0.2-0.9-0.1c-0.2,0.1-0.3,0.4-0.3,0.8l0,2.5&#10;&#9;&#9;&#9;&#9;&#9;&#9;l-0.9-0.5l0-4.8l0.7,0.4l0.1,0.9l0,0c0.1-0.2,0.3-0.3,0.5-0.4c0.2,0,0.5,0,0.7,0.2c0.2,0.1,0.3,0.2,0.4,0.3L743.5,273.1z"/>
					<path fill="#89877E" d="M747.9,280.2c-0.3,0.8-0.9,1-1.6,0.6c-0.2-0.1-0.4-0.2-0.6-0.4l0-0.8c0.1,0.1,0.3,0.2,0.5,0.3&#10;&#9;&#9;&#9;&#9;&#9;&#9;c0.4,0.2,0.7,0.1,0.9-0.3l0.2-0.4l-1.7-5.7l1,0.6l0.8,3.2c0.1,0.5,0.2,0.9,0.2,1.2l0,0c0-0.2,0.1-0.3,0.1-0.5&#10;&#9;&#9;&#9;&#9;&#9;&#9;c0.1-0.2,0.4-1.1,1-2.7l1,0.5L747.9,280.2z"/>
					<path fill="#89877E" d="M758.5,285.7l-0.7-0.4l-0.1-0.7l0,0c-0.1,0.1-0.3,0.2-0.5,0.2c-0.2,0-0.5-0.1-0.8-0.3&#10;&#9;&#9;&#9;&#9;&#9;&#9;c-0.5-0.3-0.9-0.7-1.1-1.1c-0.2-0.4-0.4-0.9-0.4-1.5l0-3.1l0.9,0.5l0,2.9c0,0.4,0.1,0.7,0.2,0.9c0.1,0.3,0.3,0.5,0.6,0.6&#10;&#9;&#9;&#9;&#9;&#9;&#9;c0.4,0.2,0.6,0.2,0.8,0.1c0.2-0.2,0.3-0.5,0.3-1.1l0-2.4l0.9,0.5L758.5,285.7z"/>
					<path fill="#89877E" d="M762.1,283.9c-0.1-0.1-0.3-0.2-0.4-0.3c-0.4-0.2-0.6-0.2-0.9-0.1c-0.2,0.1-0.3,0.4-0.3,0.8l0,2.5&#10;&#9;&#9;&#9;&#9;&#9;&#9;l-0.9-0.5l0-4.8l0.7,0.4l0.1,0.9l0,0c0.1-0.2,0.3-0.3,0.5-0.4c0.2,0,0.5,0,0.7,0.2c0.2,0.1,0.3,0.2,0.4,0.3L762.1,283.9z"/>
					<path fill="#89877E" d="M768.5,291.4l-0.9-0.5l0-2.9c0-0.4-0.1-0.7-0.2-0.9c-0.1-0.3-0.3-0.5-0.6-0.6c-0.4-0.2-0.6-0.2-0.8-0.1&#10;&#9;&#9;&#9;&#9;&#9;&#9;c-0.2,0.2-0.3,0.5-0.3,1.1l0,2.4l-0.9-0.5l0-4.8l0.7,0.4l0.1,0.7l0,0c0.1-0.2,0.3-0.2,0.5-0.2c0.2,0,0.5,0.1,0.8,0.3&#10;&#9;&#9;&#9;&#9;&#9;&#9;c1,0.6,1.5,1.4,1.5,2.6L768.5,291.4z"/>
					<path fill="#89877E" d="M780.2,298.2l-0.9-0.5l0-2.9c0-0.4-0.1-0.7-0.2-0.9c-0.1-0.3-0.3-0.4-0.6-0.6c-0.3-0.2-0.6-0.2-0.8-0.1&#10;&#9;&#9;&#9;&#9;&#9;&#9;c-0.2,0.2-0.2,0.5-0.2,1l0,2.5l-0.9-0.5l0-2.9c0-0.4-0.1-0.7-0.2-0.9c-0.1-0.3-0.3-0.4-0.6-0.6c-0.3-0.2-0.6-0.2-0.7,0&#10;&#9;&#9;&#9;&#9;&#9;&#9;s-0.2,0.5-0.2,1.1l0,2.4l-0.9-0.5l0-4.8l0.7,0.4l0.1,0.7l0,0c0.1-0.2,0.3-0.2,0.5-0.2c0.2,0,0.5,0.1,0.7,0.2&#10;&#9;&#9;&#9;&#9;&#9;&#9;c0.6,0.4,1.1,0.9,1.3,1.5l0.1,0c0.1-0.2,0.3-0.3,0.5-0.3c0.2,0,0.5,0.1,0.8,0.2c0.5,0.3,0.9,0.6,1.1,1.1&#10;&#9;&#9;&#9;&#9;&#9;&#9;c0.2,0.4,0.3,0.9,0.3,1.5L780.2,298.2z"/>
					<path fill="#414042" d="M718.2,246.6l-0.1,24.6l126.9,73.3l0.1-24.6L718.2,246.6z M843.3,341.4L720,270.2l0.1-20.4l123.3,71.2&#10;&#9;&#9;&#9;&#9;&#9;&#9;L843.3,341.4z"/>
					<g>
						<path fill="#414042" d="M727.6,300c-1.4-0.8-2.5-0.2-2.5,1.4c0,1.6,1.1,3.5,2.5,4.3c1.4,0.8,2.5,0.2,2.5-1.4&#10;&#9;&#9;&#9;&#9;&#9;&#9;&#9;C730.1,302.8,729,300.8,727.6,300z"/>
						<path fill="#414042" d="M749,312.4c-1.4-0.8-2.5-0.2-2.5,1.4c0,1.6,1.1,3.5,2.5,4.3c1.4,0.8,2.5,0.2,2.5-1.4&#10;&#9;&#9;&#9;&#9;&#9;&#9;&#9;C751.5,315.2,750.4,313.2,749,312.4z"/>
						<path fill="#414042" d="M759.8,318.6c-1.4-0.8-2.5-0.2-2.5,1.4c0,1.6,1.1,3.5,2.5,4.3c1.4,0.8,2.5,0.2,2.5-1.4&#10;&#9;&#9;&#9;&#9;&#9;&#9;&#9;C762.3,321.4,761.2,319.4,759.8,318.6z"/>
						<path fill="#414042" d="M770.5,324.8c-1.4-0.8-2.5-0.2-2.5,1.4c0,1.6,1.1,3.5,2.5,4.3c1.4,0.8,2.5,0.2,2.5-1.4&#10;&#9;&#9;&#9;&#9;&#9;&#9;&#9;C773,327.6,771.9,325.6,770.5,324.8z"/>
						<path fill="#414042" d="M781.2,331c-1.4-0.8-2.5-0.2-2.5,1.4s1.1,3.5,2.5,4.3c1.4,0.8,2.5,0.2,2.5-1.4&#10;&#9;&#9;&#9;&#9;&#9;&#9;&#9;C783.7,333.8,782.6,331.8,781.2,331z"/>
						<path fill="#414042" d="M792,337.2c-1.4-0.8-2.5-0.2-2.5,1.4c0,1.6,1.1,3.5,2.5,4.3c1.4,0.8,2.5,0.2,2.5-1.4&#10;&#9;&#9;&#9;&#9;&#9;&#9;&#9;C794.5,339.9,793.3,338,792,337.2z"/>
						<path fill="#414042" d="M738.3,306.2c-1.4-0.8-2.5-0.2-2.5,1.4c0,1.6,1.1,3.5,2.5,4.3c1.4,0.8,2.5,0.2,2.5-1.4&#10;&#9;&#9;&#9;&#9;&#9;&#9;&#9;C740.8,309,739.7,307,738.3,306.2z"/>
						<path fill="#414042" d="M731.1,265c-0.3-0.2-0.5-0.2-0.8-0.3c-0.2,0-0.4,0.1-0.5,0.2l0,0l-0.1-0.7l-0.7-0.4l0,4.8l0.9,0.5&#10;&#9;&#9;&#9;&#9;&#9;&#9;&#9;l0-2.4c0-0.6,0.1-1,0.3-1.1c0.2-0.2,0.4-0.1,0.8,0.1c0.3,0.2,0.5,0.4,0.6,0.6c0.1,0.3,0.2,0.6,0.2,0.9l0,2.9l0.9,0.5l0-3.1&#10;&#9;&#9;&#9;&#9;&#9;&#9;&#9;C732.6,266.4,732.1,265.6,731.1,265z"/>
						<path fill="#414042" d="M735.9,271.8c-0.2,0-0.4-0.1-0.7-0.3c-0.2-0.1-0.3-0.2-0.4-0.4c-0.1-0.2-0.2-0.4-0.2-0.6l0-2.6&#10;&#9;&#9;&#9;&#9;&#9;&#9;&#9;l1.2,0.7l0-0.8l-1.2-0.7l0-1.1l-0.5-0.3l-0.3,0.8l-0.6,0l0,0.4l0.6,0.3l0,2.6c0,1,0.4,1.8,1.3,2.2c0.2,0.1,0.3,0.2,0.5,0.2&#10;&#9;&#9;&#9;&#9;&#9;&#9;&#9;c0.2,0.1,0.3,0.1,0.4,0.1L735.9,271.8z"/>
						<path fill="#414042" d="M738.5,274.2c0.3,0.2,0.5,0.3,0.8,0.4c0.2,0.1,0.4,0.1,0.7,0.1l0-0.8c-0.2,0-0.5-0.1-0.7-0.1&#10;&#9;&#9;&#9;&#9;&#9;&#9;&#9;c-0.2-0.1-0.4-0.2-0.7-0.3c-0.4-0.2-0.7-0.5-0.9-0.9c-0.2-0.4-0.3-0.8-0.3-1.3l2.8,1.6l0-0.6c0-0.7-0.2-1.3-0.5-1.9&#10;&#9;&#9;&#9;&#9;&#9;&#9;&#9;c-0.3-0.6-0.8-1-1.3-1.3c-0.6-0.3-1.1-0.4-1.4-0.1c-0.3,0.3-0.5,0.8-0.5,1.5c0,0.8,0.2,1.5,0.5,2.1&#10;&#9;&#9;&#9;&#9;&#9;&#9;&#9;C737.3,273.3,737.8,273.8,738.5,274.2z M737.7,269.8c0.2-0.1,0.4-0.1,0.7,0.1c0.3,0.2,0.5,0.4,0.7,0.7c0.2,0.3,0.2,0.6,0.2,1&#10;&#9;&#9;&#9;&#9;&#9;&#9;&#9;l-1.9-1.1C737.4,270.2,737.5,270,737.7,269.8z"/>
						<path fill="#414042" d="M742.4,271.8c-0.2,0-0.4,0.2-0.5,0.4l0,0l-0.1-0.9l-0.7-0.4l0,4.8l0.9,0.5l0-2.5&#10;&#9;&#9;&#9;&#9;&#9;&#9;&#9;c0-0.4,0.1-0.7,0.3-0.8c0.2-0.1,0.5-0.1,0.9,0.1c0.1,0.1,0.3,0.2,0.4,0.3l0.1-0.9c-0.1-0.1-0.3-0.2-0.4-0.3&#10;&#9;&#9;&#9;&#9;&#9;&#9;&#9;C742.9,271.8,742.7,271.7,742.4,271.8z"/>
						<path fill="#414042" d="M757.7,284.6l0.1,0.7l0.7,0.4l0-4.8l-0.9-0.5l0,2.4c0,0.6-0.1,1-0.3,1.1s-0.4,0.1-0.8-0.1&#10;&#9;&#9;&#9;&#9;&#9;&#9;&#9;c-0.3-0.2-0.5-0.4-0.6-0.6c-0.1-0.3-0.2-0.6-0.2-0.9l0-2.9l-0.9-0.5l0,3.1c0,0.6,0.1,1.1,0.4,1.5c0.3,0.4,0.6,0.8,1.1,1.1&#10;&#9;&#9;&#9;&#9;&#9;&#9;&#9;c0.3,0.2,0.5,0.3,0.8,0.3C757.3,284.8,757.5,284.7,757.7,284.6L757.7,284.6z"/>
						<path fill="#414042" d="M770.7,292.8c0.3,0.2,0.6,0.3,0.8,0.3c0.2,0,0.4-0.1,0.6-0.2l0,0l0.2,0.8l0.6,0.4l0-3.2&#10;&#9;&#9;&#9;&#9;&#9;&#9;&#9;c0-0.6-0.1-1.1-0.4-1.5c-0.3-0.4-0.7-0.8-1.2-1.1c-0.2-0.1-0.5-0.2-0.8-0.3c-0.3-0.1-0.5-0.1-0.7-0.1l0.3,0.9&#10;&#9;&#9;&#9;&#9;&#9;&#9;&#9;c0.2,0,0.4,0,0.6,0.1c0.2,0,0.4,0.1,0.6,0.2c0.3,0.1,0.4,0.3,0.6,0.6c0.1,0.2,0.2,0.5,0.2,0.8l0,0.3l-0.7-0.4&#10;&#9;&#9;&#9;&#9;&#9;&#9;&#9;c-0.6-0.4-1.1-0.5-1.5-0.4c-0.3,0.1-0.5,0.3-0.5,0.8c0,0.5,0.1,0.9,0.3,1.3C769.9,292.2,770.2,292.5,770.7,292.8z&#10;&#9;&#9;&#9;&#9;&#9;&#9;&#9; M770.6,290.6c0.2,0,0.5,0.1,0.9,0.3l0.5,0.3l0,0.4c0,0.4-0.1,0.6-0.3,0.7c-0.2,0.1-0.5,0-0.8-0.1c-0.2-0.1-0.4-0.3-0.5-0.5&#10;&#9;&#9;&#9;&#9;&#9;&#9;&#9;c-0.1-0.2-0.2-0.4-0.2-0.6C770.3,290.8,770.4,290.6,770.6,290.6z"/>
						<path fill="#414042" d="M779.1,293.8c0.1,0.3,0.2,0.6,0.2,0.9l0,2.9l0.9,0.5l0-3.1c0-0.6-0.1-1.1-0.3-1.5&#10;&#9;&#9;&#9;&#9;&#9;&#9;&#9;c-0.2-0.4-0.6-0.8-1.1-1.1c-0.3-0.2-0.5-0.2-0.8-0.2c-0.2,0-0.4,0.1-0.5,0.3l-0.1,0c-0.2-0.6-0.6-1.1-1.3-1.5&#10;&#9;&#9;&#9;&#9;&#9;&#9;&#9;c-0.3-0.2-0.5-0.2-0.7-0.2c-0.2,0-0.4,0.1-0.5,0.2l0,0l-0.1-0.7l-0.7-0.4l0,4.8l0.9,0.5l0-2.4c0-0.6,0.1-1,0.2-1.1&#10;&#9;&#9;&#9;&#9;&#9;&#9;&#9;c0.2-0.2,0.4-0.1,0.7,0c0.3,0.1,0.4,0.3,0.6,0.6c0.1,0.3,0.2,0.6,0.2,0.9l0,2.9l0.9,0.5l0-2.5c0-0.5,0.1-0.8,0.2-1&#10;&#9;&#9;&#9;&#9;&#9;&#9;&#9;c0.2-0.2,0.4-0.1,0.8,0.1C778.8,293.4,779,293.6,779.1,293.8z"/>
						<path d="M 727.9000244140625 267.1000061035156 L 725.7000122070312 265.8999938964844 L 725.7000122070312 263.8999938964844 L 727.7999877929688 265.1000061035156 L 727.7999877929688 264.20001220703125 L 725.7000122070312 263 L 725.7000122070312 261.29998779296875 L 727.9000244140625 262.6000061035156 L 727.9000244140625 261.70001220703125 L 724.7999877929688 259.8999938964844 L 724.7999877929688 266.20001220703125 L 727.9000244140625 268 Z" fill="#414042"/>
						<path fill="#414042" d="M752,277c-0.6-0.4-1.1-0.4-1.5-0.2c-0.3,0.2-0.5,0.7-0.5,1.5c0,0.5,0.1,1,0.2,1.5&#10;&#9;&#9;&#9;&#9;&#9;&#9;&#9;c0.2,0.5,0.4,0.9,0.7,1.3c0.3,0.4,0.6,0.7,1,0.9c0.6,0.4,1.1,0.4,1.5,0.2c0.4-0.2,0.5-0.7,0.5-1.5c0-0.8-0.2-1.5-0.5-2.1&#10;&#9;&#9;&#9;&#9;&#9;&#9;&#9;C753.1,277.9,752.6,277.4,752,277z M752,281.2c-0.7-0.4-1.1-1.2-1.1-2.3c0-0.5,0.1-0.9,0.3-1.1c0.2-0.2,0.4-0.2,0.8,0&#10;&#9;&#9;&#9;&#9;&#9;&#9;&#9;c0.7,0.4,1.1,1.2,1.1,2.3C753,281.2,752.7,281.6,752,281.2z"/>
						<path fill="#414042" d="M760.6,284.4c0-0.4,0.1-0.7,0.3-0.8c0.2-0.1,0.5-0.1,0.9,0.1c0.1,0.1,0.3,0.2,0.4,0.3l0.1-0.9&#10;&#9;&#9;&#9;&#9;&#9;&#9;&#9;c-0.1-0.1-0.3-0.2-0.4-0.3c-0.3-0.1-0.5-0.2-0.7-0.2c-0.2,0-0.4,0.2-0.5,0.4l0,0l-0.1-0.9l-0.7-0.4l0,4.8l0.9,0.5L760.6,284.4&#10;&#9;&#9;&#9;&#9;&#9;&#9;&#9;z"/>
						<path fill="#414042" d="M747.9,280.2l1.8-4.4l-1-0.5c-0.6,1.6-0.9,2.5-1,2.7c-0.1,0.2-0.1,0.4-0.1,0.5l0,0&#10;&#9;&#9;&#9;&#9;&#9;&#9;&#9;c0-0.4-0.1-0.8-0.2-1.2l-0.8-3.2l-1-0.6l1.7,5.7l-0.2,0.4c-0.2,0.5-0.5,0.6-0.9,0.3c-0.2-0.1-0.3-0.2-0.5-0.3l0,0.8&#10;&#9;&#9;&#9;&#9;&#9;&#9;&#9;c0.2,0.2,0.4,0.3,0.6,0.4C747,281.2,747.6,281,747.9,280.2z"/>
						<path fill="#414042" d="M768.5,291.4l0-3.1c0-1.2-0.5-2-1.5-2.6c-0.3-0.2-0.5-0.2-0.8-0.3c-0.2,0-0.4,0.1-0.5,0.2l0,0&#10;&#9;&#9;&#9;&#9;&#9;&#9;&#9;l-0.1-0.7l-0.7-0.4l0,4.8l0.9,0.5l0-2.4c0-0.6,0.1-1,0.3-1.1c0.2-0.2,0.4-0.1,0.8,0.1c0.3,0.2,0.5,0.4,0.6,0.6&#10;&#9;&#9;&#9;&#9;&#9;&#9;&#9;c0.1,0.3,0.2,0.6,0.2,0.9l0,2.9L768.5,291.4z"/>
						<path fill="#414042" d="M783,294.9c-0.6-0.3-1.1-0.4-1.4-0.1c-0.3,0.2-0.5,0.8-0.5,1.5c0,0.8,0.2,1.5,0.5,2.1&#10;&#9;&#9;&#9;&#9;&#9;&#9;&#9;c0.4,0.6,0.9,1.2,1.5,1.5c0.3,0.2,0.5,0.3,0.8,0.4c0.2,0.1,0.4,0.1,0.7,0.1l0-0.8c-0.2,0-0.5-0.1-0.7-0.1&#10;&#9;&#9;&#9;&#9;&#9;&#9;&#9;c-0.2-0.1-0.4-0.2-0.7-0.3c-0.4-0.2-0.7-0.5-0.9-0.9c-0.2-0.4-0.3-0.8-0.3-1.3l2.8,1.6l0-0.6c0-0.7-0.2-1.3-0.5-1.9&#10;&#9;&#9;&#9;&#9;&#9;&#9;&#9;C784,295.7,783.5,295.3,783,294.9z M782,296.3c0-0.4,0.1-0.6,0.3-0.7c0.2-0.1,0.4-0.1,0.7,0.1c0.3,0.2,0.5,0.4,0.7,0.7&#10;&#9;&#9;&#9;&#9;&#9;&#9;&#9;c0.2,0.3,0.2,0.6,0.2,1L782,296.3z"/>
					</g>
					<g>
						<path d="M 697.2000122070312 136.1999969482422 L 698.4000244140625 135.5 L 867.9000244140625 233.3000030517578 L 866.7000122070312 234 Z" fill="#FFFCEB"/>
					</g>
					<g>
						<path d="M 866.7000122070312 234 L 867.9000244140625 233.3000030517578 L 867.2000122070312 476.79998779296875 L 866 477.5 Z" fill="#FFFCEB"/>
					</g>
				</g>
			</g></svg>