<?xml version="1.0" encoding="UTF-8"?>
<svg width="81px" height="36px" viewBox="0 0 81 36" version="1.1" xmlns="http://www.w3.org/2000/svg" xmlns:xlink="http://www.w3.org/1999/xlink">
    <title>Telios</title>
    <defs>
        <path d="M8.24,15.2075 L8.24,3.7075 L13.98,3.7075 L13.98,1.2075 L5.68434189e-14,1.2075 L5.68434189e-14,3.7075 L5.74,3.7075 L5.74,15.2075 L8.24,15.2075 Z M30,15.1875 L30,12.6875 L19.78,12.6875 C19.08,12.6875 18.5,12.1075 18.5,11.4075 L18.5,8.7675 L27.5,8.7675 L27.5,6.2675 L18.5,6.2675 L18.5,4.9675 C18.5,4.2675 19.08,3.6875 19.78,3.6875 L30,3.6875 L30,1.1875 L19.78,1.1875 C17.7,1.1875 16.02,2.8875 16.02,4.9675 L16.02,11.4075 C16.02,13.4875 17.7,15.1875 19.78,15.1875 L30,15.1875 Z M43.54,15.2075 L43.54,12.7075 L36.2,12.6875 C35.32,12.5675 34.62,11.8675 34.5,10.9875 L34.5,1.2075 L32,1.2075 L32,10.7475 C32,11.4475 32.16,12.1075 32.46,12.7075 C32.88,13.5875 33.6,14.3075 34.48,14.7475 C35.08,15.0475 35.74,15.2075 36.44,15.2075 L43.54,15.2075 Z M48.04,15.1875 L48.04,1.1875 L45.54,1.1875 L45.54,15.1875 L48.04,15.1875 Z M73.9,15.1875 C76.34,15.1875 78.32,13.2075 78.32,10.7675 C78.32,9.7075 77.94,8.7275 77.32,7.9675 C77.26,7.9075 77.22,7.8475 77.16,7.7875 C76.36,6.9075 75.2,6.3475 73.9,6.3475 L68.86,6.3475 C68.16,6.3475 67.58,5.7675 67.58,5.0675 L67.58,4.9875 C67.58,4.2875 68.16,3.7075 68.86,3.7075 L74.54,3.7075 C75.24,3.7075 75.82,4.2875 75.82,4.9875 L75.82,5.0675 L78.32,5.0475 L78.32,4.9675 C78.32,2.8875 76.62,1.1875 74.54,1.1875 L68.86,1.1875 C66.78,1.1875 65.1,2.8875 65.1,4.9675 L65.1,5.0475 C65.1,5.8475 65.34,6.5875 65.76,7.1875 C65.9,7.4075 66.06,7.6075 66.24,7.7875 C66.92,8.4475 67.84,8.8475 68.86,8.8475 L73.9,8.8475 C74.96,8.8475 75.84,9.7075 75.84,10.7675 C75.84,11.8275 74.96,12.6875 73.9,12.6875 L69.52,12.6875 C68.46,12.6875 67.6,11.8275 67.6,10.7675 L65.1,10.7675 C65.1,13.2075 67.08,15.1875 69.52,15.1875 L73.9,15.1875 Z" id="path-3"></path>
    </defs>
    <g id="Login" stroke="none" stroke-width="1" fill="none" fill-rule="evenodd">
        <g id="Desktop---Login" transform="translate(-135.000000, -16.000000)">
            <g id="Logo" transform="translate(136.000000, 19.000000)" fill-rule="nonzero">
                <g id="key" transform="translate(56.625000, 15.250000) scale(1, -1) translate(-56.625000, -15.250000) translate(49.625000, 0.750000)" fill="#000000">
                    <path fill="#45F1A6" d="M13.8843758,20.8134626 C13.606687,18.1124462 11.7263996,15.8200789 9.15792693,15.0008014 L9.15792693,10.5293458 L9.85528267,10.5293458 L9.85528267,9.57930587 L8.20775501,9.57930587 L8.20775501,15.7252068 L8.5634922,15.8175059 C10.9308071,16.4321949 12.6892387,18.4790692 12.939152,20.9107098 C12.9598022,21.1116696 12.9704242,21.3169178 12.9704242,21.5209785 C12.9704242,21.7905523 12.9520171,22.0617096 12.9158628,22.3269951 C12.5100506,25.2966617 9.93735556,27.4842607 6.93536119,27.4117542 C3.77502682,27.3372684 1.1956023,24.7032825 1.18544215,21.5403751 C1.18227535,20.5456041 1.431265,19.5619169 1.90569121,18.6955332 L1.07242698,18.2392501 C0.521139896,19.2460286 0.231773553,20.3885836 0.235433212,21.54341 C0.247277677,25.2164361 3.2428065,28.275037 6.91299566,28.3615962 C6.96815076,28.3629817 7.02264611,28.3635095 7.07753731,28.3635095 C10.4936568,28.3632456 13.393192,25.8501919 13.8571941,22.4555803 C13.8992202,22.1479389 13.9205961,21.8333701 13.9205961,21.5209785 C13.9205961,21.2845241 13.9083247,21.0465523 13.8843758,20.8134626 Z" id="Path"></path>
                    <path fill="#45F1A6" d="M5.59237412,15.8173739 L5.94797936,15.7250089 L5.94797936,4.76339488 L6.98860301,4.76339488 L6.98860301,3.81335491 L5.94797936,3.81335491 L5.94797936,2.95831893 L6.98860301,2.95831893 L6.98860301,2.00827895 L5.94797936,2.00827895 L5.94797936,1.48898974 C5.94797936,1.19500515 6.18713873,0.955845777 6.48112332,0.955845777 L7.67480897,0.955845777 C7.96872759,0.955845777 8.20788696,1.19500515 8.20788696,1.48898974 L8.20788696,5.05487243 L12.9051089,5.05487243 L12.9051089,5.94619465 L8.20788696,5.94619465 L8.20788696,8.68785169 L12.2932568,8.68785169 L12.2932568,9.57910794 L11.5178526,9.57910794 L11.5178526,10.5291479 L12.3912297,10.5291479 C12.8610376,10.5291479 13.2432968,10.1469548 13.2432968,9.67714679 L13.2432968,8.58981284 C13.2432968,8.12000488 12.8610376,7.73781171 12.3912297,7.73781171 L9.15792693,7.73781171 L9.15792693,6.89623463 L13.0030818,6.89623463 C13.4728238,6.89623463 13.8550829,6.51404147 13.8550829,6.04416753 L13.8550829,4.95683358 C13.8550829,4.48702561 13.4728238,4.10476647 13.0030818,4.10476647 L9.15792693,4.10476647 L9.15792693,1.48898974 C9.15792693,0.671163659 8.49263505,0.00587177486 7.67480897,0.00587177486 L6.48112332,0.00587177486 C5.66329724,0.00587177486 4.99800536,0.671163659 4.99800536,1.48898974 L4.99800536,15.0006034 C3.93217926,15.3403087 2.96228081,15.9396256 2.17526506,16.7478193 L2.85586314,17.4105382 C3.60850592,16.637839 4.55471935,16.0868158 5.59237412,15.8173739 Z" id="Path"></path>
                    <path fill="#45F1A6" d="M9.79247447,21.6508173 C9.79247447,20.1540425 8.57477392,18.936342 7.07793316,18.936342 C5.58115837,18.936342 4.3635238,20.1540425 4.3635238,21.6508173 C4.3635238,23.1475921 5.58115837,24.3652926 7.07793316,24.3652926 C8.57477392,24.3652926 9.79247447,23.1475921 9.79247447,21.6508173 Z M7.07793316,23.4151867 C6.10506583,23.4151867 5.31356378,22.6236846 5.31356378,21.6508173 C5.31356378,20.677884 6.10506583,19.8864479 7.07793316,19.8864479 C8.05086646,19.8864479 8.84230254,20.677884 8.84230254,21.6508173 C8.84230254,22.6236846 8.05086646,23.4151867 7.07793316,23.4151867 Z" id="Shape"></path>
                    <path fill="#45F1A6" d="M5.03092688,26.2071826 L5.43706898,25.3481882 C4.99107799,25.1373321 4.58790477,24.8548271 4.23876508,24.5085903 C3.11072456,23.3903141 2.94803021,22.0303715 2.93041489,21.4976893 L1.98090271,21.5290274 C2.00221263,22.1753185 2.1996758,23.8249574 3.5697786,25.1833826 C3.99564721,25.6056886 4.48722692,25.9500781 5.03092688,26.2071826 Z" id="Path"></path>
                    <path fill="#45F1A6" d="M6.40828693,25.6799764 L6.20138933,26.607255 C6.59921857,26.6960574 7.00674614,26.7424378 7.3855086,26.7424378 C7.4118986,26.7424378 7.43835458,26.7422399 7.46448068,26.741778 L7.44798693,25.79187 C7.21964746,25.7958945 6.85473974,25.7795987 6.40828693,25.6799764 Z" id="Path"></path>
                </g>
                <g id="TElios">
                    <use fill="#2E5392" xlink:href="#path-3"></use>
                </g>
            </g>
        </g>
    </g>
</svg>
