<?xml version="1.0" encoding="iso-8859-1"?>
<!-- Generator: Adobe Illustrator 19.0.0, SVG Export Plug-In . SVG Version: 6.00 Build 0)  -->
<svg version="1.1" id="Layer_1" xmlns="http://www.w3.org/2000/svg" xmlns:xlink="http://www.w3.org/1999/xlink" x="0px" y="0px"
	 viewBox="0 0 367.634 367.634" style="enable-background:new 0 0 367.634 367.634;" xml:space="preserve">
<g>
	<g>
		<g>
			<path d="M351.817,332.034h-58.4c8-6.8,16.4-14.4,20.4-18.4c71.6-71.6,71.6-188.4,0-260c-25.2-25.6-57.6-42.8-92.8-50.4
				c-4.4-0.8-8.4,2-9.6,6c-0.8,4.4,2,8.4,6,9.6c32.4,6.8,61.6,22.8,84.8,46c65.6,65.6,65.6,172,0,237.6
				c-4.4,4.4-14.4,13.6-22.8,20.4v-62.8c0-4.4-3.6-8-8-8c-4.4,0-8,3.6-8,8v80c0,4.4,3.6,8,8,8h80c4.4,0,8-3.6,8-8
				C359.417,335.634,356.217,332.034,351.817,332.034z"/>
			<path d="M203.017,350.434c-51.2,6-101.2-11.6-138-48c-65.6-65.6-65.6-172,0-237.6c11.6-11.6,24.8-21.6,38.8-28.8v64
				c0,4.4,3.6,8,8,8c4.4,0,8-3.6,8-8v-80c0-4.4-3.6-8-8-8h-80c-4.4,0-8,3.6-8,8s3.6,8,8,8h54c-11.2,7.2-22,15.6-32,25.6
				c-71.6,71.6-71.6,188.4,0,260c34.8,34.8,81.2,54,129.6,54c7.2,0,14.4-0.4,21.6-1.2c4.4-0.4,7.6-4.4,7.2-8.8
				C211.417,353.234,207.417,350.034,203.017,350.434z"/>
			<path d="M159.417,17.234c0.4,0,0.4,0,0.8,0l12-1.2c4.4-0.4,7.6-4.4,7.2-8.8c-0.4-4.4-4.4-7.6-8.8-7.2l-12,1.2
				c-4.4,0.4-7.6,4.4-7.2,8.8C151.817,14.034,155.417,17.234,159.417,17.234z"/>
		</g>
	</g>
</g>
<g>
</g>
<g>
</g>
<g>
</g>
<g>
</g>
<g>
</g>
<g>
</g>
<g>
</g>
<g>
</g>
<g>
</g>
<g>
</g>
<g>
</g>
<g>
</g>
<g>
</g>
<g>
</g>
<g>
</g>
</svg>
