<?xml version="1.0" encoding="utf-8"?>
<!-- Generator: Adobe Illustrator 19.0.0, SVG Export Plug-In . SVG Version: 6.00 Build 0)  -->
<svg version="1.1" id="Layer_4" xmlns="http://www.w3.org/2000/svg" xmlns:xlink="http://www.w3.org/1999/xlink" x="0px" y="0px"
	 viewBox="1292 -52 448 392" style="enable-background:new 1292 -52 448 392;" xml:space="preserve">
<g>
	<path d="M1641.9-24.8h-191.2c10.3,6.5,20.6,13.8,31,22c6.6,5.2,13,10.6,19.3,16h140.9c21,0,38,17.1,38,38v117.1
		c-12.7,0.9-26.1-0.5-39.5-4.1c-37.8-10.4-71.1-37-92.8-56.2c-11.4-10-22.7-20.7-33.6-31.1c-17.7-16.8-36-34.2-55.8-49.8
		c-6.4-5-12.7-9.6-18.9-13.9c-14.7-10.1-29.2-18.1-43.5-24.2c-19.1-8.1-41.6-3.1-55.2,12.6c-0.1,0.1-0.2,0.2-0.2,0.3
		c-3.5,4.1-6.6,8.5-9.1,13.3c13.9-0.7,27.5,1.1,40.1,5.1c1.1,0.4,2.2,0.8,3.3,1.2c4.3,1.6,8.6,3.5,13,5.6
		c15.2,7.2,30.8,17.2,47.1,30c18.4,14.4,35.2,30.5,53.1,47.4l0,0c12.2,11.6,16.7,29.3,11.5,45.3l-37.9,117.1
		c-2.9,9.1-11.4,15.3-21,15.3h-42.4c-21,0-38-17.1-38-38V56.7c-9-2.9-18.9-4.1-28.8-3.4c-3,0.2-6.1,0.6-9.2,1.2v189.7
		c0,42,34,76,76,76h243.8c41.9,0,76-34.1,76-76v-45v-41.3V51.3C1717.9,9.3,1683.8-24.8,1641.9-24.8z M1679.9,244.2
		c0,0.1,0,0.2,0,0.3c-0.2,20.8-17.1,37.7-38,37.7h-126.6c-9.3,0-15.8-9-13-17.9l28.5-88.1c4-12.3,18.7-17.3,29.3-9.9
		c20.2,14,44,27.2,70.3,34.5c14.1,3.9,28.2,5.8,42,5.8c2.5,0,5-0.1,7.5-0.2V244.2z"/>
</g>
</svg>
