<?xml version="1.0" encoding="utf-8"?>
<!-- Generator: Adobe Illustrator 19.0.0, SVG Export Plug-In . SVG Version: 6.00 Build 0)  -->
<svg version="1.1" id="Layer_1" xmlns="http://www.w3.org/2000/svg" xmlns:xlink="http://www.w3.org/1999/xlink" x="0px" y="0px"
	 viewBox="0 0 960 230.9" style="enable-background:new 0 0 960 230.9;" xml:space="preserve">
<style type="text/css">
	.st0{fill:url(#SVGID_1_);}
	.st1{fill:#666666;}
</style>
<g>
	<linearGradient id="SVGID_1_" gradientUnits="userSpaceOnUse" x1="24.813" y1="222.8359" x2="238.7596" y2="8.8893">
		<stop  offset="0" style="stop-color:#A996FF"/>
		<stop  offset="1" style="stop-color:#25C3FF"/>
	</linearGradient>
	<path class="st0" d="M211.5,2.5H86.1c6.7,4.3,13.5,9.1,20.3,14.5c4.3,3.4,8.5,6.5,12.6,10.5h92.4c13.7,0,25.5,11.2,25.5,25v76.7
		c-9,0.6-17.4-0.3-26.2-2.7c-24.8-6.8-46.7-24.3-61-36.8c-7.5-6.6-14.9-13.6-22.1-20.4c-11.6-11-23.7-22.4-36.6-32.6
		c-4.2-3.3-8.3-6.3-12.4-9.1C69,20.9,59.5,15.6,50.1,11.6C37.6,6.3,22.9,9.6,14,19.9c-0.1,0.1-0.1,0.1-0.2,0.2
		c-2.3,2.7-4.3,5.6-6,8.7c9.1-0.4,18,0.7,26.3,3.4c0.7,0.2,1.4,0.5,2.1,0.8c2.8,1.1,5.7,2.3,8.5,3.7c10,4.7,20.2,11.3,30.9,19.7
		c12,9.5,23.1,20,34.8,31.1v0c8,7.6,11,19.2,7.6,29.7l-24.8,77.1c-1.9,6-7.5,10.4-13.8,10.4H51.7c-13.7,0-24.7-11.9-24.7-25.6V56
		c-7-1.9-12.4-2.7-18.9-2.2c-2,0.1-4.2,0.4-6.1,0.8v124.4c0,27.5,22.1,50.6,49.7,50.6h159.8c27.5,0,50.5-23.1,50.5-50.6v-29.5v-27.1
		V52.5C262,25,239,2.5,211.5,2.5z M237,178.9c0,0.1-0.3,0.5-0.3,0.5c-0.1,13.6-11.5,25-25.2,25h-83c-6.1,0-10.4-6.3-8.5-12
		l18.7-57.9c2.6-8.1,12.3-11.4,19.2-6.6c13.2,9.2,28.8,17.8,46.1,22.6c9.2,2.5,18.8,3.8,27.8,3.8c1.7,0,3.2-0.1,5.2-0.1V178.9z"/>
</g>
<g>
	<polygon id="XMLID_7_" class="st1" points="329,82.5 362,82.5 362,168.5 382,168.5 382,82.5 414,82.5 414,67.5 329,67.5 	"/>
	<polygon id="XMLID_6_" class="st1" points="475,124.5 517,124.5 517,107.5 475,107.5 475,82.5 524,82.5 524,67.5 455,67.5 455,70 
		455,84.2 455,108.5 455,125.8 455,168.5 525,168.5 525,150.5 475,150.5 	"/>
	<polygon id="XMLID_5_" class="st1" points="588,67.5 569,67.5 569,168.5 641,168.5 641,150.5 588,150.5 	"/>
	<rect id="XMLID_4_" x="682" y="67.5" class="st1" width="19" height="101"/>
	<path class="st1" d="M829.5,82.4c-4.3-4.9-9.4-8.8-15.5-11.8c-6-3-12.7-4.5-20-4.5c-7.1,0-13.7,1.4-19.8,4.2
		c-6.1,2.8-11.3,6.6-15.8,11.3C754,86.5,750.5,92,748,98.1c-2.5,6.2-3.8,12.6-3.8,19.4c0,6.5,1.2,12.8,3.6,19
		c2.4,6.2,5.7,11.7,10.1,16.5c4.3,4.8,9.5,8.7,15.5,11.6c6,2.9,12.8,4.3,20.2,4.3c7.1,0,13.7-1.4,19.8-4.2
		c6.1-2.8,11.3-6.6,15.7-11.3c4.4-4.7,7.8-10.1,10.3-16.3c2.5-6.1,3.7-12.6,3.7-19.3c0-6.4-1.2-12.6-3.6-18.8
		C837.1,92.8,833.8,87.3,829.5,82.4z M821.3,129.9c-1.3,4-3.2,7.7-5.7,10.9c-2.5,3.2-5.6,5.8-9.3,7.8c-3.7,2-7.9,2.9-12.6,2.9
		c-4.7,0-8.8-1-12.5-2.9c-3.7-1.9-6.8-4.4-9.3-7.6c-2.5-3.1-4.4-6.8-5.8-10.8c-1.3-4.1-2-8.3-2-12.7c0-4.2,0.6-8.3,1.9-12.3
		c1.3-4,3.2-7.6,5.6-10.8c2.5-3.2,5.6-5.8,9.3-7.7c3.7-1.9,7.9-2.9,12.7-2.9c4.6,0,8.7,0.9,12.3,2.8c3.6,1.9,6.7,4.3,9.3,7.5
		c2.5,3.1,4.5,6.8,5.9,10.8c1.4,4.1,2.1,8.3,2.1,12.7C823.3,121.7,822.6,125.8,821.3,129.9z"/>
	<path id="XMLID_1_" class="st1" d="M957.1,127.5c-1.5-3.2-3.7-5.9-6.5-8.2c-2.8-2.3-6.2-4.2-10.3-5.7c-4-1.5-8.5-3-13.5-4.3
		c-3.8-1-7.2-1.9-10.1-2.7c-2.9-0.9-5.3-1.8-7.2-2.9c-1.9-1-3.4-2.3-4.4-3.6c-1-1.4-1.5-3.1-1.5-5.2c0-3.6,1.3-6.4,4-8.4
		c2.7-2,6.7-3,12.1-3c3,0,6,0.4,9,1.1c3,0.8,5.7,1.7,8.2,2.8c2.5,1.1,4.7,2.2,6.4,3.3c1.8,1.1,3,2,3.6,2.7l8.7-16
		c-4.5-3-9.7-5.7-15.7-7.9c-6-2.2-12.6-3.3-19.7-3.3c-5.1,0-9.9,0.7-14.4,2.1c-4.5,1.4-8.4,3.4-11.8,6.1c-3.4,2.7-6,6-7.9,10
		c-1.9,4-2.9,8.6-2.9,13.7c0,3.9,0.6,7.3,1.8,10.1c1.2,2.8,3,5.3,5.4,7.4c2.4,2.1,5.3,4,8.9,5.6c3.6,1.6,7.8,3,12.6,4.3
		c4,1.1,7.6,2.2,10.8,3.1c3.2,1,6,2,8.3,3.1c2.3,1.1,4,2.5,5.3,4c1.2,1.5,1.9,3.4,1.9,5.6c0,6.9-5.4,10.4-16.3,10.4
		c-3.9,0-7.7-0.5-11.4-1.4c-3.7-1-7.1-2.1-10.1-3.5c-3-1.4-5.7-2.8-7.9-4.1c-2.2-1.4-3.8-2.5-4.6-3.3l-8.7,17
		c5.9,4.2,12.6,7.4,20,9.7c7.4,2.3,14.9,3.4,22.5,3.4c5,0,9.7-0.5,14.2-1.6c4.5-1.1,8.5-2.8,12-5.2c3.5-2.4,6.2-5.5,8.3-9.3
		c2-3.9,3.1-8.5,3.1-13.9C959.3,134.6,958.6,130.6,957.1,127.5z"/>
</g>
</svg>
